<?xml version="1.0" encoding="UTF-8"?>
<svg id="Layer_2" data-name="Layer 2" xmlns="http://www.w3.org/2000/svg" viewBox="0 0 1440 957">
  <defs>
    <style>
      .cls-1 {
        fill: #f8d7aa;
      }

      .cls-2 {
        fill: #fac047;
      }

      .cls-3 {
        fill: #f59f20;
      }

      .cls-4 {
        fill: #e7c87f;
      }

      .cls-5 {
        fill: #faf6eb;
      }

      .cls-6 {
        fill: #83ccbd;
      }

      .cls-7 {
        fill: #a9dbd0;
      }

      .cls-8 {
        fill: #cc9767;
      }

      .cls-9 {
        fill: #232d32;
      }

      .cls-10 {
        fill: #348d80;
      }

      .cls-11 {
        fill: #3f2834;
      }

      .cls-12 {
        fill: #1b1a22;
      }

      .cls-13 {
        fill: #284a50;
      }

      .cls-14 {
        fill: #5a8181;
      }

      .cls-15 {
        fill: none;
        stroke: #1b1a22;
        stroke-miterlimit: 10;
        stroke-width: 10px;
      }

      .cls-16 {
        opacity: .5;
      }
    </style>
  </defs>
  <g id="Layer_1-2" data-name="Layer 1">
    <g class="cls-16">
      <g>
        <path class="cls-14" d="m720,956.91c-238.38,0-476.76-.01-715.14.09-3.97,0-4.86-.84-4.86-4.59C.11,636.47.11,320.53,0,4.59,0,.84.89,0,4.86,0c476.76.1,953.52.1,1430.27,0,3.97,0,4.86.84,4.86,4.59-.11,315.94-.11,631.88,0,947.82,0,3.75-.89,4.59-4.86,4.59-238.38-.1-476.76-.09-715.14-.09Zm207.08-582.94c-.35-.35-.71-.7-1.06-1.05l.06.06c-.36-.35-.72-.7-1.07-1.04l.06.06c-.36-.34-.72-.69-1.08-1.03l.06.04c-5.9-6.56-12.63-12.22-19.3-17.96-9.02-7.77-19.05-13.67-30.45-17.2.2-3.13.45-6.27.6-9.41.51-10.94-1.51-21.68-2.98-32.42-1.21-8.88-3.07-17.76-5.65-26.34-2.72-9.04-5.72-18.03-9.08-26.9-6.29-16.64-14.39-32.18-25.03-46.42.16-.68.31-1.36.47-2.04,9.99,1.09,18.22-2.81,25.63-9.03,1.96-1.31,3.93-2.62,5.89-3.92-14.14,1.81-27.87,2.22-41.59-.6.23-.87.45-1.74.68-2.61,9.56-7.67,17.82-16.53,24.77-26.67,3.6-5.26,5.29-11.21,7.35-17.06,1.74-3.44,2.42-7.08,2.26-11.46-3.77,1.84-5.54,4.69-6.86,7.95-2.41,3.08-3.92,6.86-7.24,9.22-.48-.74-.96-1.49-1.44-2.23.73-4.93,3.05-9.51,3.28-14.55.7-2.22,1.99-4.36.62-8.36-2.95,5.71-7.25,9.02-9.38,14-11.74,13.99-25.96,24.67-42.74,31.93-5.81,1.27-11.73,1.49-17.65,1.77-18.18-.84-36.36-1.92-54.56-2.45-24.84-.71-49.54,1.31-74.08,5.2,0,0-.19.03-.19.03-1.71-.09-3.41-.17-5.12-.26-.81-1.09-1.98-1.21-3.2-1.19h-.02c-.76-.89-1.79-1-2.86-1l-.22-.1c-.81-.86-1.87-.94-2.96-.91l.07.03c-1.07-2.19-3.17-1.85-5.04-2.06l.07.03c-.47-.77-1.2-1.02-2.05-1.05l.06.04c-.46-.82-1.18-1.09-2.08-.99l.04.02c-.33-.92-1.08-1.13-1.94-1.16,0,0,.05.08.05.08-.4-.29-.79-.58-1.19-.88l.05.03c-.47-.76-1.17-1.05-2.03-1.06l.05.04c-.39-.28-.78-.57-1.17-.85-.12-.15-.27-.21-.45-.18-.47-.34-.95-.68-1.42-1.01l.06.03c-6.03-5.91-10.92-12.67-14.95-20.07l.04.05c-.03-1.13-.12-2.24-1.12-3l.03.07c-.24-.84-.47-1.67-.71-2.51.19-.22.19-.44-.01-.65-.15-4.58-.33-9.17-.44-13.75-.09-3.78-1.35-5.44-5.05-2.93-.29.29-.58.58-.87.88l.08-.05c-1.99.08-2.08,1.96-2.96,3.11-5.27,2.56-5.95,7.74-7.2,12.6-.29.79-.57,1.58-.86,2.37-.21.24-.29.51-.21.83l.06-.02c-1.3,1.11-1.22,2.64-1.28,4.13l-.1.27.24.17c-3.01,8.4-2.1,17.15-1.21,25.61.54,5.11,2.35,10.73,7.47,13.96,0,0-.04-.04-.04-.04,1.07,1.33,2.14,2.66,3.2,3.99-2.38,2.55-5.8,2.96-8.77,4.29-15.91,7.17-27.62,19.04-37.45,33.13-8.43,12.08-15.15,24.92-18.45,39.39-3.86,12.19-5.89,24.42-4.61,37.45,1.17,11.9,4.03,23.16,8.64,33.95,5.86,13.73,15.83,24.09,28.69,31.64-.84.67-1.09,1.59-1.21,2.62-2.06,18.43-1.68,36.73,3.66,54.63,2.07,6.95,4.3,14.05,7.77,20.35,3.29,5.97,8.3,10.99,12.56,16.43.36.37.72.74,1.08,1.1l-.1-.09c.58.36,1.16.72,1.75,1.08l.27.21c.34,1.57,1.64,1.65,2.87,1.84l.08.06c-.32,2.46-2.25,1.77-3.75,1.93-2.7.28-5.5-.46-8.11.77-3.3.88-6.81-.32-10.05,1.04-20.55,1.25-38.97,8.35-54.6,21.58-9.12,7.72-17.02,16.84-24.6,26.14-17.35,21.28-34.1,43.01-49.83,65.53-2.04,2.92-3.85,5.91-7.92,7.1-49.56,14.5-92.9,40.25-132.06,73.47-22.48,19.07-40.81,41.65-55.86,66.92-6.64,11.16-12.25,22.86-16.63,35.11-2.93,8.21-5.67,16.48-8.5,24.73-2.78.77-4.23,2.7-4.76,5.44-.89,1.7-1.56,3.47-1.54,5.43-.19.89-.38,1.78-.58,2.68-.18.17-.21.36-.08.57-.11.86-.22,1.73-.32,2.59-1.53,6.98-1.82,13.94.46,20.84.97,2.96,3.64,4.33,5.77,6.2.38.26.76.53,1.14.79,0,0-.09-.09-.09-.09.62,1.49,2.18,1.91,3.25,2.89-.97.28-2.09.53-1.72,1.9,2.89,10.59,5.9,21.14,8.69,31.75,1.12,4.24,4.37,5.78,7.95,6.37,8.67,1.44,17.37,2.47,26.23,2.19,10.14-.31,20.31-.09,30.46-.04,1.77,0,3.71-.52,5.2,1.03,6.27,6.4,12.61,12.73,18.79,19.21,8.97,9.41,19.69,16.68,29.86,24.62-2.83-.05-5.66-.12-8.49-.13-46.45-.22-92.89.43-139.31,2.26-21.73.85-43.45,1.79-65.17,2.8-19.29.89-38.49,2.48-57.68,4.36-7.47.73-15.15,1.03-22.96,5.58,8.88.73,16.6,1.65,24.34,1.96,28.6,1.13,57.2,2.29,85.81,2.99,27.29.66,54.6.89,81.9,1.06,25.3.15,50.61-.03,75.92-.07,1.83.07,3.66.19,5.49.19,46.82.04,93.64.09,140.47.1,82.65.02,165.29.02,247.94.02,2.67,1.5,5.34,1.5,8.01.02,1.99,0,3.99-.01,5.98-.02,3.34,1.52,6.67,1.54,10.01,0,21.66,0,43.31.02,64.97.03,2.01,1.49,4.02,1.47,6.04.03,6.65-.08,13.3-.17,19.95-.25.35,0,.7,0,1.05,0,1.33.05,2.66.16,3.99.16,121.46-.04,242.92-.08,364.38-.16,6.82,0,13.65-.25,20.47-.38,6.81.94,13.6-.04,20.41-.14,23.19-.33,46.39-.37,69.58-1.26,11.89-.46,23.71-1.56,35.55-2.35,5.67-.38,11.94-.2,17.19-4.26-3.56-2.58-7.62-3.37-11.6-4.26-28.01-6.21-56.76-4.27-85.08-7.39-6.36-.7-13.22.13-19.83.09-18.08-.1-36.16-.52-54.24-.81.97-.62,1.92-1.26,2.9-1.86,8.75-5.38,17.18-11,23.92-19.09,6.08-7.3,10.78-15.44,16.21-23.12.68-.05,1.36-.11,2.04-.16,13.83.02,27.65.05,41.48.06,1.49,0,3.09.09,3.65-1.83.21-.24.54-.46.61-.73,3.91-16.57,7.92-33.16,8.87-50.2.54-9.71,1.37-19.55-.71-29.25.06-.61.12-1.21.18-1.82.11-1.4.36-2.82-.36-4.14-.1-.51-.2-1.02-.3-1.53-.04-3.24-.56-6.4-1.71-9.44-.11-.52-.21-1.04-.32-1.56-.03-2.28-.56-4.44-1.6-6.47-.24-.7-.48-1.41-.72-2.11-.71-3.89-1.41-7.78-3.76-11.12.04-.36-.09-.65-.39-.86.05-.74-.19-1.3-.92-1.57-.36-.83-.72-1.66-1.08-2.49-4.03-10.64-8.94-20.94-14.36-30.86-14.53-26.61-32.86-50.22-57.61-68.29-20.63-15.06-42.6-27.35-67.95-32.59-1.79-1.53-.79-3.76-1.38-5.63-4.96-15.57-10.71-30.86-17.94-45.5-11.14-22.56-24.17-43.89-41.54-62.43-10.84-11.56-22.65-21.51-37.25-27.81-10.81-4.66-22.24-6.64-33.96-7.04-2.28-.21-4.55-.41-6.83-.62-.04-.33-.08-.66-.12-1,.05-.53-.21-.76-.72-.73-.21-.13-.44-.21-.69-.25.14-.11.29-.22.43-.32-2.9-3.89-7.49-5.71-10.94-9.02-6.67-6.41-11.82-14.32-19.49-19.74-.48-1.41.05-2.57.87-3.67,2.11-.75,1.17-1.91.39-3.02-2.06-2.93-3.84-6.12-6.28-8.71-4.34-4.61-7.35-10.37-12.5-14.26-.11-.15-.13-.31-.08-.48-.07-1-.8-1.42-1.58-1.8,0,0-.26-.16-.26-.16-1.87-2.33-3.29-5.09-6.19-6.44-.23-.12-.45-.25-.66-.39,1.41-1.05,2.59-2.07.85-3.9-1.94-2.03-3.74-4.19-5.6-6.3-.5-.54-1-1.08-1.5-1.62-.36-.38-.71-.76-1.07-1.14-.3-.32-.59-.63-.89-.95-.66-.71-1.32-1.41-1.98-2.12-.33-.33-.65-.66-.98-.99h.01c-.34-.33-.68-.66-1.01-1l.02.02c-.35-.34-.7-.68-1.05-1.02l.06.05Z"/>
        <path class="cls-7" d="m1287.81,786.8c2.08,9.7,1.25,19.53.71,29.25-.96,17.04-4.97,33.63-8.87,50.2-.07.28-.4.49-.61.73-2,1.07-4.17.96-6.34.96-11.16,0-22.32-.02-33.47.03-1.79,0-3.69-.44-5.32.78-.68.05-1.36.11-2.04.16,9.69-20.17,11.29-41.33,6.66-62.88-5.83-27.15-20.32-48.76-44.81-62.33-22.18-12.29-45.53-14.3-68.04-1.02-30.29,17.86-44.27,46.05-47.79,80.18-1.3,7.05-1.4,14.1.01,21.15.88,8.25,2.55,16.31,6.02,23.92,0,.28-.03.56-.06.85-1.99.05-3.98.14-5.97.15-18.93.07-37.86.12-56.79.18-18.09,0-36.18-.01-54.27-.02-57.59-.02-115.19-.05-172.78-.07-25.25-.04-50.5-.06-75.76-.14-2.42,0-5.01.72-7.2-1.04,4.66-9.3,8.38-18.99,8.8-29.43.46-11.35.07-22.64-2.66-33.91-6.43-26.51-20.82-46.97-43.92-61.48-10.56-6.63-22.22-9.52-34.33-11.25-3.98-1.29-7.96-1.25-11.95-.04-8.88.99-17.81,1.86-25.99,5.82-37.93,18.37-53.65,50.84-56.91,90.83-1.15,14.05,3.31,27.37,7.82,40.51-14.57.07-29.15.13-43.72.2-12.73-.06-25.46-.09-38.19-.22-1.71-.02-3.66.83-5.09-.91,10.95-11.47,18.78-24.91,24.95-39.41.37-.9.75-1.8,1.12-2.7,2.07-4.28,3.62-8.72,4.1-13.48.06-.43.13-.85.19-1.28,4.47-8.41,5.63-17.41,4.39-26.72-.21-1.61-.96-3.68-3.45-3.53-.73-.33-1.47-.67-2.2-1-1.33-1.45-3.1-.97-4.66-.9-4.76.23-9.51.67-14.27,1.03-.02-.27-.06-.53-.13-.8.63-1.72,1.24-3.44,1.89-5.15,4.2-11.19,7.21-23.05,12.95-33.38,5.94-10.68,12.31-21.29,20.63-30.7,14.34-16.24,28.82-32.23,45.89-45.64,23.99-18.85,50.93-32.11,80.34-39.82,24.27-6.36,49.14-9.44,74.24-10.81,4.78-.26,10.39,1.21,14.47-3.13,4.81,1.34,9,.31,13.05-2.67,3.92-2.89,8.58-4.32,13.43-4.98,15.95-2.16,31.43-.97,46.1,6.26,1.21,1.26,2.78.87,4.23.87,39.87,0,79.74,0,119.61-.02,10.02,2.02,20.14.6,30.21.9,1.47.04,2.49-.77,3.07-2.11.28.06.55.16.79.31.75.28,1.5.8,2.25.8,17.62-.01,35.25-.08,52.87-.14,24.52.52,49.06-.6,73.58.54,1.16.05,4.38,1.19,4.55-2.19.94,2.21,2.5,2.87,4.99,3.01,12.82.74,25.81-1.91,38.5,1.79,1.47.43,2.95-.18,4.29-.94,25.35,5.24,47.32,17.52,67.95,32.59,24.75,18.07,43.08,41.68,57.61,68.29,5.42,9.92,10.33,20.22,14.36,30.86-4.33.69-8.45-1.04-12.8-.93-11.71.28-16.38,7.5-11.28,18.07,2.94,11.03,8.28,20.54,18.03,26.93,5.73,3.76,11.54,2.9,17.01-.96Zm-326.16-14.08c.41-10.27,1.09-20.55-.46-30.79-.11-7.93-.21-15.85-.32-23.78,1-21.37-1.15-42.67-.87-64.76-1.66,2.15-1.07,3.83-1.07,5.38-.04,15.28-.06,30.56.04,45.84.03,4.63-.54,9.3.51,13.9.17,1.65.48,3.3.48,4.95.05,18.46.04,36.92.05,55.39v23.39c.6-.03,1.2-.05,1.8-.08v-22.73c-.49-2.22-.5-4.46-.16-6.7Zm-26.6-94.64c2.53-.94,3.76-3.32,5.58-5.06,2.99-.64,5.32-2.09,5.22-5.47-.06-1.99-1.54-3.44-3.58-3.38-3.91.11-3.78,3.41-4.34,6.08-.59.27-1.19.53-1.78.8-11.06-.06-22.13-.12-33.19-.18-1.12-.12-.32-1.94-1.75-1.92-.82,3.94.16,7.06,3.73,9.14,1.57,1.33,3.47.87,5.26.9,5.8.1,11.64-.26,17.39.32,2.8.28,5.15.35,7.46-1.22Zm-167.94-33.08c5.62-.44,11.31.78,16.87-.79,6.1-.23,11.6-2.15,16.07-6.35.87-.82,4.28-2.81-.13-3.92-21.77,0-43.54-.02-65.32-.02-2.99,0-5.98-.06-8.97,0-2.1.05-3.35.76-1.84,3.05l2.3,6.16c1.76,3.36,1.21,7.55,3.81,10.61.22,1.13.29,2.32.68,3.39,13.41,37.21,24.75,75.23,44.06,110.11,3.73,6.74,8.68,11.58,15.5,14.72,10.61,4.88,23.16-3.55,20.94-14.91-1.05-5.38-1.54-10.86-2.64-16.22-3.6-17.6-9.85-34.39-16.3-51.08-6.24-16.13-14.3-31.44-22.2-46.81-.83-2.69-2.69-5.01-2.83-7.94Zm247.8,194.03c1.72-.37,3.47-.6,5.14-1.12,6.81-2.14,9.72-5.44,9.8-10.94,3.76-8.89-1.16-17.89-11.75-21.51-.39-.14-.77-.28-1.16-.42-.61-.12-1.21-.24-1.82-.36-.65-.76-1.43-.84-2.3-.43-70.55.03-141.11.05-211.66.08-1.11-.53-2.21-.53-3.31.01-1.9.03-3.8.05-5.7.08-1.46-.68-2.89-.81-4.23.3-11.91,3.25-14.43,6.12-15.1,17.21-.67.38-.8.96-.6,1.65,2.58,8.87,8.39,14.07,17.55,15.48,1.59,1.27,3.49.91,5.28.91,71.37-.01,142.74-.04,214.1-.1,1.93,0,4.01.6,5.76-.83Z"/>
        <path class="cls-5" d="m955.11,608.78c-.59,1.34-1.6,2.16-3.07,2.11-10.07-.3-20.19,1.12-30.21-.9.25-1.13.58-2.29-.71-3.06-.09-1.63-.18-3.25-.27-4.88-.95-9.29-1.9-18.58-2.84-27.86-1.04-10.32-2.03-20.64-3.14-30.96-1.18-11.05-2.62-22.07-3.64-33.13-.29-3.09-1.01-4.23-4.35-4.19-14.98.18-29.96-.15-44.94.11-21.08.36-42.19-1.17-63.26.92-18.75,1.87-33.13,11.32-44.22,25.82-8.98,11.75-14.13,25.53-18.53,39.61-3.61,11.52-8.01,22.79-10.15,34.74-.78.67-.71,1.46-.35,2.3l-.03,1.13c-4.08,4.33-9.69,2.87-14.47,3.13-25.1,1.37-49.97,4.45-74.24,10.81-29.41,7.7-56.35,20.97-80.34,39.82-17.07,13.41-31.56,29.4-45.89,45.64-8.32,9.42-14.69,20.02-20.63,30.7-5.74,10.34-8.75,22.19-12.95,33.38-.64,1.71-1.26,3.44-1.89,5.15-8.7-.04-17.18,2.32-25.92,2.31-2.16,0-5.45-.67-7.13,2.18-.96.16-1.91.32-2.87.48-6.9-2.05-13.59-1.31-20.13,1.53-10.06,2.63-20.49.03-30.59,2.15-5.38,1.13-10.81,1.36-16.27.85-1.06-1.12-2.44-.82-3.73-.82-17.53,0-35.06,0-52.59,0-1.3,0-2.68-.27-3.73.85-7.31,1.05-14.44-1.11-21.68-1.18-6.27-2.22-12.75-2.15-19.26-1.72-1.66.01-3.36.22-4.99,0-13.18-1.78-26.38-3.49-39.52-5.56-3.84-.61-8.06,1.05-11.54-1.8,2.83-8.24,5.57-16.52,8.5-24.73,4.38-12.25,9.99-23.95,16.63-35.11,15.04-25.27,33.37-47.85,55.86-66.92,39.16-33.21,82.51-58.97,132.06-73.47,4.07-1.19,5.88-4.17,7.92-7.1,15.72-22.52,32.48-44.25,49.83-65.53,7.58-9.31,15.49-18.42,24.6-26.14,15.64-13.24,34.05-20.33,54.6-21.58,5.98,0,12,.77,17.93-.63,1.03.03,2.05.06,3.08.1.51.7,1.24.68,1.98.62-.63,4.77-3.52,9.07-2.88,14.09-1.27,1.67-3.07.81-4.62.89-6.11.33-12.22.37-18.35.85-22.1,1.73-40.83,10.27-57.1,25.17-23.74,21.74-42.62,47.48-61.32,73.39-1.2,1.66-2.91,3.09-3.3,5.53,20.99.4,41.62,2.06,62.28,2.99,16.01.72,32.03,1.37,48.04,1.97,15.59.59,30.87,3.16,46.28,4.97,1.58.39,3.15.87,4.75,1.17,16.19,3,31.81,8,47.1,13.95,5.06,1.97,10.3,2.9,15.4,4.51,4.49,1.42,7.13-.04,9.22-4.14,3.88-7.63,7.54-15.45,10.93-23.22,5.3-12.13,10.89-24.1,16.84-35.88,11.3-22.36,22.05-45.14,39.94-63.38.94-.91,1.89-1.83,2.83-2.74,7.76-4.69,15.37-9.53,24.18-12.32,4.92-1.56,10.11-.7,14.85-2.68,4.88-.03,9.76-.07,14.65-.1,4.8-.03,9.49,2.07,14.35.72,2.94-.01,5.88-.03,8.82-.04,2.72.01,5.43.03,8.15.04l.44.19.45-.17c3.7,0,7.4-.02,11.1-.02l.46.16.45-.19c2.35,0,4.7-.02,7.05-.02.32,0,.64,0,.96,0,2.35-.03,4.7-.06,7.05-.09.32.05.65.11.97.16,2.35.4,4.69.52,7.03-.12,2.3-.02,4.6-.03,6.9-.05.39,0,.77-.01,1.16-.02,9.96-.15,19.93-.3,29.89-.45,2.82.06,5.64.17,8.46.18,22.96.06,45.91.11,68.87.16,2.11.88,4.23.87,6.34,0,.88,0,1.77-.01,2.65-.02,5.18,1.09,10.37.54,15.57.18,11.73.4,23.16,2.38,33.97,7.04,14.61,6.3,26.41,16.24,37.25,27.81,17.37,18.54,30.41,39.87,41.54,62.43,7.22,14.63,12.98,29.93,17.94,45.5.6,1.87-.41,4.1,1.38,5.63-1.34.75-2.82,1.36-4.29.93-12.69-3.7-25.67-1.06-38.5-1.79-2.49-.14-4.04-.8-4.99-3.01-3.01-9.93-5.2-20.08-7.97-30.08-11.43-41.26-42.19-72.72-92.75-72.07-10.82.14-21.65.04-32.48.05-5.5,0-10.99,0-16.49.09-.92.02-2.58-.58-2.26,1.52,1.14,7.51,2.21,15.03,3.43,22.53,1.06,6.52,2.31,13.02,3.44,19.53,1.87,10.78,3.61,21.59,5.6,32.35,1.66,8.95,3.61,17.85,5.43,26.77Z"/>
        <path class="cls-12" d="m508.23,869.08c14.57-.07,29.15-.13,43.72-.2,1.57.77,2.54,2.04,3.34,3.57,5.21,9.94,11.86,18.79,20.15,26.4,14.5,13.33,31.46,20.72,51.24,21.01,13.73.2,27.06-2.01,39.75-7.54,1.8-.78,3.69-1.57,5.77-1.33,1.44,1.74,3.41.95,5.14.95,54.25.05,108.51.06,162.76.04,1.18,0,2.63.77,3.76-.96-17.5-11.95-32.89-26.41-48.96-40.05,1.46-1.63,3.41-1.04,5.17-1.05,53.25-.05,106.49-.06,159.74-.05,1.75,0,3.71-.6,5.17,1.02-4.43,4.24-8.82,8.51-13.28,12.72-10.61,10.01-21.05,20.2-33.36,28.19-1.42.08-2.83.16-4.25.24,1.47.92,2.96,1.15,4.5.63,3.14-.2,6.29-.56,9.43-.57,41.74-.08,83.48-.1,125.22-.18,1.37,0,2.92.67,4.33-.66-4.52-4.94-9.11-9.69-13.41-14.69-7.56-8.8-15.47-17.3-22.37-26.65,18.82,0,37.64,0,56.46-.07,1.89,0,4.05.81,5.61-1.1.03-.28.05-.56.06-.85,3.27,1.44,4.24,4.65,5.76,7.44,10.11,18.63,25.25,31.64,45.04,38.83,14.06,5.11,28.65,5.06,43.21,1.75.1,1.58-.26,3.03-1.6,3.98-4.45,3.17-1.21,4.2,1.51,4.7,10.22,1.9,20.55,3.29,30.71,5.48,2.75.59,6.95-1.28,8.3,3.24-6.82.13-13.65.38-20.47.38-121.46.07-242.92.11-364.38.16-1.33,0-2.66-.1-3.99-.16-.17-.36-.35-.71-.52-1.07-.18.36-.35.71-.53,1.07-6.65.08-13.3.17-19.95.25-2.01-1.58-4.02-1.57-6.04-.03-21.66,0-43.31-.02-64.97-.03-3.34-1.59-6.67-1.59-10.01,0-1.99,0-3.99.01-5.98.02-2.67-1.57-5.34-1.56-8.01-.02-82.65,0-165.29,0-247.94-.02-46.82-.01-93.64-.06-140.47-.1-1.83,0-3.66-.13-5.49-.19-.24-2.83,2.11-3.82,3.92-4.56,5.67-2.31,12.23-2.72,15.54-9.3,1.22-2.42,4.91-1.68,7.13-3.17.92-.62,2.37-.93,1.98-2.46-.38-1.5-1.85-1.08-2.93-1.31-10.18-7.93-20.89-15.21-29.86-24.62-6.18-6.48-12.52-12.82-18.79-19.21,1.05-.21,2.1-.43,3.15-.64.88.02,1.76.04,2.64.07,3.75.52,7.51.47,11.27.18,9.31.11,18.61.33,27.92.31,24.28-.05,48.55-.2,72.83-.31,1.75,0,3.49-.02,5.24-.02,1.26,0,2.51-.01,3.77-.02,3.99.07,7.97.14,11.96.21,2.11,0,4.23-.02,6.34-.03.54,0,1.08,0,1.62,0,.47,0,.93,0,1.4,0,6.79-.18,13.57-.36,20.36-.55.39,1.16-.37,1.87-1.04,2.6-12.24,13.41-24.48,26.81-38.14,38.83-.75.66-2.32.84-1.93,2.13h129.35c-15.22-12-27.59-25.04-40.16-37.88-1.38-1.41-3.1-2.59-3.45-4.76Zm-87.8,43.23c-.13-.04-.27-.13-.39-.11-.49.07-.51.24-.05.42.11.04.28,0,.4-.06.04-.02.03-.16.04-.25Z"/>
        <path class="cls-1" d="m832.16,194.35c10.63,14.24,18.73,29.78,25.03,46.42,3.36,8.88,6.36,17.86,9.08,26.9,2.58,8.58,4.43,17.46,5.65,26.34,1.47,10.74,3.48,21.48,2.98,32.42-.15,3.14-.4,6.27-.6,9.41-7.69-3.96-16.24-5.12-24.52-6.59-13.45-2.37-27.08-1.98-40.51.88-6.42,1.37-12.93,2.75-17.3,8.43-.33.48-.67.96-1,1.44l-.11-.04c-.53.33-1.07.66-1.6,1-.21.06-.3.2-.27.4-.44.52-.88,1.05-1.31,1.57-.38.66-1.83.92-.78,2.11,0,0,.08-.11.08-.11-3.43.82-4.4,3.96-5.87,6.48-6.68,11.47-4.01,23.63-2.4,35.69-.15,7.59,3.02,14.46,5.12,21.48,5.22,17.42,12.01,34.21,22.2,49.44-10.63-.31-20.43-4.21-30.38-7.3-8.58-2.67-16.51-6.98-24.74-10.55-15.71-6.81-29.29-16.48-40.92-28.97-2.4-2.57-2.41-5.42-.28-8.13,10.45-13.29,21.55-26,34.79-36.61,5.88-4.71,12.37-8.67,18.1-13.54,13.07-11.11,20.37-26.1,26.48-41.66,4.55-11.6,8.59-23.42,7.96-36.21,0,0-.02.02-.02.02,2-2.14.72-4.74.98-7.12v-13.61c.44,6.8-3.83,11.47-7.24,16.48-3.04,4.47-6.35,5.46-11.41,3.36-1.07-.44-2.12-.95-3.13-1.52-3.32-1.9-5.85-1.5-7.25,2.39.09-14.39.69-28.74-4.84-42.61-6.72-16.85-16.77-30.58-32.74-39.75-7.2-4.14-15.26-5.19-22.96-7.51-.78-2.43-2.43-3.51-4.95-3-6.75,1.35-13.65,1.48-20.3,3.87-8.19,2.94-15.36,7.52-22.05,12.69-6.58,5.08-12.31,11.28-18.31,17.09-2.47,2.39-4.61,5.01-6.56,7.97-2.67,4.05-2.39,9.13-5.88,12.87-4.05,4.34-5,10.13-5.47,15.99-.25,3.09.34,6.86-3.59,8.53,1.09-8.7,1.18-17.38-.41-26.04,5.78-.39,5.89-.56,3.83-5.73-.92-2.31-2.2-4.58-2.58-6.99-1.59-9.85-8.19-16.41-15.49-21.73-15.16-11.05-31.03-7.76-45.27,1.77-1.85,1.24-2.6,2.95-2.24,5.15.38,2.29,1.71,3.51,4.03,3.63-.2.26-.35.6-.61.78-14.58,9.8-25.03,23.13-32.96,38.6-.92,1.8-2.57,1.81-4.11,2.23,3.31-14.46,10.02-27.3,18.45-39.38,9.83-14.09,21.54-25.96,37.45-33.13,2.97-1.34,6.4-1.74,8.77-4.29.96.43,1.9,1.37,2.91.09,15.08-4.33,30.04-9.16,45.6-11.61,1.59.6,2.63-.26,3.59-1.35,1.71.09,3.41.17,5.11.26,0,0,.2-.03.2-.03,24.54-3.88,49.24-5.91,74.08-5.2,18.19.52,36.37,1.61,54.55,2.44,2.06.14,4.12.39,6.18.38,2.52-.02,1.95,1.37,1.46,2.81l-3.77.5c-.38.2-.76.39-1.13.59-15.71,3.27-31.43,6.53-47.13,9.85-1.33.28-3.46-.21-3.61,1.8-.13,1.78,1.89,2.16,3.15,2.73,11.02,4.99,22.93,7.43,34.18,11.77,7.24,6.83,16.53,4.97,25.16,5.95,3.54,1.04,7.09,1.27,10.66.16,4.4.08,8.8.16,13.19.23,4.8,2.31,9.39,1.79,13.82-.99,1.26-.7,2.52-1.41,3.78-2.11Z"/>
        <path class="cls-8" d="m797.03,275.04c.63,12.79-3.41,24.61-7.96,36.21-6.1,15.56-13.4,30.55-26.48,41.66-5.73,4.87-12.22,8.83-18.1,13.54-13.24,10.62-24.34,23.32-34.79,36.61-2.13,2.71-2.11,5.56.28,8.13,11.63,12.49,25.21,22.16,40.92,28.97,8.23,3.57,16.16,7.88,24.74,10.55,9.95,3.1,19.74,7,30.38,7.3,0,0-.06-.06-.06-.06.14,2.01-2.16,1.87-2.8,3.19-1.34,2.03-4.06-.08-5.44,1.82-4.88.03-9.76.07-14.64.1-.74-1.63-2.24-1.12-3.48-1.15-6.26-.15-12.5-.28-18.78-.81-14.44-1.23-28.89-2.26-43.18-4.8-16.7-2.97-33.67-1.7-50.46-3.27-2.97-2.05-6.3-.67-9.45-1.01-13.26,1.47-26.5,2.24-39.6-1.25-2.99-1.8-6.19-.93-9.33-.7-6.35,1.68-13.26,1.34-18.97,5.3-.77-.87-1.81-1.12-2.9-1.26,0,0-.08-.06-.08-.06-.74-.94-1.68-1.59-2.87-1.84,0,0-.27-.21-.26-.21-.58-.36-1.16-.72-1.75-1.08,0,0,.1.09.1.09-.36-.37-.72-.74-1.08-1.1-4.26-5.44-9.27-10.46-12.56-16.43-3.47-6.3-5.7-13.39-7.77-20.35-5.34-17.89-5.72-36.19-3.66-54.63.12-1.03.37-1.94,1.21-2.62,1.46.21,2.93.36,4.38.63,11.03,2.01,20.1-1.45,25.55-9.78,2.16,1.99,2.87,4.81,4.17,7.29,1.5,2.87,1.59,6.52,4.74,8.47,4.32,6,6.59,6.43,11.8,1.74,5.31-4.79,10.23-9.96,13.86-16.22,5.1-6,8.41-13.21,13.15-19.45,1.14,1.62,2.3,3.23,3.4,4.86,10.82,16,25.24,26.48,44.73,29.17,4,.63,7.99.67,11.97-.13,16.06-1.4,29.36-8.48,40.61-19.76,8.41-8.43,14.67-18.41,20.46-28.71,3.88-.22,7.16,2.4,11.56,1.16,7.51-2.11,11.44-7.9,15.26-13.43,5.65-8.16,8.79-17.78,13.16-26.7Z"/>
        <path class="cls-11" d="m1177.93,915.95c-14.56,3.31-29.15,3.36-43.21-1.75-19.79-7.2-34.93-20.21-45.04-38.83-1.52-2.79-2.49-6-5.76-7.44-3.47-7.6-5.14-15.66-6.02-23.92,0-7.05,0-14.1-.01-21.15,3.52-34.13,17.5-62.31,47.79-80.18,22.51-13.28,45.87-11.26,68.04,1.02,24.49,13.57,38.98,35.17,44.81,62.33,4.62,21.55,3.02,42.71-6.66,62.88-5.44,7.68-10.14,15.83-16.21,23.12-6.74,8.09-15.17,13.71-23.92,19.09-.98.6-1.93,1.24-2.9,1.86-1.73-.18-3.38.03-4.9.94-1.33.34-2.66.67-3.99,1.01-.67.33-1.35.67-2.02,1Z"/>
        <path class="cls-2" d="m789.26,340.95c.53-.33,1.07-.66,1.6-.99,2.58,3.73,6.09,4.2,9.98,2.58,4.47-1.85,9.12-3.17,13.86-3.84,6.17-.87,12.49-3.14,18.61-.93,2.85,1.03,5.39,1.51,8.11.85,1.77-.43,3.26-.35,4.77.51,9.02,5.16,19.95,3.8,29.2,8.55,2.22,1.14,5.32,1.87,8.05,2.09,11.05.91,18.84,7.78,27.19,13.91,4.07,2.99,8.2,6.27,13.42,7.31,0,0-.06-.04-.06-.04.36.34.72.69,1.08,1.03,0,0-.06-.06-.06-.05.36.35.72.7,1.07,1.04,0,0-.06-.06-.06-.06.35.35.71.7,1.06,1.05,0,0-.06-.05-.06-.05.35.34.7.68,1.05,1.02,0,0-.02-.02-.02-.01.34.34.68.68,1.02,1.01,0,0-.01-.01-.01-.01.33.33.65.66.98.99.66.71,1.32,1.41,1.98,2.12.3.32.59.63.89.95.36.38.71.76,1.07,1.14.05.96.42,1.62,1.5,1.62,1.86,2.11,3.66,4.27,5.6,6.3,1.74,1.83.56,2.85-.86,3.9-4.09-.37-8.17-.73-12.25-1.1-2.84-1.57-5.96-.42-8.92-.9-7.49-2.79-14.75-6.09-21.73-10.02,5.98,6.03,13.11,9.58,21.64,10.13,2.55,1.33,5.35,1.57,8.14,1.88,4.91,1.46,9.63,3.65,14.85,3.99,1.71.95,3.42,1.89,5.13,2.84,0,0,.26.16.26.16.48.64.56,1.63,1.58,1.8-.05.17-.03.33.08.48.25.94.21,2.17.8,2.78,4.86,5.02,7.89,11.49,13.03,16.27,1.88,1.75,3.17,3.84,3.36,6.48-5.7-.26-11.41-.51-17.11-.77-1.83-.99-3.84-.89-5.82-1.04-14.07-1.06-27.95-3.22-41.44-7.5-8.44-2.67-17.03-4.93-25.1-8.48,22.68,11.83,46.81,18.07,72.52,18.06,5.91.63,11.71,1.69,17.28,3.86,7.66,5.42,12.81,13.32,19.48,19.74,3.44,3.31,8.03,5.13,10.94,9.02-5.23-.54-10.46-.94-15.68.07-13.73.55-27.45.97-41.06-1.66-9.16-1.77-18.36-3.37-27.53-5.05-.92-.34-1.81-.77-2.76-1-17.48-4.17-34.95-8.41-52.03-14.07-20.09-6.66-39.5-14.95-54.13-30.8-16.5-17.88-26.38-38.1-16.74-63.19,0,0-.08.11-.08.11.94-.46,1.27-1.13.78-2.11.44-.52.88-1.05,1.32-1.57,0,0,.35-.05.35-.05l-.08-.36Zm27.55,50.25c.33.33.66.67.98,1,3.85,6.72,9.81,10.8,16.93,13.47-6.07-3.95-10.36-10.01-16.52-13.84-.34-.34-.69-.69-1.03-1.03-.2-1.86-1.48-2.87-2.96-4.28-.36,2.7,1.33,3.56,2.6,4.68Zm79.62-11.59c-1.43-1.81-1.85-3.48-4.1-2.99.38,1.9,1.22,2.9,4.1,2.99Z"/>
        <path class="cls-3" d="m439.06,784.13c.96-.16,1.91-.32,2.87-.48,11.01-.29,21.91-1.85,32.85-2.93,6.47.78,12.8-1.45,19.26-.89.73.33,1.47.67,2.2,1,3.69,4.54,3.41,9.58,2.21,14.93-1.15,5.08-3.42,9.95-3.14,15.33-.06.43-.13.85-.19,1.28-2.34,3.89-2.37,8.86-5.74,12.26-.31.33-.62.66-.93.99-.73.13-1.46.25-2.18.38-8.93,1.32-17.83,3.18-26.81,3.82-13.99.99-27.79,3.44-41.79,4.33-13.95.89-27.84,2.7-41.85,2.7-3.64,0-7.29.25-10.93.38-6.49-.22-12.99-.36-19.46.39-4.9-.42-9.8-.47-14.71-.05-3.47-.76-6.98-.58-10.49-.33-17.66-.57-35.26-1.46-52.8-4.05-13.61-2.01-27.05-4.59-40.45-7.6-3.98-.89-7.66-3.22-11.95-2.72,0,0,.09.09.09.09-.07-.71-.61-.74-1.14-.79-2.14-1.87-4.81-3.25-5.77-6.2.21-1.1.74-2.26.55-3.29-.94-5.02-1.16-10.01,0-15.03.22-.94.03-1.97-1.02-2.53.11-.86.22-1.73.32-2.58,0,0,.33-.25.33-.25l-.26-.33c.19-.89.38-1.78.58-2.67,2.63-1.21,2.29-3.26,1.54-5.43.53-2.74,1.98-4.67,4.76-5.44,3.48,2.85,7.7,1.19,11.54,1.8,13.14,2.07,26.33,3.79,39.52,5.56,1.63.22,3.32,0,4.99,0,6.32,1.71,12.75,2.22,19.26,1.72,7.25.07,14.38,2.23,21.68,1.18.68.09,1.37.19,2.05.28,4.27,1.51,8.59,1.24,12.93.34,9.04,0,18.08,0,27.11.01,5.32.79,10.64,1.26,15.9-.38.69-.09,1.37-.19,2.06-.28,5.47.51,10.89.28,16.27-.85,10.1-2.12,20.53.47,30.59-2.15,6.75-.01,13.48-.17,20.13-1.53Z"/>
        <path class="cls-10" d="m441.84,868.71c-.54,0-1.08,0-1.62.01-2.12-.98-4.23-.97-6.34.03-3.99-.07-7.97-.14-11.96-.21-1.26-.83-2.52-.83-3.77.02-1.75,0-3.49.02-5.24.02-1.34-.92-2.88-.63-4.35-.63-30.69-.02-61.37-.02-92.06,0-1.47,0-3-.29-4.35.64-3.76.29-7.52.34-11.27-.18-.86-.61-1.74-.6-2.64-.07-1.05.21-2.1.43-3.15.64-1.49-1.55-3.43-1.02-5.2-1.03-10.15-.05-20.32-.27-30.46.04-8.86.27-17.56-.76-26.23-2.19-3.58-.59-6.84-2.13-7.95-6.37-2.79-10.61-5.8-21.17-8.69-31.75-.37-1.37.75-1.63,1.72-1.9,15.86,5.03,32.29,7.66,48.66,9.78,15.25,1.98,30.7,3.26,46.16,3.36,7.71,1.26,15.43,1.24,23.16.33,5.87.77,11.73-.14,17.6-.07,7.71.91,15.42,1.04,23.1-.28,8.97.82,17.85-.75,26.77-1.16,5.09-.24,10.24-.41,15.34-.9,12.79-1.2,25.59-2.28,38.32-3.97,10.83-1.44,21.82-1.71,32.49-4.31-6.17,14.5-14,27.94-24.95,39.41-.45.07-.9.14-1.35.21-6.79.18-13.57.36-20.36.55-.47-.46-.93-.46-1.4,0Z"/>
        <path class="cls-5" d="m588.15,346.75c-5.45,8.33-14.51,11.8-25.55,9.78-1.45-.26-2.92-.42-4.38-.63-12.87-7.56-22.83-17.91-28.69-31.64-4.61-10.8-7.47-22.05-8.64-33.95-1.28-13.03.75-25.25,4.61-37.45,1.54-.43,3.19-.44,4.11-2.24,7.93-15.47,18.38-28.8,32.96-38.6.26-.18.41-.52.61-.78.27-.08.54-.16.81-.23.39-.27.79-.54,1.18-.81,2.93-1.14,5.81-2.48,8.81-3.38,12.11-3.61,23.55-3.32,33.44,5.93,4.43,4.15,7.55,9.18,10.43,14.42.26,2.63,1.47,4.87,2.89,7.03.04.32.09.63.17.94,1.59,8.66,1.5,17.34.41,26.04-.73,2.41-.69,5.05-2.21,7.21-.34-.14-.68-.27-1.02-.4-2.53-2.71.23-5.78-.68-8.78-3.35-11.06-10.03-19.11-20.73-23.38-15.52-6.19-35.86.97-46.61,16.07-10.03,14.08-12.06,29.9-10.04,46.58,3.23,26.58,19.62,42.67,45.05,42.76,1.24,1.72,2.8,3.26,3.09,5.51Z"/>
        <path class="cls-9" d="m343.75,912.81c1.08.23,2.55-.18,2.93,1.31.39,1.53-1.06,1.84-1.98,2.46-2.22,1.49-5.91.75-7.13,3.17-3.31,6.58-9.88,6.99-15.54,9.3-1.81.74-4.16,1.73-3.92,4.56-25.31.04-50.61.22-75.92.07-27.3-.16-54.61-.39-81.9-1.06-28.61-.69-57.21-1.86-85.81-2.99-7.74-.31-15.46-1.23-24.34-1.96,7.82-4.55,15.5-4.85,22.96-5.58,19.19-1.88,38.39-3.47,57.68-4.36,21.72-1.01,43.44-1.95,65.17-2.8,46.42-1.82,92.86-2.48,139.31-2.26,2.83.01,5.66.09,8.49.13Z"/>
        <path class="cls-2" d="m765.55,191.11c-11.25-4.35-23.16-6.79-34.18-11.77-1.27-.57-3.29-.96-3.15-2.73.15-2.01,2.28-1.52,3.61-1.8,15.7-3.32,31.42-6.57,47.13-9.84.38-.2.76-.39,1.13-.59,1.26-.17,2.51-.33,3.77-.5,3.75-.82,7.2-2.23,10.01-4.96,16.78-7.26,30.99-17.94,42.74-31.93,2.87-.65,3.73-3.37,5.45-5.22.81-.87,1.81-3.59,3.3-.42-.23,5.04-2.55,9.62-3.28,14.55-1.18,2.35-2.36,4.69-3.73,7.41,2.16-1.71,3.99-3.12,5.17-5.18,3.32-2.36,4.84-6.14,7.24-9.22,4.78-3.07,4.06,1.04,4.59,3.52-2.05,5.86-3.74,11.8-7.35,17.06-6.95,10.14-15.21,18.99-24.77,26.67-5.68,3.26-11.37,6.51-17.05,9.77-.27.16-.55.31-.82.46-.32.73-.8.53-1.3.22-1.13-.07-2.4-.52-3.38-.16-11.37,4.21-23.34,3.74-35.13,4.68Z"/>
        <path class="cls-9" d="m1183.94,913.93c1.52-.91,3.17-1.13,4.9-.94,18.08.29,36.16.71,54.24.81,6.61.04,13.47-.79,19.83-.09,28.31,3.12,57.06,1.18,85.08,7.39,3.98.88,8.04,1.68,11.6,4.26-5.25,4.06-11.52,3.88-17.19,4.26-11.84.79-23.67,1.9-35.55,2.35-23.19.89-46.39.94-69.58,1.26-6.8.1-13.6,1.08-20.41.14-1.35-4.53-5.55-2.65-8.3-3.24-10.16-2.19-20.48-3.58-30.71-5.48-2.72-.51-5.95-1.53-1.51-4.7,1.33-.95,1.7-2.4,1.6-3.98.67-.33,1.35-.67,2.02-1,.19,1.29.89,2,2.24,1.84,1.76-.21,1.67-1.59,1.74-2.85Z"/>
        <path class="cls-2" d="m638.69,164.54c-15.56,2.45-30.51,7.29-45.6,11.61-1.35-2.39-3.33-3.83-6.11-4.09,0,0,.04.04.04.04-.18-.96-.04-2.17-.58-2.85-4.51-5.69-5.24-12.39-5.39-19.26-.13-5.82-.2-11.64-.29-17.46l-.24-.17s.1-.27.1-.27c1.89-.93,1.43-2.58,1.28-4.13,0,0-.06.02-.06.02.15-.04.31-.09.46-.13-.08-.23-.17-.46-.25-.69.29-.79.57-1.58.86-2.37,1.91-.79,3.63-.63,5.06,1.01.65.8.24,2.27,1.55,2.64,1.01-4.94,2.02-9.83,3.02-14.71,2.13.3,1.63-3.35,4.42-2.64,0,2.1-.11,4.24.03,6.36.17,2.67-.85,5.76,2.37,7.48.19.21.2.43,0,.65-.32.99-.31,1.9.71,2.51,0,0-.03-.07-.03-.07-.15,1.2-.33,2.4,1.12,3,0,0-.04-.05-.04-.05.05,1.14-.24,2.45.22,3.38,2.86,5.78,6.74,10.88,11.11,15.6.97,1.05,2.24,1.32,3.62,1.09,0,0-.06-.03-.05-.03.22.7.73.98,1.42,1.01.19-.03.34.04.46.18.39.28.78.57,1.17.85,0,0-.05-.04-.05-.04.34,1,1.11,1.17,2.03,1.06,0,0-.05-.03-.05-.03.4.29.79.58,1.19.88,0,0-.05-.08-.05-.08.25,1.06.99,1.3,1.94,1.16,0,0-.04-.02-.04-.02.38.98,1.15,1.16,2.08.99,0,0-.06-.04-.06-.04.33,1.04,1.11,1.2,2.05,1.05,0,0-.07-.03-.07-.03,1.23,1.8,2.98,2.32,5.04,2.06,0,0-.07-.03-.07-.03.69,1.26,1.79,1.18,2.96.91,0,0,.22.1.22.1.59,1.38,1.75,1.11,2.86,1,0,0,.02,0,.02,0-.13.85-.26,1.69-.39,2.54Z"/>
        <path class="cls-4" d="m924.04,370.99c-5.23-1.04-9.35-4.32-13.42-7.31-8.35-6.13-16.14-13-27.19-13.91-2.73-.22-5.82-.95-8.05-2.09-9.25-4.75-20.17-3.39-29.2-8.55-1.51-.86-3-.94-4.77-.51-2.72.66-5.26.18-8.11-.85-6.11-2.21-12.43.06-18.61.93-4.74.67-9.38,1.99-13.86,3.84-3.89,1.61-7.4,1.14-9.98-2.58,0,0,.11.04.11.04.33-.48.67-.96,1-1.44,4.36-5.68,10.88-7.06,17.3-8.43,13.43-2.86,27.06-3.25,40.51-.88,8.28,1.46,16.83,2.63,24.52,6.59,11.39,3.53,21.43,9.43,30.45,17.2,6.66,5.74,13.39,11.4,19.3,17.96Z"/>
        <path class="cls-3" d="m1252.77,760.83c-5.1-10.57-.44-17.79,11.28-18.07,4.35-.1,8.47,1.62,12.8.93.36.83.72,1.66,1.08,2.48.03.69.14,1.33.92,1.58.29.21.42.5.38.86-.17,4.19.43,8.11,3.76,11.12.24.7.48,1.41.71,2.11-.77,2.48-.48,4.7,1.6,6.47.1.52.21,1.04.31,1.56-.97,3.43-.69,6.63,1.71,9.45.1.51.2,1.02.29,1.52-.75,1.29-.65,2.68-.46,4.08-7.4,2.47-13.94,1.06-19.59-4.37-4-3.84-6.77-8.56-9.68-13.19-1.48-2.35-2.47-5.1-5.11-6.54Z"/>
        <path class="cls-12" d="m489.89,828.54c-10.68,2.59-21.66,2.86-32.49,4.31-12.72,1.69-25.53,2.77-38.32,3.97-5.1.48-10.24.66-15.34.9-8.91.42-17.8,1.98-26.77,1.16-7.7.09-15.4.19-23.1.28-5.87-.06-11.73.84-17.6.07-7.72-.11-15.44-.22-23.16-.33-15.46-.09-30.91-1.38-46.16-3.36-16.36-2.12-32.8-4.75-48.66-9.78-1.07-.98-2.63-1.41-3.25-2.89,4.29-.5,7.97,1.83,11.95,2.72,13.4,3.01,26.84,5.59,40.45,7.6,17.54,2.59,35.14,3.48,52.79,4.05,3.46,1.24,6.97.77,10.49.33,4.9-.42,9.81-.38,14.71.05,6.5.37,13,.93,19.46-.39,3.64-.13,7.29-.38,10.93-.38,14.01,0,27.9-1.81,41.85-2.7,14-.89,27.81-3.34,41.79-4.33,8.98-.64,17.87-2.51,26.8-3.82.72-.13,1.46-.25,2.19-.38.31-.33.62-.66.93-.99.54.41,1.09.81,1.63,1.21-.37.9-.75,1.8-1.12,2.7Z"/>
        <path class="cls-2" d="m858.25,183.28c-7.41,6.22-15.64,10.11-25.63,9.02-14.08,0-28.15,0-42.23,0,4.3-3.14,9.95-2.22,13.91-5.76.35-.06.7-.12,1.05-.18.28-.15.55-.3.83-.46,4.63-2.03,9.26-4.07,13.88-6.1,9.9,1.75,19.82,2.99,29.9,1.79,2.88-.34,6.22-2.29,8.29,1.68Z"/>
        <path class="cls-12" d="m912.63,453.99c9.18,1.68,18.38,3.28,27.54,5.05,13.61,2.63,27.33,2.21,41.06,1.66,5.07.72,10.17.29,15.25.26.25.03.48.12.69.25.24.24.48.49.73.73.04.33.08.66.12,1-2.92.15-5.83.29-8.75.44-.88,0-1.77.01-2.64.02-2.11-.47-4.23-.46-6.34,0-22.96-.05-45.91-.09-68.87-.16-2.82,0-5.64-.11-8.46-.18.79-3.39-1.98-2.07-3.06-1.97-7.13.69-13.74-3.36-20.91-2.19-1.1.18-1.77-.71-2.04-1.78,4.54-.42,9.09.3,13.61-1.79,2.81-1.29,6.94-1.87,9.64-.75,4.57,1.88,8.36.9,12.43-.59Z"/>
        <path class="cls-3" d="m804.31,186.54c-3.96,3.54-9.61,2.62-13.91,5.76,14.07,0,28.15,0,42.23,0-.15.68-.31,1.36-.46,2.04-1.26.7-2.51,1.41-3.77,2.11-4.61.33-9.21.66-13.82.99-4.4-.08-8.8-.16-13.2-.23-3.55-.05-7.11-.11-10.66-.16-8.62-.98-17.92.88-25.16-5.95,11.79-.94,23.76-.47,35.13-4.68.97-.36,2.24.09,3.37.15,0,0,.25-.04.25-.04Z"/>
        <path class="cls-9" d="m1252.77,760.83c2.65,1.44,3.64,4.19,5.11,6.54,2.91,4.63,5.69,9.35,9.68,13.19,5.65,5.43,12.19,6.83,19.59,4.37,0,0,.41.09.41.09,0,0,.42-.03.42-.03-.06.61-.12,1.21-.18,1.82-5.47,3.86-11.28,4.72-17.01.96-9.75-6.39-15.09-15.9-18.03-26.93Z"/>
        <path class="cls-4" d="m580.75,132.53c.1,5.82.17,11.64.29,17.46.15,6.87.87,13.57,5.39,19.26.54.68.4,1.89.58,2.85-5.13-3.23-6.93-8.84-7.47-13.96-.89-8.47-1.8-17.21,1.21-25.61Z"/>
        <path class="cls-4" d="m858.25,183.28c-2.06-3.97-5.4-2.02-8.29-1.68-10.09,1.2-20.01-.05-29.91-1.79.83-.35,1.66-.7,2.49-1.05,13.72,2.83,27.45,2.41,41.59.6-1.96,1.31-3.93,2.62-5.89,3.92Z"/>
        <path class="cls-4" d="m966.17,427.75c-.19-2.64-1.48-4.73-3.36-6.48-5.15-4.78-8.18-11.25-13.03-16.27-.59-.61-.55-1.84-.8-2.78,5.14,3.89,8.16,9.65,12.5,14.26,2.43,2.58,4.21,5.78,6.28,8.71.79,1.11,1.72,2.27-.39,3.02-.39-.15-.79-.3-1.18-.46Z"/>
        <path class="cls-11" d="m592.54,113.71c-1,4.89-2.01,9.77-3.02,14.71-1.31-.37-.9-1.84-1.55-2.63-.46-4.72,1.25-9.11,2.14-13.62.88-1.14.96-3.03,2.96-3.1-.18,1.55-.35,3.1-.53,4.65Z"/>
        <path class="cls-4" d="m616.08,151.03c-1.39.23-2.65-.05-3.62-1.09-4.37-4.72-8.25-9.82-11.11-15.6-.46-.93-.17-2.24-.22-3.38,4.03,7.4,8.92,14.16,14.95,20.07Z"/>
        <path class="cls-4" d="m592.54,113.71c.18-1.55.35-3.1.53-4.65,0,0-.08.05-.08.05.29-.29.58-.58.87-.88,3.71-2.51,4.96-.85,5.05,2.93.11,4.58.29,9.17.44,13.75-3.21-1.73-2.2-4.82-2.36-7.49-.13-2.12-.03-4.26-.03-6.36-2.78-.71-2.29,2.94-4.42,2.64Z"/>
        <path class="cls-11" d="m966.17,427.75c.39.15.79.3,1.18.46-.82,1.1-1.35,2.26-.86,3.67-5.56-2.16-11.37-3.23-17.28-3.86-.05-.35-.1-.69-.15-1.04,5.7.26,11.41.51,17.11.77Z"/>
        <path class="cls-6" d="m1233.91,868.75c1.63-1.23,3.53-.78,5.32-.78,11.16-.04,22.31-.03,33.47-.03,2.17,0,4.34.11,6.34-.96-.56,1.92-2.16,1.83-3.65,1.83-13.83,0-27.65-.03-41.48-.06Z"/>
        <path class="cls-11" d="m941.93,396.93c-5.22-.34-9.93-2.53-14.85-3.99.29-.37.58-.73.87-1.1,4.08.37,8.17.73,12.25,1.1.21.14.44.27.66.39-2.98,2.18,1.44,2.18,1.06,3.6Z"/>
        <path class="cls-4" d="m590.11,112.17c-.89,4.51-2.6,8.9-2.14,13.62-1.43-1.65-3.15-1.8-5.06-1.01,1.24-4.86,1.93-10.04,7.2-12.61Z"/>
        <path class="cls-4" d="m845.36,121.34c-1.49-3.17-2.5-.45-3.3.42-1.72,1.85-2.57,4.57-5.45,5.22,2.12-4.99,6.42-8.29,9.38-14,1.36,4,.08,6.15-.62,8.36Z"/>
        <path class="cls-11" d="m822.55,178.75c-.83.35-1.66.7-2.49,1.05-4.63,2.03-9.25,4.07-13.88,6.1,5.68-3.25,11.37-6.51,17.05-9.77-.22.87-.45,1.74-.68,2.61Z"/>
        <path class="cls-4" d="m855.35,132.41c-.53-2.48.18-6.58-4.59-3.52,1.32-3.26,3.09-6.11,6.86-7.95.16,4.38-.52,8.02-2.26,11.46Z"/>
        <path class="cls-4" d="m793.87,158.91c-2.81,2.72-6.26,4.14-10.01,4.96.49-1.44,1.06-2.83-1.46-2.81-2.06.01-4.12-.24-6.18-.38,5.92-.28,11.84-.49,17.65-1.77Z"/>
        <path class="cls-8" d="m207.75,795.13c1.05.56,1.24,1.59,1.02,2.53-1.16,5.02-.93,10,0,15.03.19,1.03-.35,2.19-.55,3.29-2.29-6.9-1.99-13.86-.47-20.84Z"/>
        <path class="cls-13" d="m586.95,454.11c1.09.14,2.13.39,2.9,1.26-.45.53-.9,1.05-1.35,1.58-.82.12-1.64.25-2.45.37-1.03-.03-2.05-.06-3.08-.1-2.63-.14-5.25-.27-7.88-.41,2.61-1.23,5.41-.49,8.11-.77,1.5-.16,3.43.53,3.75-1.93Z"/>
        <path class="cls-9" d="m725.99,933.92c3.34-1.59,6.67-1.59,10.01,0-3.34,1.53-6.67,1.52-10.01,0Z"/>
        <path class="cls-13" d="m941.93,396.93c.38-1.41-4.03-1.42-1.06-3.6,2.89,1.35,4.31,4.11,6.19,6.44-1.71-.95-3.42-1.89-5.13-2.84Z"/>
        <path class="cls-2" d="m1282.99,759.73c-3.33-3.01-3.93-6.93-3.76-11.12,2.35,3.34,3.05,7.23,3.76,11.12Z"/>
        <path class="cls-7" d="m575.09,456.81c2.63.14,5.25.27,7.88.41-5.94,1.4-11.95.62-17.93.63,3.25-1.36,6.76-.16,10.05-1.04Z"/>
        <path class="cls-11" d="m843.51,138.12c-1.18,2.06-3,3.47-5.17,5.18,1.37-2.71,2.55-5.06,3.73-7.41.48.74.96,1.48,1.44,2.23Z"/>
        <path class="cls-6" d="m989.27,463.36c2.92-.15,5.83-.29,8.75-.44,2.28.21,4.55.41,6.82.62-5.2.36-10.39.91-15.57-.18Z"/>
        <path class="cls-11" d="m996.48,460.95c-5.09.04-10.18.46-15.25-.26,5.22-1.01,10.45-.61,15.69-.07-.14.11-.29.22-.43.32Z"/>
        <path class="cls-9" d="m712,933.92c2.67-1.54,5.35-1.56,8.01.02-2.67,1.48-5.35,1.48-8.01-.02Z"/>
        <path class="cls-4" d="m586.98,172.06c2.78.26,4.76,1.7,6.11,4.09-1.01,1.28-1.95.33-2.91-.09-1.07-1.33-2.13-2.66-3.2-4Z"/>
        <path class="cls-8" d="m1287.33,779.31c-2.4-2.82-2.68-6.02-1.71-9.45,1.15,3.05,1.67,6.2,1.71,9.45Z"/>
        <path class="cls-9" d="m800.97,933.96c2.02-1.54,4.04-1.55,6.04.03-2.02,1.45-4.04,1.46-6.04-.03Z"/>
        <path class="cls-8" d="m210.27,783.86c.76,2.17,1.1,4.22-1.54,5.43-.02-1.97.65-3.73,1.54-5.43Z"/>
        <path class="cls-4" d="m638.69,164.54c.13-.85.26-1.69.39-2.54,1.22-.02,2.39.1,3.2,1.19-.95,1.09-2,1.95-3.59,1.35Z"/>
        <path class="cls-8" d="m1285.3,768.31c-2.08-1.77-2.37-3.99-1.6-6.47,1.04,2.03,1.57,4.19,1.6,6.47Z"/>
        <path class="cls-4" d="m633.08,160.01c-2.07.26-3.82-.26-5.04-2.06,1.88.21,3.98-.13,5.04,2.06Z"/>
        <path class="cls-13" d="m584,452.22c1.19.25,2.12.9,2.87,1.84-1.23-.19-2.52-.27-2.87-1.84Z"/>
        <path class="cls-4" d="m581.9,127.95c.15,1.56.62,3.21-1.28,4.13.05-1.49-.03-3.03,1.28-4.13Z"/>
        <path class="cls-8" d="m1287.99,784.98l-.42.03s-.41-.09-.41-.09c-.18-1.4-.29-2.79.47-4.08.73,1.33.48,2.75.37,4.15Z"/>
        <path class="cls-13" d="m948.9,401.73c-1.02-.17-1.09-1.16-1.58-1.8.78.38,1.51.8,1.58,1.8Z"/>
        <path class="cls-4" d="m601.16,131.01c-1.45-.6-1.27-1.81-1.12-3,1,.76,1.1,1.87,1.12,3Z"/>
        <path class="cls-4" d="m639.05,162c-1.11.11-2.28.38-2.86-1,1.07,0,2.1.11,2.86,1Z"/>
        <path class="cls-4" d="m635.97,160.89c-1.16.27-2.27.35-2.96-.91,1.09-.02,2.14.05,2.96.91Z"/>
        <path class="cls-4" d="m600.07,128.08c-1.02-.61-1.03-1.51-.71-2.51.24.83.48,1.67.71,2.51Z"/>
        <path class="cls-13" d="m581.99,450.93c.58.36,1.17.72,1.75,1.08-.58-.36-1.16-.72-1.75-1.08Z"/>
        <path class="cls-4" d="m628.11,157.98c-.94.15-1.72,0-2.05-1.05.85.03,1.58.28,2.05,1.05Z"/>
        <path class="cls-9" d="m826.96,933.73c.18-.36.35-.71.53-1.07.17.36.35.71.52,1.07-.35,0-.7,0-1.05,0Z"/>
        <path class="cls-2" d="m1278.85,747.75c-.78-.25-.89-.89-.92-1.58.73.28.98.84.92,1.58Z"/>
        <path class="cls-4" d="m621.05,154.07c-.92.11-1.69-.06-2.03-1.06.86,0,1.56.31,2.03,1.06Z"/>
        <path class="cls-4" d="m626.12,156.97c-.93.17-1.7-.01-2.08-.99.9-.09,1.62.17,2.08.99Z"/>
        <path class="cls-4" d="m624.08,156c-.96.14-1.7-.1-1.94-1.16.86.02,1.61.24,1.94,1.16Z"/>
        <path class="cls-4" d="m935.46,382.74c-1.08,0-1.45-.66-1.5-1.62.5.54,1,1.08,1.5,1.62Z"/>
        <path class="cls-4" d="m647.59,163.43s-.2.03-.2.03c0,0,.2-.03.2-.03Z"/>
        <path class="cls-4" d="m622.19,154.91c-.4-.29-.79-.58-1.19-.88.4.29.79.58,1.19.88Z"/>
        <path class="cls-4" d="m932.9,379.98c-.3-.32-.59-.63-.89-.95.3.32.59.63.89.95Z"/>
        <path class="cls-12" d="m213.99,822.17c.53.05,1.07.08,1.14.79-.38-.26-.76-.53-1.14-.79Z"/>
        <path class="cls-4" d="m926.08,372.97c-.36-.35-.72-.7-1.07-1.04.36.35.72.7,1.07,1.04Z"/>
        <path class="cls-4" d="m930.03,376.92c-.33-.33-.65-.66-.98-.99.33.33.65.66.98.99Z"/>
        <path class="cls-4" d="m619.07,153.05c-.39-.28-.78-.57-1.17-.85.39.28.78.57,1.17.85Z"/>
        <path class="cls-4" d="m617.44,152.01c-.69-.03-1.2-.32-1.42-1.01.47.34.95.68,1.42,1.01Z"/>
        <path class="cls-4" d="m925.07,371.98c-.36-.34-.72-.69-1.08-1.03.36.34.72.69,1.08,1.03Z"/>
        <path class="cls-4" d="m582.05,127.15c.08.23.17.46.25.69-.15.04-.31.09-.46.13-.07-.31,0-.59.21-.83Z"/>
        <path class="cls-8" d="m208.15,791.97l.26.33s-.33.25-.33.25c-.13-.22-.1-.41.08-.58Z"/>
        <path class="cls-4" d="m929.07,375.93c-.34-.34-.68-.67-1.02-1.01.34.34.68.67,1.02,1.01Z"/>
        <path class="cls-4" d="m928.07,374.94c-.35-.34-.7-.68-1.05-1.02.35.34.7.68,1.05,1.02Z"/>
        <path class="cls-11" d="m997.9,461.93c-.24-.24-.49-.49-.73-.73.52-.03.78.2.73.73Z"/>
        <path class="cls-13" d="m581.01,449.92c.36.37.72.74,1.08,1.1-.36-.37-.72-.74-1.08-1.1Z"/>
        <path class="cls-11" d="m593.86,108.24c-.29.29-.58.58-.87.88.29-.29.58-.58.87-.88Z"/>
        <path class="cls-4" d="m927.08,373.97c-.35-.35-.71-.7-1.06-1.05.35.35.71.7,1.06,1.05Z"/>
        <path class="cls-11" d="m672.2,910.99c-2.08-.24-3.97.54-5.77,1.33-12.69,5.53-26.02,7.75-39.75,7.54-19.78-.29-36.74-7.68-51.24-21.01-8.29-7.62-14.93-16.46-20.15-26.4-.8-1.52-1.78-2.8-3.34-3.57-4.51-13.14-8.97-26.46-7.82-40.51,3.26-39.99,18.98-72.46,56.91-90.83,8.18-3.96,17.11-4.83,25.99-5.82,3.98.01,7.97.03,11.95.04,12.1,1.73,23.77,4.62,34.33,11.25,23.1,14.5,37.49,34.96,43.92,61.48,2.73,11.27,3.12,22.56,2.66,33.91-.42,10.44-4.14,20.13-8.8,29.43-2.99,4.58-5.91,9.23-9,13.74-8.04,11.74-17.53,22.05-29.9,29.41Z"/>
        <path class="cls-13" d="m725.4,610.53c0-.38.02-.75.03-1.13.12-.77.24-1.53.36-2.3,2.14-11.95,6.55-23.22,10.15-34.74,4.4-14.08,9.55-27.86,18.53-39.61,11.08-14.5,25.47-23.95,44.22-25.82,21.07-2.1,42.17-.57,63.26-.92,14.98-.25,29.96.08,44.94-.11,3.34-.04,4.06,1.1,4.35,4.19,1.02,11.06,2.45,22.09,3.64,33.13,1.11,10.31,2.09,20.64,3.14,30.96.94,9.29,1.89,18.58,2.84,27.86-.26,5.85-3.98,6.05-8.7,6.02-36.09-.17-72.18-.1-108.26-.06-1.95,0-4.01-.56-5.82.71l-.07.43c-14.67-7.23-30.16-8.42-46.1-6.26-4.85.66-9.5,2.09-13.43,4.98-4.05,2.98-8.24,4.01-13.05,2.67Z"/>
        <path class="cls-13" d="m955.11,608.78c-1.82-8.92-3.77-17.82-5.43-26.77-1.99-10.76-3.73-21.56-5.6-32.35-1.13-6.51-2.38-13.01-3.44-19.53-1.22-7.5-2.29-15.02-3.43-22.53-.32-2.1,1.34-1.5,2.26-1.52,5.49-.09,10.99-.08,16.49-.09,10.83-.02,21.65.09,32.48-.05,50.56-.65,81.32,30.81,92.75,72.07,2.77,10,4.96,20.15,7.97,30.08-.17,3.38-3.38,2.25-4.54,2.2-24.52-1.14-49.06-.03-73.58-.54-1.72-.91-3.58-.55-5.38-.56-16.58-.05-33.17-.07-49.75-.09-.24-.15-.51-.26-.79-.31Z"/>
        <path class="cls-3" d="m772.8,821.94c.67-11.08,3.19-13.95,15.1-17.21,1.45.52,2.87.57,4.23-.3,1.9-.03,3.8-.05,5.7-.08,1.11.83,2.21.82,3.31-.01,70.55-.03,141.11-.05,211.67-.08.67.67,1.43.82,2.3.43.61.12,1.21.24,1.82.36.25.52.62.7,1.16.42,10.59,3.62,15.51,12.62,11.75,21.51-4.54,5.87-11.18,7.59-17.94,9.07-2.62,0-5.25,0-7.87,0-1.04,0-2.09,0-3.13,0-17.14-.06-34.28-.19-51.42-.17-22.8.03-45.6.17-68.4.26-1.07,0-2.13,0-3.2,0-7.27-.41-14.53-.45-21.8-.01-3.73,0-7.46,0-11.19-.01-.94,0-1.88,0-2.82,0-1.72,0-3.45,0-5.17,0-.94,0-1.89,0-2.83,0-11.39-.39-22.78-.47-34.17.01-2.63-.07-5.26-.13-7.88-.2-8.48-1.81-14.87-6.49-19.22-13.97Z"/>
        <path class="cls-10" d="m769.93,652.95c7.9,15.37,15.97,30.68,22.2,46.81,6.45,16.68,12.71,33.47,16.3,51.08,1.1,5.36,1.59,10.85,2.64,16.22,2.21,11.37-10.33,19.79-20.94,14.91-6.82-3.14-11.77-7.99-15.5-14.72-19.31-34.88-30.65-72.9-44.06-110.11-.39-1.07-.46-2.26-.68-3.39,11.21.62,22.45-.37,33.65.92,2.21.25,4.69.46,6.38-1.71Z"/>
        <path class="cls-14" d="m672.2,910.99c12.36-7.37,21.85-17.67,29.9-29.41,3.09-4.52,6.01-9.16,9-13.74,2.19,1.76,4.78,1.03,7.2,1.04,25.25.08,50.5.1,75.76.14-.12.83.01,1.55.85,1.96,16.07,13.64,31.46,28.1,48.96,40.05-1.13,1.73-2.58.96-3.76.96-54.25.03-108.51.01-162.76-.04-1.73,0-3.69.79-5.14-.95Z"/>
        <path class="cls-14" d="m1021.8,869.93c6.89,9.35,14.81,17.85,22.37,26.65,4.3,5,8.89,9.76,13.41,14.69-1.41,1.33-2.96.66-4.33.66-41.74.08-83.48.1-125.22.18-3.15,0-6.29.37-9.43.57.17-.36.08-.65-.25-.87,12.31-7.99,22.76-18.18,33.37-28.19,4.46-4.21,8.86-8.48,13.28-12.72.62-.61,1.23-1.22,1.85-1.83,18.09,0,36.18.01,54.27.02.23.28.47.55.7.83Z"/>
        <path class="cls-14" d="m463.59,868.16c.45-.07.9-.14,1.35-.21,1.43,1.74,3.39.9,5.09.91,12.73.13,25.46.16,38.19.22.35,2.16,2.07,3.35,3.45,4.76,12.57,12.84,24.94,25.88,40.16,37.88h-129.35c-.39-1.29,1.18-1.47,1.93-2.13,13.65-12.02,25.9-25.42,38.14-38.83.67-.73,1.43-1.44,1.04-2.6Z"/>
        <path class="cls-12" d="m844.9,836.11c3.73,0,7.46,0,11.19.01,7.26,1.31,14.53,1.3,21.8.01,1.07,0,2.13,0,3.2,0,1.45,1.19,3.18.77,4.8.77,36.75.02,73.5.02,110.25,0,1.62,0,3.36.43,4.76-.86,1.04,0,2.09,0,3.13,0,2.62,1.36,5.25,1.36,7.87,0,6.76-1.49,13.4-3.21,17.94-9.07-.09,5.5-2.99,8.8-9.8,10.94-1.67.52-3.42.75-5.14,1.12-75.05,0-150.1.02-225.15.03-9.16-1.41-14.97-6.61-17.55-15.48-.2-.69-.07-1.27.6-1.65,4.35,7.48,10.74,12.17,19.22,13.97,2.59,1.65,5.22,1.41,7.88.2,11.39-.49,22.78-.4,34.17-.01.94,1.01,1.89,1,2.83,0,1.72,0,3.45,0,5.17,0,.94,1,1.88,1,2.82,0Z"/>
        <path class="cls-10" d="m799.91,633.94c4.41,1.11,1,3.1.13,3.92-4.47,4.21-9.97,6.12-16.07,6.35-5.62-.03-11.25-.06-16.87-.09-.7-.86-1.68-1-2.69-1-12.77,0-25.55,0-38.32,0-.77-2.05-1.54-4.11-2.3-6.16.57-3.41,3.28-2.14,5.14-2.15,21.7-.16,43.41-.19,65.11-.3,1.96-.01,3.99.35,5.87-.58Z"/>
        <path class="cls-13" d="m726.09,643.13c12.77,0,25.55,0,38.32,0,1.01,0,1.99.14,2.69,1-.15.29-.16.58,0,.88.14,2.93,2,5.25,2.83,7.94-1.69,2.18-4.17,1.97-6.38,1.71-11.2-1.29-22.44-.3-33.65-.92-2.6-3.06-2.05-7.26-3.81-10.62Z"/>
        <path class="cls-13" d="m940.62,673.03c-1.81,1.74-3.04,4.12-5.58,5.06-10.04,0-20.08,0-30.11,0-3.58-2.08-4.55-5.2-3.73-9.14,1.43-.02.63,1.8,1.75,1.92,11.05,2.01,22.12,1.29,33.19.18.59-.27,1.19-.53,1.78-.8.9.93,1.8,1.85,2.7,2.78Z"/>
        <path class="cls-10" d="m789.75,839.06c75.05,0,150.1-.02,225.15-.03-1.75,1.43-3.84.83-5.77.83-71.37.07-142.74.09-214.1.1-1.79,0-3.69.36-5.28-.91Z"/>
        <path class="cls-13" d="m966.83,869.08c-.62.61-1.23,1.22-1.85,1.83-1.46-1.63-3.42-1.02-5.17-1.03-53.25-.02-106.49,0-159.74.05-1.76,0-3.71-.58-5.17,1.05-.84-.41-.97-1.13-.85-1.96,57.59.02,115.19.05,172.78.07Z"/>
        <path class="cls-14" d="m921.11,606.93c1.29.77.96,1.93.71,3.06-39.87.01-79.74.02-119.61.02-1.45,0-3.02.39-4.23-.87,0,0,.07-.43.07-.43,2.65.11,5.29.32,7.94.32,36.53.06,73.06.11,109.59.05,1.9,0,4.93,1.66,5.53-2.16Z"/>
        <path class="cls-6" d="m959.47,718.5c-1.05-4.6-.48-9.26-.51-13.9-.09-15.28-.07-30.56-.04-45.84,0-1.55-.59-3.23,1.07-5.38-.28,22.08,1.87,43.39.87,64.76-.46.12-.93.24-1.39.36Z"/>
        <path class="cls-6" d="m799.91,633.94c-1.88.93-3.91.57-5.87.58-21.7.11-43.41.15-65.11.3-1.86.01-4.58-1.26-5.14,2.15-1.51-2.29-.26-3,1.84-3.05,2.99-.06,5.98,0,8.97,0,21.77,0,43.54.02,65.32.02Z"/>
        <path class="cls-1" d="m474.78,780.71c-10.94,1.08-21.84,2.65-32.85,2.93,1.69-2.85,4.97-2.18,7.13-2.18,8.74.01,17.22-2.35,25.92-2.31.06.27.1.53.12.8-.12.25-.23.5-.33.76Z"/>
        <path class="cls-10" d="m959.47,718.5c.46-.12.93-.24,1.39-.36.1,7.93.21,15.85.31,23.78-.13,10.27-.73,20.54.46,30.79-.34,2.24-.33,4.48.16,6.7-.6-.2-1.2-.39-1.79-.58-.01-18.46,0-36.92-.05-55.39,0-1.65-.31-3.3-.48-4.95Z"/>
        <path class="cls-13" d="m1021.8,869.93c-.23-.28-.47-.55-.7-.83,18.93-.06,37.86-.11,56.79-.18,1.99,0,3.98-.1,5.97-.15-1.56,1.91-3.72,1.09-5.61,1.1-18.82.07-37.64.06-56.46.07Z"/>
        <path class="cls-5" d="m940.62,673.03c-.9-.93-1.8-1.86-2.7-2.78.56-2.67.43-5.96,4.34-6.08,2.04-.06,3.52,1.39,3.58,3.38.1,3.38-2.23,4.84-5.22,5.47Z"/>
        <path class="cls-14" d="m955.9,609.09c16.58.03,33.17.04,49.75.09,1.8,0,3.66-.35,5.38.56-17.62.06-35.25.13-52.87.14-.75,0-1.5-.52-2.25-.8Z"/>
        <path class="cls-8" d="m495.31,811.08c-.28-5.38,1.99-10.24,3.14-15.33,1.21-5.34,1.48-10.39-2.21-14.93,2.49-.14,3.24,1.92,3.45,3.53,1.24,9.32.08,18.31-4.39,26.72Z"/>
        <path class="cls-6" d="m960.01,778.84c.6.19,1.19.38,1.79.58,0,7.58,0,15.16,0,22.73-.6.03-1.2.05-1.8.08v-23.39Z"/>
        <path class="cls-6" d="m904.93,678.08c10.04,0,20.08,0,30.11,0-2.31,1.56-4.67,1.5-7.46,1.22-5.75-.58-11.59-.23-17.39-.32-1.78-.03-3.68.44-5.26-.9Z"/>
        <path class="cls-6" d="m936.13,671.04c-11.07,1.11-22.14,1.83-33.19-.18,11.06.06,22.13.12,33.19.18Z"/>
        <path class="cls-6" d="m961.64,772.72c-1.19-10.25-.59-20.52-.46-30.79,1.55,10.24.88,20.52.46,30.79Z"/>
        <path class="cls-13" d="m491.02,825.84c-.55-.4-1.09-.81-1.63-1.21,3.37-3.41,3.4-8.38,5.74-12.27-.48,4.76-2.03,9.2-4.1,13.48Z"/>
        <path class="cls-2" d="m474.78,780.71c.1-.26.21-.51.33-.76,4.76-.36,9.51-.8,14.27-1.03,1.56-.08,3.34-.55,4.66.9-6.46-.56-12.79,1.68-19.26.89Z"/>
        <path class="cls-14" d="m1077.89,822.86c0,7.05,0,14.1.01,21.15-1.42-7.05-1.31-14.1-.01-21.15Z"/>
        <path class="cls-6" d="m767.1,645c-.15-.29-.15-.59,0-.88,5.62.03,11.25.06,16.87.09-5.56,1.57-11.26.35-16.87.79Z"/>
        <path class="cls-6" d="m638.99,731.77c-3.98-.01-7.97-.03-11.95-.04,3.99-1.21,7.97-1.25,11.95.04Z"/>
        <path class="cls-4" d="m792.13,804.43c-1.36.86-2.78.82-4.23.3,1.34-1.11,2.77-.98,4.23-.3Z"/>
        <path class="cls-4" d="m801.15,804.34c-1.1.83-2.21.84-3.31.01,1.1-.54,2.21-.54,3.31-.01Z"/>
        <path class="cls-4" d="m1015.11,804.69c-.87.39-1.63.25-2.3-.43.87-.41,1.64-.33,2.3.43Z"/>
        <path class="cls-4" d="m1018.09,805.46c-.54.28-.91.1-1.16-.42.39.14.77.28,1.16.42Z"/>
        <path class="cls-13" d="m741.22,480.81c-17.89,18.24-28.64,41.01-39.94,63.38-5.95,11.78-11.55,23.75-16.84,35.88-3.39,7.77-7.05,15.58-10.93,23.22-2.08,4.1-4.73,5.56-9.22,4.14-5.09-1.61-10.34-2.54-15.4-4.51-15.29-5.95-30.91-10.95-47.1-13.95-1.6-.3-3.16-.78-4.75-1.17-.68-3.05.17-5.91,1.12-8.76,9.87-29.31,9.25-58.23-3.03-86.8-2.47-5.74-5.34-11.39-6.24-17.71,4.47-5.22,7.91-1.05,11.55,1.28,1.19.78,2.38,1.56,3.57,2.34.65.28,1.3.55,1.95.83l.04.02c.78,2.85,3,1.97,4.8,1.69,1.75-.27,2.18-1.79,2.22-3.34.06-2.44.04-4.89.06-7.33,1.16-.15,1.79-.81,1.94-1.96,8.16-.35,16.33.98,24.48-.02,4.14-.51,7.36.35,8.43,4.97.04.59.09,1.17.13,1.76.29.92.98,1.22,1.87,1.21l.06.07c-.21,2.21.84,3.12,2.99,2.91l.03.02c1.9,3.77,5.29,1.91,7.86,1.64,2.29-.24,4.25-2.45,3.98-5.03-.6-5.92,2.46-7.12,7.45-6.61,2.3.24,4.67.23,6.96-.02,3.99-.44,6.73.7,7.53,4.95,1.71,4.45,5.35,7.35,8.72,10.35,1.48,1.31,3.23,3.84,5.96,1.7,4.06-.63,2.32-3.87,2.39-5.96.1-2.98,1.04-4.37,4.1-3.99,7.63.95,15.37-.42,22.98.99,2.34,1.84,5.07.83,7.61.91,2.17.07,3.04.75,2.63,2.89Z"/>
        <path class="cls-14" d="m588.92,474.54c.9,6.32,3.77,11.97,6.24,17.71,12.27,28.57,12.9,57.49,3.03,86.8-.96,2.84-1.8,5.7-1.12,8.76-15.41-1.8-30.69-4.38-46.28-4.97-16.01-.6-32.03-1.26-48.04-1.97-20.66-.93-41.28-2.59-62.28-2.99.39-2.44,2.11-3.88,3.3-5.53,18.7-25.91,37.58-51.64,61.32-73.39,16.27-14.9,35.01-23.44,57.1-25.17,6.13-.48,12.24-.52,18.35-.85,1.55-.08,3.35.78,4.62-.9,1.26.83,2.51,1.67,3.77,2.5Z"/>
        <path class="cls-11" d="m686.83,473.93c-.8-4.25-3.55-5.39-7.53-4.95-2.3.25-4.66.26-6.96.02-4.99-.52-8.06.68-7.45,6.61.26,2.58-1.69,4.79-3.98,5.03-2.57.27-5.96,2.13-7.86-1.64,6.45,1.86,9.7-.49,9.65-7.13-.02-2.38.06-4.82,1.54-6.6,2.1-2.54,3.01-5.39,3.5-8.5-.18-1.24-.37-2.48-.55-3.73,16.79,1.57,33.76.3,50.46,3.27,14.29,2.54,28.73,3.57,43.18,4.8,6.28.53,12.51.66,18.78.81,1.24.03,2.74-.48,3.48,1.15-4.74,1.97-9.93,1.12-14.85,2.68-8.8,2.79-16.42,7.64-24.18,12.32-4.21-2.13-8.52-3.13-13.07-1.06-7.61-1.41-15.35-.04-22.98-.99-3.06-.38-4,1.01-4.1,3.99-.07,2.09,1.67,5.33-2.39,5.96.7-7.46,2.18-14.48,8.32-19.78,2.02-1.74,2.13-4.42-.97-5.95-.46-.48-.92-.96-1.38-1.45-5.42-3.51-14.34-.25-18.85,6.89-2.78,2.4-1.56,5.47-1.42,8.36l-.39-.12Z"/>
        <path class="cls-9" d="m876.95,457.12c.27,1.07.94,1.95,2.04,1.78,7.17-1.17,13.77,2.89,20.91,2.19,1.08-.1,3.85-1.42,3.06,1.97-9.96.15-19.93.3-29.89.45-.39-.61-.78-.59-1.16.02-2.3.02-4.6.03-6.9.05-2.34-1.16-4.83-.29-7.24-.55-.36.01-.62.18-.76.51-2.35.03-4.7.06-7.05.09-.33-.46-.65-.44-.96,0-2.35,0-4.7.02-7.05.02-.32-.45-.62-.43-.92.03-3.7,0-7.4.02-11.1.02-.29-.44-.58-.44-.89-.02-2.72-.01-5.43-.03-8.15-.04-2.94-.99-5.88-1.18-8.82.04-4.86,1.35-9.55-.75-14.35-.72,1.38-1.91,4.1.21,5.44-1.82,1.53-.1,3.07-.2,4.6-.3,11.28-.18,22.61.88,33.78-1.61,3.88-2.18,8.52-.12,12.42-2.19,5,0,10,0,15.01,0,.66.31,1.32.61,1.98.92,2-.25,3.89-1.34,6-.86Z"/>
        <path class="cls-11" d="m588.92,474.54c-1.26-.83-2.51-1.67-3.77-2.5-.64-5.02,2.25-9.32,2.88-14.09.16-.33.31-.66.47-.99.45-.53.9-1.05,1.35-1.58,5.71-3.96,12.62-3.61,18.97-5.3-.29.62-.57,1.24-.86,1.86-7.65,3.99-10.94,10.05-9.7,17.89.74,2,1.47,3.99,2.21,5.99-3.64-2.32-7.07-6.5-11.55-1.28Z"/>
        <path class="cls-9" d="m921.11,606.93c-.6,3.82-3.62,2.15-5.53,2.16-36.53.07-73.06,0-109.59-.05-2.65,0-5.29-.21-7.94-.32,1.81-1.26,3.87-.7,5.82-.71,36.09-.04,72.18-.1,108.26.06,4.72.02,8.44-.18,8.7-6.02.09,1.63.18,3.25.27,4.88Z"/>
        <path class="cls-1" d="m354.12,789.33c-9.04,0-18.08,0-27.11-.01-4.31-.11-8.62-.23-12.93-.34-.68-.09-1.37-.18-2.05-.28,1.05-1.11,2.43-.85,3.73-.85,17.53-.01,35.06-.02,52.59,0,1.29,0,2.68-.3,3.73.82-.69.09-1.37.19-2.06.28-5.3.13-10.6.26-15.9.38Z"/>
        <path class="cls-1" d="m439.06,784.13c-6.64,1.36-13.38,1.51-20.13,1.53,6.53-2.84,13.22-3.58,20.13-1.53Z"/>
        <path class="cls-4" d="m290.34,787.51c-6.52.5-12.94,0-19.26-1.72,6.51-.43,12.99-.51,19.26,1.72Z"/>
        <path class="cls-9" d="m730.98,477.01c4.55-2.07,8.86-1.07,13.07,1.06-.94.91-1.89,1.83-2.83,2.74.41-2.14-.46-2.82-2.63-2.89-2.54-.08-5.27.93-7.61-.91Z"/>
        <path class="cls-13" d="m812.07,463.69c2.93-1.22,5.87-1.03,8.82-.04-2.94.01-5.88.03-8.82.04Z"/>
        <path class="cls-6" d="m980.28,463.39c2.12-.46,4.23-.47,6.34,0-2.12.87-4.23.89-6.34,0Z"/>
        <path class="cls-14" d="m857.76,463.03c2.41.26,4.9-.61,7.24.55-2.33.65-4.68.53-7.03.12-.1-.21-.17-.44-.21-.67Z"/>
        <path class="cls-7" d="m725.78,607.1c-.12.77-.24,1.54-.36,2.3-.35-.84-.42-1.64.36-2.3Z"/>
        <path class="cls-7" d="m588.5,456.95c-.16.33-.31.66-.47.99-.74.06-1.48.07-1.98-.62.82-.12,1.64-.25,2.45-.37Z"/>
        <path class="cls-14" d="m871.9,463.52c.38-.61.77-.63,1.16-.02-.39,0-.77.01-1.16.02Z"/>
        <path class="cls-13" d="m857.76,463.03c.04.23.1.46.21.67-.32-.05-.64-.11-.97-.16.14-.33.4-.5.76-.51Z"/>
        <path class="cls-13" d="m849,463.64c.32-.45.64-.47.96,0-.32,0-.64,0-.96,0Z"/>
        <path class="cls-13" d="m841.03,463.69c.29-.45.6-.48.92-.03,0,0-.45.19-.45.19l-.46-.16Z"/>
        <path class="cls-13" d="m829.04,463.69c.3-.43.6-.42.89.02,0,0-.45.17-.45.17l-.44-.19Z"/>
        <path class="cls-14" d="m312.16,868.58c1.34-.93,2.88-.64,4.35-.64,30.69-.01,61.37,0,92.06,0,1.47,0,3-.29,4.35.63-24.28.11-48.55.26-72.83.31-9.31.02-18.61-.2-27.92-.31Z"/>
        <path class="cls-13" d="m918.58,912.68c-1.54.52-3.03.29-4.5-.63,1.42-.08,2.84-.16,4.25-.24.33.22.42.51.25.87Z"/>
        <path class="cls-13" d="m433.88,868.75c2.11-1,4.22-1,6.34-.03-2.11,0-4.23.02-6.34.03Z"/>
        <path class="cls-14" d="m418.15,868.55c1.25-.85,2.51-.85,3.77-.02-1.26,0-2.51.01-3.77.02Z"/>
        <path class="cls-14" d="m298.26,868.34c.89-.54,1.77-.55,2.64.07-.88-.02-1.76-.05-2.64-.07Z"/>
        <path class="cls-14" d="m420.44,912.32c-.01.09,0,.23-.04.25-.12.05-.29.1-.4.06-.46-.18-.44-.35.05-.42.12-.02.26.07.39.11Z"/>
        <path class="cls-13" d="m441.84,868.71c.47-.46.93-.46,1.4,0-.47,0-.93,0-1.4,0Z"/>
        <path class="cls-5" d="m684.01,362.61c-19.5-2.69-33.92-13.16-44.73-29.17-1.11-1.64-2.27-3.24-3.4-4.86-.68-1.49-1.36-2.98-2.03-4.47-.92-3.06-1.85-6.12-2.77-9.18-.59-2.27-1.18-4.54-1.77-6.82.17-.88-.06-1.61-.82-2.13-.19-.65-.38-1.3-.57-1.94.01-2.82-1.47-5.24-2.08-7.89-.35-3.45-.88-6.9-1.03-10.36-.96-22,4.01-42.41,17.05-60.4,14.04-19.38,31.26-34.36,55.76-38.76,3.58-.64,7.22-.98,10.83-1.45,7.71,2.33,15.76,3.37,22.96,7.51,15.97,9.18,26.02,22.91,32.74,39.75,5.53,13.87,4.93,28.22,4.84,42.61-1.89,3.65-.79,7.76-1.85,11.62-2.6,9.42-6.19,18.42-10.07,27.34-5.8,10.3-12.05,20.28-20.46,28.71-11.25,11.28-24.55,18.36-40.61,19.76-4-.66-7.99-.75-11.97.12Zm58.1-95.36c.39-7.98-1.28-15.66-4.31-22.78-7.4-17.41-19.97-29.64-39.15-32.27-20.47-2.81-47.92,13.91-56,33.03-3.35,7.93-6.4,16.06-7.34,24.77-2.56,23.71,4.81,45.31,27.31,58.1,15.97,9.07,31.83,9.37,47.45-1.03,4.59-3.06,8.66-6.63,12.3-10.8,12.29-14.09,18.95-30.37,19.73-49.02Z"/>
        <path class="cls-11" d="m868.97,457.05c-5,0-10,0-15.01,0-4.55-1.28-9.29-4.65-13.2,1.19-2.89-2.46-5.73-4.99-8.69-7.37-20.26-16.27-36.56-35.84-49.22-58.51-1.08-1.93-1.44-4.56-4.15-5.26-1.61-12.06-4.28-24.22,2.4-35.69,1.47-2.52,2.44-5.66,5.87-6.48-9.64,25.09.24,45.31,16.74,63.19,14.63,15.85,34.04,24.15,54.13,30.8,17.08,5.66,34.55,9.9,52.03,14.07.95.23,1.84.66,2.76,1-4.07,1.49-7.86,2.47-12.43.59-2.71-1.12-6.84-.54-9.64.75-4.52,2.09-9.07,1.37-13.61,1.79-2.11-.49-3.99.61-6,.86-.22-1.25-.52-2.33-1.98-.92Z"/>
        <path class="cls-8" d="m778.71,387.1c2.71.7,3.07,3.32,4.15,5.26,12.66,22.66,28.96,42.24,49.22,58.51,2.96,2.38,5.8,4.91,8.69,7.37.26.33.52.67.78,1-11.17,2.49-22.5,1.43-33.78,1.61-.6-.96-1.2-1.93-1.8-2.89,0,0,.06.06.06.06-10.19-15.23-16.98-32.02-22.2-49.44-2.1-7.02-5.27-13.88-5.12-21.48Z"/>
        <path class="cls-4" d="m757.05,314.01c3.88-8.92,7.47-17.92,10.07-27.34,1.07-3.87-.04-7.97,1.85-11.62,1.39-3.9,3.92-4.29,7.25-2.39,1,.57,2.06,1.08,3.13,1.52,5.06,2.1,8.37,1.11,11.41-3.36,3.41-5.01,7.67-9.68,7.24-16.48v13.61c-1.94,2.15-.98,4.7-.98,7.12,0,0,.02-.02.02-.02-4.37,8.92-7.51,18.53-13.16,26.7-3.83,5.52-7.75,11.31-15.26,13.43-4.39,1.24-7.68-1.38-11.56-1.16Z"/>
        <path class="cls-4" d="m708.43,185.17c-3.61.48-7.25.81-10.83,1.45-24.5,4.4-41.72,19.38-55.76,38.76-13.04,18-18,38.41-17.05,60.4.15,3.46.67,6.91,1.03,10.36-2.48-1.76-5.32-2.11-8.26-2.12-.46-2.6-.93-5.2-1.39-7.81,3.56-5.52.87-12.06,2.93-17.83,1.52-2.17,1.48-4.81,2.21-7.21,3.94-1.67,3.35-5.44,3.59-8.53.47-5.86,1.43-11.65,5.47-15.99,3.49-3.74,3.21-8.82,5.88-12.87,1.95-2.96,4.1-5.58,6.56-7.97,6-5.82,11.73-12.01,18.31-17.09,6.69-5.16,13.86-9.75,22.05-12.69,6.65-2.39,13.55-2.52,20.3-3.87,2.52-.5,4.17.57,4.95,3Z"/>
        <path class="cls-4" d="m617.85,227.18c-2.88-5.24-6-10.28-10.43-14.42-9.89-9.25-21.33-9.55-33.44-5.93-3.01.9-5.88,2.24-8.81,3.38-.39.27-.79.54-1.18.81-.27.07-.54.15-.81.23-2.33-.12-3.66-1.34-4.03-3.63-.36-2.2.39-3.91,2.24-5.15,14.24-9.52,30.11-12.82,45.27-1.77,7.3,5.32,13.9,11.88,15.49,21.73.39,2.41,1.66,4.68,2.58,6.99,2.06,5.17,1.96,5.34-3.83,5.73-.08-.31-.13-.62-.17-.94.8-3.07-.67-5.2-2.89-7.03Z"/>
        <path class="cls-8" d="m814.56,197.45c4.61-.33,9.21-.66,13.82-.99-4.43,2.78-9.02,3.31-13.82.99Z"/>
        <path class="cls-8" d="m790.71,197.05c3.55.06,7.11.11,10.66.16-3.57,1.11-7.12.88-10.66-.16Z"/>
        <path class="cls-8" d="m797.01,275.07c0-2.42-.96-4.97.98-7.12-.26,2.38,1.02,4.98-.98,7.12Z"/>
        <path class="cls-11" d="m787.67,342.93c.49.98.16,1.66-.78,2.11-1.05-1.19.4-1.45.78-2.11Z"/>
        <path class="cls-4" d="m789.26,340.95l.08.36s-.35.06-.35.05c-.03-.21.06-.35.27-.41Z"/>
        <path class="cls-4" d="m780.09,164.36c-.38.2-.76.39-1.13.59.38-.2.76-.39,1.13-.59Z"/>
        <path class="cls-2" d="m791.97,338.56c-.34.48-.67.96-1,1.44.34-.48.67-.96,1-1.44Z"/>
        <path class="cls-3" d="m629.3,308.11c.59,2.27,1.18,4.54,1.77,6.81-1.92,4.03,1.1,7.98.22,12-2.49,2.89-4.92,5.83-7.47,8.66-7.32,8.12-14.68,16.2-22.03,24.29-1.58.88-3.16,1.76-4.73,2.65-3.15-1.95-3.23-5.6-4.74-8.47-1.3-2.48-2.01-5.3-4.17-7.29-.28-2.26-1.84-3.8-3.09-5.52-.17-2-.53-3.91-2.13-5.33-.11-1.57.41-3.47-1.97-3.89,0,0,.06.07.06.07,1.29-2.02-1.35-3.23-1.04-5.05-.15-.97-.11-2.03-.48-2.91-3.03-7.04-4.36-14.46-5.25-22.02-.63-5.3.56-7.05,5.85-6.99,9.6.1,19.32-1.04,27.85,5.55,2.82,2.18,5.15,3.88,5.18,7.6-1.04,2.9-2.09,5.79-3.13,8.69-.12.11-.34.22-.34.31.01.29.12.57.19.85-.07.58-.15,1.16-.22,1.74-1.96,2.09-2.9,4.58-3.45,7.78,3.06-1.53,4.16-3.85,5.02-6.35,2.81-2.85,6.73-2.08,10.11-3.09,5.43-1.62,6.5-3.41,4.76-8.22-.04-.33-.14-.64-.29-.94,1.13-.49,2.18-1.29,3.54-.94Z"/>
        <path class="cls-11" d="m647.96,473.02c-1.07-4.61-4.29-5.47-8.43-4.97-8.16,1-16.32-.34-24.48.02-1.28.03-1.94.67-1.94,1.96-.01,2.44,0,4.89-.06,7.33-.04,1.55-.47,3.08-2.22,3.34-1.8.28-4.02,1.16-4.8-1.69,5.34.09,6.16-.59,5.05-6.91-.73-4.19.12-7.4,2.79-10.47.95-1.09,1.93-2.29,2-3.88.33-.61.66-1.23,1-1.84,1.65-1.4.68-3.46,1.29-5.12,13.1,3.49,26.34,2.72,39.6,1.25-6.89,4.38-12.12,9.61-9.51,18.79-.09.73-.18,1.47-.27,2.2Z"/>
        <path class="cls-12" d="m601.8,359.87c7.35-8.09,14.71-16.17,22.03-24.29,2.55-2.83,4.98-5.77,7.47-8.66.85-.94,1.7-1.87,2.55-2.81.68,1.49,1.36,2.99,2.03,4.47-4.74,6.23-8.05,13.44-13.15,19.45-1.41-.11-2.57.36-3.59,1.36-3.78,3.71-8.3,6.62-11.65,10.8-1.98,2.47-3.97,3.04-5.68-.32Z"/>
        <path class="cls-2" d="m648.23,470.82c-2.6-9.19,2.63-14.41,9.51-18.79,3.15.35,6.48-1.04,9.45,1.01.18,1.24.37,2.48.55,3.73-1.77.08-2.95,1.22-4.34,2.16-3.53,2.4-5.95,6.47-10.39,7.43-2.65.58-3.83,2.3-4.79,4.46Z"/>
        <path class="cls-11" d="m601.8,359.87c1.71,3.36,3.7,2.79,5.68.32,3.35-4.18,7.87-7.09,11.65-10.8,1.02-1,2.18-1.48,3.59-1.36-3.62,6.26-8.55,11.43-13.86,16.22-5.21,4.7-7.48,4.26-11.8-1.74,1.58-.88,3.15-1.76,4.73-2.64Z"/>
        <path class="cls-3" d="m618.15,450.78c-.61,1.66.36,3.72-1.28,5.12.83-4.23-1.31-5.37-5.03-4.79-1.3.2-2.58.55-3.88.83.28-.62.57-1.24.85-1.86,3.15-.23,6.34-1.11,9.34.7Z"/>
        <path class="cls-1" d="m684.01,362.61c3.98-.87,7.97-.78,11.97-.12-3.98.8-7.97.75-11.97.12Z"/>
        <path class="cls-1" d="m805.97,457.96c.6.96,1.2,1.93,1.8,2.89-1.54.1-3.07.2-4.6.3.65-1.32,2.95-1.18,2.81-3.19Z"/>
        <path class="cls-12" d="m1183.94,913.93c-.07,1.27.01,2.64-1.74,2.85-1.36.16-2.05-.55-2.24-1.84,1.33-.34,2.66-.67,3.99-1.01Z"/>
        <path class="cls-3" d="m949.07,426.98c.05.35.1.69.15,1.04-25.71.01-49.84-6.23-72.52-18.06,8.08,3.55,16.66,5.81,25.1,8.48,13.5,4.27,27.37,6.44,41.44,7.5,1.99.15,4,.05,5.82,1.04Z"/>
        <path class="cls-3" d="m818.21,391.83c6.16,3.83,10.45,9.88,16.52,13.84-7.11-2.67-13.08-6.75-16.93-13.47.13-.13.26-.25.41-.37Z"/>
        <path class="cls-3" d="m918.95,391.06c-8.53-.56-15.66-4.1-21.64-10.14,6.97,3.93,14.23,7.23,21.73,10.02,0,0-.09.11-.09.11Z"/>
        <path class="cls-3" d="m927.95,391.84c-.29.37-.58.73-.87,1.1-2.79-.31-5.59-.55-8.14-1.88,0,0,.09-.11.09-.11,2.96.47,6.07-.68,8.92.89Z"/>
        <path class="cls-3" d="m896.44,379.61c-2.88-.09-3.73-1.09-4.1-2.99,2.26-.49,2.68,1.18,4.1,2.99Z"/>
        <path class="cls-3" d="m816.81,391.2c-1.27-1.12-2.96-1.98-2.6-4.68,1.48,1.41,2.76,2.42,2.96,4.28-.11.14-.23.27-.36.4Z"/>
        <path class="cls-3" d="m817.17,390.8c.34.34.69.69,1.03,1.03-.14.12-.28.24-.41.37-.33-.33-.66-.67-.98-1,.13-.13.25-.26.36-.4Z"/>
        <path class="cls-11" d="m364.89,837.23c-6.46,1.32-12.97.76-19.46.39,6.48-.75,12.97-.62,19.46-.39Z"/>
        <path class="cls-2" d="m354.12,789.33c5.3-.13,10.6-.26,15.9-.38-5.26,1.64-10.58,1.17-15.9.38Z"/>
        <path class="cls-2" d="m314.08,788.97c4.31.11,8.62.23,12.93.34-4.34.89-8.66,1.17-12.93-.34Z"/>
        <path class="cls-11" d="m330.72,837.57c-3.51.44-7.03.91-10.49-.33,3.51-.24,7.01-.43,10.49.33Z"/>
        <path class="cls-13" d="m488.45,825.62c-.73.13-1.47.25-2.19.38.74-.13,1.47-.25,2.19-.38Z"/>
        <path class="cls-13" d="m353.88,839.16c7.7-.09,15.4-.19,23.1-.28-7.69,1.32-15.39,1.18-23.1.28Z"/>
        <path class="cls-13" d="m313.11,838.9c7.72.11,15.44.22,23.16.33-7.74.92-15.46.93-23.16-.33Z"/>
        <path class="cls-6" d="m582.93,335.9c1.61,1.42,1.97,3.33,2.13,5.33-25.42-.09-41.82-16.18-45.05-42.76-2.03-16.68,0-32.5,10.04-46.58,10.76-15.1,31.09-22.26,46.61-16.07,10.71,4.27,17.38,12.31,20.73,23.38.91,3-1.85,6.07.68,8.78-.82,3.65-1.64,7.29-2.49,11.09-2.7-2.22-2.41-6.38-5.7-7.96-.52-.63-1.07-1.23-1.56-1.88-10.36-13.76-24.92-17.52-37.69-9.08-13.03,8.61-18.67,21.4-17.47,36.72,1.08,13.69,8.03,24.08,20.53,30.32,2.67,1.33,5.1,2.91,7.31,4.88,0,0-.06-.07-.06-.07.2,1.53.69,2.91,1.97,3.89Z"/>
        <path class="cls-7" d="m609.89,271.12c3.28,1.57,2.99,5.74,5.7,7.96.85-3.8,1.67-7.45,2.49-11.09.34.13.68.27,1.02.4-2.06,5.77.63,12.31-2.93,17.83-2.09-5.03-4.18-10.07-6.28-15.1Z"/>
        <path class="cls-1" d="m617.85,227.18c2.22,1.83,3.69,3.96,2.89,7.03-1.42-2.16-2.63-4.4-2.89-7.03Z"/>
        <path class="cls-1" d="m563.99,211.01c.39-.27.79-.54,1.18-.81-.39.27-.79.54-1.18.81Z"/>
        <path class="cls-11" d="m804.31,186.54s-.26.04-.25.04c.51.31.99.51,1.31-.22-.35.06-.7.12-1.05.18Z"/>
        <path class="cls-9" d="m1000.9,836.05c-1.4,1.29-3.14.86-4.76.86-36.75.02-73.5.02-110.25,0-1.62,0-3.35.42-4.8-.77,22.8-.09,45.6-.24,68.4-.26,17.14-.02,34.28.11,51.42.17Z"/>
        <path class="cls-9" d="m877.88,836.14c-7.27,1.29-14.53,1.3-21.8-.01,7.27-.44,14.53-.4,21.8.01Z"/>
        <path class="cls-9" d="m1011.9,836.05c-2.62,1.37-5.25,1.37-7.87,0,2.62,0,5.25,0,7.87,0Z"/>
        <path class="cls-9" d="m799.9,836.11c-2.66,1.21-5.3,1.45-7.88-.2,2.63.07,5.26.13,7.88.2Z"/>
        <path class="cls-9" d="m836.9,836.11c-.94,1-1.89,1.01-2.83,0,.94,0,1.89,0,2.83,0Z"/>
        <path class="cls-9" d="m844.9,836.11c-.94.99-1.89,1-2.82,0,.94,0,1.88,0,2.82,0Z"/>
        <path class="cls-3" d="m708.87,460.24c3.1,1.54,2.99,4.21.97,5.95-6.14,5.3-7.62,12.32-8.32,19.78-2.73,2.15-4.48-.39-5.96-1.7-3.38-2.99-7.02-5.9-8.72-10.35,0,0,.39.12.39.12,2.75-4.3,7.16-6.23,11.6-8.08,2.34-.98,4.55-2.02,5.46-4.64.52-.14,1.04-.27,1.56-.41,1.07.06,2.17.25,3.02-.68Z"/>
        <path class="cls-3" d="m648.23,470.82c.96-2.17,2.13-3.89,4.79-4.46,4.44-.96,6.86-5.02,10.39-7.43,1.39-.94,2.56-2.08,4.34-2.16-.49,3.11-1.4,5.96-3.5,8.49-1.48,1.79-1.56,4.23-1.54,6.6.05,6.64-3.2,8.99-9.65,7.13,0,0-.03-.02-.03-.02-.64-1.34-1.71-2.23-2.99-2.91,0,0-.06-.07-.06-.07-.22-1.03-1.09-1.04-1.87-1.21-.04-.59-.09-1.17-.13-1.76.09-.73.18-1.47.27-2.2Z"/>
        <path class="cls-3" d="m615.87,457.74c-.07,1.6-1.05,2.8-2,3.88-2.67,3.07-3.53,6.28-2.79,10.47,1.11,6.33.29,7.01-5.05,6.91,0,0-.04-.02-.04-.02-.38-.9-1.1-1.03-1.95-.83-1.19-.78-2.38-1.56-3.57-2.34-.74-2-1.47-3.99-2.21-5.99,1.01-2.34,2.4-4.25,5.14-4.77,3.38-.65,6.04-2.49,8.21-5.12,1.1-1.34,2.52-2.1,4.27-2.2Z"/>
        <path class="cls-11" d="m650.02,476.06c1.28.68,2.35,1.57,2.99,2.91-2.15.21-3.2-.7-2.99-2.91Z"/>
        <path class="cls-9" d="m613.1,470.03c0-1.29.67-1.93,1.94-1.96-.15,1.15-.79,1.81-1.94,1.96Z"/>
        <path class="cls-11" d="m604.03,478.16c.85-.2,1.57-.07,1.95.83-.65-.28-1.3-.55-1.95-.83Z"/>
        <path class="cls-11" d="m648.09,474.78c.78.16,1.65.18,1.87,1.21-.89,0-1.58-.29-1.87-1.21Z"/>
        <path class="cls-4" d="m705.84,460.92c-.52.14-1.04.27-1.57.41-5.45.6-9.71,5.48-15.64,4.36,4.51-7.14,13.43-10.4,18.85-6.89-.89.44-1.51,1.09-1.65,2.12Z"/>
        <path class="cls-2" d="m688.64,465.68c5.93,1.12,10.19-3.75,15.64-4.36-.91,2.62-3.12,3.67-5.46,4.64-4.44,1.85-8.85,3.78-11.6,8.08-.14-2.89-1.36-5.97,1.42-8.36Z"/>
        <path class="cls-2" d="m705.84,460.92c.13-1.03.75-1.68,1.65-2.12.46.48.92.96,1.38,1.44-.85.92-1.95.73-3.02.68Z"/>
        <path class="cls-12" d="m841.54,459.24c-.26-.33-.52-.67-.78-1,3.91-5.83,8.65-2.47,13.2-1.19-3.91,2.07-8.54,0-12.42,2.19Z"/>
        <path class="cls-12" d="m868.97,457.05c1.46-1.41,1.76-.33,1.98.92-.66-.31-1.32-.61-1.98-.92Z"/>
        <path class="cls-2" d="m615.87,457.74c-1.75.1-3.16.86-4.27,2.2-2.17,2.62-4.83,4.47-8.21,5.12-2.74.53-4.13,2.43-5.14,4.77-1.24-7.84,2.05-13.9,9.7-17.89,1.29-.28,2.57-.63,3.88-.83,3.71-.58,5.86.56,5.03,4.79-.33.62-.66,1.23-1,1.85Z"/>
        <path class="cls-6" d="m742.11,267.25c-.78,18.65-7.44,34.94-19.73,49.02-3.64,4.17-7.71,7.74-12.3,10.8-15.61,10.4-31.48,10.1-47.45,1.03-22.5-12.79-29.88-34.4-27.31-58.1.94-8.71,3.99-16.84,7.34-24.77,8.08-19.12,35.52-35.85,56-33.03,19.17,2.64,31.75,14.86,39.15,32.27,3.03,7.13,4.69,14.8,4.31,22.78Zm-46.09-32.04c-12.77-1.46-24.88.52-34.22,9.83-12.37,12.32-19.52,31.96-12.36,50.49,6.12,15.83,17.63,23.38,33.41,23.29,10.69-.06,19.62-5.58,26.72-13.6,9.85-11.13,13.47-24.18,12.5-38.92-.87-13.26-11.67-27.38-23.1-30.23-.84-.76-1.82-1.06-2.94-.85Z"/>
        <path class="cls-2" d="m613.11,308.27c-.03-3.72-2.36-5.42-5.18-7.6-8.52-6.59-18.25-5.45-27.85-5.55-5.29-.06-6.47,1.69-5.85,6.99.89,7.56,2.22,14.98,5.25,22.02.38.88.33,1.93.48,2.91-4.84-8.2-6.01-17.52-7.84-26.6-.43-2.14-1.19-5.05,1.86-6.51,4.09-.29,8.38,1.45,12.22-1.24.63,1.31,1.85,1.23,3,1.24,9.45.04,18.89.07,28.34.1,2.93,0,5.77.36,8.26,2.12.61,2.65,2.1,5.07,2.08,7.89-.99,1-.56,1.57.57,1.94.77.52.99,1.25.82,2.13-1.36-.35-2.41.45-3.54.94-3.45-1.58-6.7-4.19-10.86-2.13-.29.36-.57.72-.86,1.08l-.03.07c-.3.06-.6.12-.9.19Z"/>
        <path class="cls-11" d="m633.84,324.11c-.85.94-1.7,1.88-2.55,2.81.88-4.02-2.14-7.97-.22-12,.92,3.07,1.85,6.13,2.77,9.19Z"/>
        <path class="cls-3" d="m628.47,305.98c-1.13-.37-1.57-.95-.57-1.94.19.65.38,1.3.57,1.94Z"/>
        <path class="cls-12" d="m617.56,294.03c-9.45-.03-18.89-.06-28.34-.1-1.15,0-2.37.08-3-1.24-1.59-3.49-3.21-7.43-7.95-6.53-3.94.75-4.29,4.37-4.28,7.77-3.04,1.46-2.29,4.37-1.86,6.51,1.83,9.08,3,18.39,7.84,26.6-.31,1.82,2.33,3.03,1.04,5.05-2.21-1.96-4.65-3.54-7.31-4.88-12.5-6.24-19.45-16.63-20.53-30.32-1.2-15.32,4.44-28.11,17.47-36.72,12.77-8.44,27.33-4.68,37.69,9.08.49.65,1.04,1.25,1.56,1.88,2.09,5.03,4.18,10.06,6.28,15.1.46,2.6.93,5.21,1.39,7.81Z"/>
        <path class="cls-1" d="m614.9,306.93c4.16-2.07,7.41.55,10.86,2.13.15.3.25.61.29.94.4,3.24-.91,5.52-4.02,6.49-3.13.97-6.91,1.84-9.44.35-1.83-1.08.75-4.42,1.22-6.78.13-.64.14-1.3.2-1.96,0,0,.03-.07.03-.07.29-.36.57-.72.86-1.08Z"/>
        <path class="cls-1" d="m614.02,308.08c-.06.65-.07,1.32-.2,1.96-.47,2.36-3.05,5.7-1.22,6.78,2.53,1.49,6.31.63,9.44-.35,3.12-.97,4.42-3.24,4.02-6.49,1.74,4.81.68,6.59-4.76,8.22-3.38,1.01-7.3.24-10.11,3.09-.52-.48-1.05-.96-1.57-1.43.07-.58.15-1.16.22-1.74.05-.39.1-.77.15-1.16,1.04-2.9,2.09-5.79,3.13-8.69.3-.07.6-.13.9-.19Z"/>
        <path class="cls-2" d="m609.61,319.86c.52.48,1.05.96,1.57,1.43-.86,2.5-1.96,4.82-5.02,6.35.54-3.2,1.49-5.69,3.45-7.78Z"/>
        <path class="cls-12" d="m582.93,335.9c-1.28-.98-1.77-2.36-1.97-3.89,2.39.42,1.86,2.32,1.97,3.89Z"/>
        <path class="cls-2" d="m609.99,316.96c-.05.39-.1.77-.15,1.16-.07-.28-.18-.56-.19-.85,0-.1.22-.21.34-.31Z"/>
        <path class="cls-12" d="m698.97,236.05c11.43,2.86,22.23,16.97,23.1,30.23.97,14.75-2.65,27.8-12.5,38.92-7.1,8.03-16.03,13.54-26.72,13.6-15.78.09-27.29-7.46-33.41-23.29-7.16-18.52-.01-38.16,12.36-50.49,9.34-9.3,21.45-11.29,34.22-9.83.8.91,1.86.92,2.94.85Zm-8.95,37.75c-.09-5.91-.94-6.91-6.02-6.77-3.89.1-7.19,3.54-6.99,7.27.2,3.81,3.75,7.06,7.61,6.79,4.36-.31,5.99-2.87,5.4-7.29Z"/>
        <path class="cls-9" d="m698.97,236.05c-1.08.08-2.14.07-2.94-.85,1.12-.22,2.1.09,2.94.85Z"/>
        <path class="cls-5" d="m574,293.93c-.01-3.4.33-7.02,4.28-7.77,4.74-.9,6.35,3.04,7.95,6.53-3.84,2.69-8.14.95-12.22,1.24Z"/>
        <path class="cls-1" d="m614.9,306.93c-.29.36-.57.72-.86,1.08.29-.36.57-.72.86-1.08Z"/>
        <path class="cls-5" d="m690.02,273.81c.59,4.42-1.04,6.98-5.4,7.29-3.86.27-7.41-2.98-7.61-6.79-.2-3.73,3.1-7.16,6.99-7.27,5.08-.14,5.93.86,6.02,6.77Z"/>
      </g>
      <circle class="cls-15" cx="1158.05" cy="830.99" r="52.15"/>
      <circle class="cls-15" cx="633.01" cy="830.99" r="52.15"/>
    </g>
  </g>
</svg>