<?xml version="1.0" encoding="UTF-8"?>
<svg id="Layer_2" data-name="Layer 2" xmlns="http://www.w3.org/2000/svg" viewBox="0 0 404.06 404.06">
  <defs>
    <style>
      .cls-1 {
        fill: #f8d7aa;
      }

      .cls-2 {
        fill: #fac047;
      }

      .cls-3 {
        fill: #faf6eb;
      }

      .cls-4 {
        fill: #83ccbd;
      }

      .cls-5 {
        fill: #3f2834;
        stroke: #fff;
        stroke-miterlimit: 10;
        stroke-width: 10px;
      }
    </style>
  </defs>
  <g id="Layer_1-2" data-name="Layer 1">
    <circle class="cls-5" cx="202.03" cy="202.03" r="197.03"/>
    <g>
      <path class="cls-2" d="m194.07,200.34c-1.68,0-3.62-.09-5.76-.27-2.08-.18-4.16-.41-6.17-.69-2.03-.29-3.94-.61-5.69-.97-1.95-.4-3.46-.81-4.61-1.25l-1.58-.61-.88-1.45c-.79-1.3-1.65-2.88-2.55-4.71-.04.09-.09.19-.13.28-.75,1.63-1.76,3.29-2.98,4.92l-.92,1.23-1.45.5c-2.47.85-5.62,1.55-9.64,2.15-3.89.58-8.45.87-13.54.87s-9.96-.34-14.68-1.02c-4.89-.7-9.43-1.88-13.5-3.51l-1.36-.54-.85-1.19c-2.47-3.45-4.91-7.31-7.25-11.49-2.38-4.22-4.65-9.14-6.76-14.63-2.09-5.44-4.08-11.7-5.91-18.61-1.75-6.59-3.37-14.24-4.83-22.76-1.8-2.56-3.37-5.61-4.68-9.09-1.53-4.07-2.3-8.63-2.3-13.55,0-4.12.53-8.31,1.57-12.45,1.09-4.31,2.89-8.37,5.37-12.07l1.48-2.23h27.28c5.96,0,10.7.71,14.5,2.16,3.99,1.53,7.18,3.72,9.49,6.52.43.52.83,1.06,1.21,1.62v-1.5l2.14-1.49c4.05-2.82,8.33-4.86,12.73-6.06,4.28-1.16,8.72-1.75,13.21-1.75,7.74,0,14.29,1.6,19.47,4.74,3.02,1.84,5.54,4.11,7.54,6.79l.14-2.6,1.84-1.4c3.07-2.34,7.1-4.22,11.96-5.57,4.69-1.3,9.69-1.96,14.86-1.96,4.61,0,8.88.68,12.68,2.01,3.89,1.36,7.3,3.33,10.15,5.85,2.91,2.58,5.18,5.71,6.76,9.32,1.56,3.57,2.35,7.58,2.35,11.91,0,3.2-.35,6.97-1.08,11.51-.7,4.34-1.61,8.92-2.71,13.62-1.1,4.68-2.36,9.41-3.73,14.05-1.37,4.63-2.73,8.87-4.04,12.59-1.91,5.33-3.67,10.07-5.24,14.12-1.63,4.22-3.31,7.92-5,11.02-1.79,3.28-3.78,6.08-5.89,8.31-2.26,2.39-4.97,4.32-8.05,5.73-2.93,1.35-6.38,2.31-10.24,2.85-3.61.5-7.88.76-12.69.76Z"/>
      <path class="cls-1" d="m163.88,184.87c-.54,1.15-1.12,2.39-1.73,3.71s-1.42,2.66-2.44,4.02c-2.17.75-5.08,1.39-8.74,1.93-3.66.54-7.93.81-12.81.81s-9.47-.32-13.98-.97c-4.51-.64-8.62-1.71-12.35-3.2-2.37-3.32-4.69-7-6.96-11.03-2.27-4.03-4.42-8.69-6.46-13.98-2.03-5.29-3.95-11.32-5.74-18.09-1.8-6.78-3.44-14.6-4.93-23.48-1.83-2.37-3.41-5.32-4.73-8.84-1.32-3.52-1.98-7.45-1.98-11.79,0-3.73.48-7.47,1.42-11.23.95-3.76,2.51-7.27,4.68-10.52h24.6c5.29,0,9.52.61,12.71,1.83,3.18,1.22,5.66,2.9,7.42,5.03,1.76,2.13,2.93,4.66,3.51,7.57.58,2.91.86,6.07.86,9.45,0,2.37-.03,4.63-.1,6.76-.07,2.13-.15,4.39-.25,6.76-.1,2.37-.19,4.95-.25,7.73-.07,2.78-.1,5.96-.1,9.56,0,1.56.02,3.02.05,4.37.03,1.36.17,2.54.41,3.56.24,1.02.63,1.81,1.17,2.39.54.58,1.29.86,2.24.86h.86c.3,0,.63-.07.97-.2-.14-1.35-.22-2.93-.25-4.73-.03-1.8-.05-3.71-.05-5.74,0-2.71.05-5.49.15-8.34s.2-6.13.3-9.86c.1-3.73.22-8.05.36-12.96.13-4.91.2-10.79.2-17.64,3.59-2.51,7.32-4.29,11.18-5.34,3.86-1.05,7.83-1.58,11.89-1.58,6.84,0,12.47,1.34,16.87,4.02,4.4,2.68,7.45,6.42,9.15,11.23,0,1.42-.07,3.37-.2,5.85-.14,2.47-.32,5.24-.56,8.28-.24,3.05-.56,6.3-.97,9.76-.41,3.46-.86,6.91-1.37,10.37s-1.09,6.78-1.73,9.96c-.64,3.19-1.34,6.03-2.08,8.54.47.27.95.44,1.42.51.47.07.88.1,1.22.1,1.02,0,1.78-.52,2.29-1.58.51-1.05,1.03-2.46,1.58-4.22.68-2.37,1.3-5.24,1.88-8.59.58-3.35,1.08-6.89,1.52-10.62.44-3.73.83-7.52,1.17-11.39.34-3.86.64-7.49.91-10.88.27-3.39.47-6.39.61-9,.13-2.61.24-4.56.3-5.85,2.57-1.96,6-3.54,10.27-4.73,4.27-1.19,8.78-1.78,13.52-1.78,4.07,0,7.74.58,11.03,1.73,3.29,1.15,6.12,2.78,8.49,4.88,2.37,2.1,4.2,4.63,5.49,7.57,1.29,2.95,1.93,6.25,1.93,9.91,0,2.91-.34,6.49-1.02,10.72-.68,4.24-1.56,8.66-2.64,13.27-1.09,4.61-2.31,9.2-3.66,13.77-1.36,4.57-2.68,8.69-3.96,12.35-1.9,5.29-3.63,9.95-5.18,13.98-1.56,4.03-3.14,7.51-4.73,10.42-1.59,2.91-3.3,5.34-5.13,7.27s-4,3.47-6.51,4.63c-2.51,1.15-5.46,1.96-8.84,2.44-3.39.47-7.39.71-12,.71-1.56,0-3.34-.09-5.34-.25-2-.17-3.96-.39-5.9-.66-1.93-.27-3.73-.58-5.39-.91-1.66-.34-2.93-.68-3.81-1.02-.75-1.22-1.56-2.73-2.44-4.52-.88-1.8-1.75-3.66-2.59-5.59-.85-1.93-1.64-3.83-2.39-5.69-.75-1.86-1.32-3.44-1.73-4.73-1.29.2-2.25.54-2.9,1.02-.64.48-.97,1.25-.97,2.34,0,.34.1.86.3,1.58s.46,1.51.76,2.39c.3.88.64,1.81,1.02,2.8.37.98.76,1.92,1.17,2.8Z"/>
      <path class="cls-3" d="m276.99,332.61c-1.99,0-4.14-.15-6.4-.44-2.19-.29-4.38-.67-6.51-1.15-2.16-.48-4.23-1.06-6.13-1.71-2.05-.69-3.76-1.42-5.22-2.23l-1.1-.61-.68-1.05c-.21-.33-.42-.67-.64-1.03-3.82,2.97-8.21,5.11-13.04,6.36-4.76,1.23-10.23,1.85-16.28,1.85-2.43,0-4.98-.09-7.58-.28-2.72-.19-5.39-.57-7.96-1.12-2.63-.56-5.12-1.33-7.41-2.27-2.59-1.06-4.85-2.52-6.73-4.31l-.66-.64-.39-.83c-2.24-4.71-4.66-10.44-7.19-17.02-2.54-6.6-5.05-14.21-7.45-22.63-2.4-8.4-4.67-17.81-6.74-27.98-2.07-10.18-3.76-21.36-5.02-33.24l-.2-1.85,1.06-1.53c3.17-4.57,7.52-8.2,12.94-10.77,5.29-2.51,11.23-3.78,17.66-3.78,4.53,0,8.73.45,12.48,1.34,3.95.94,7.42,2.39,10.32,4.32,2.43,1.62,4.46,3.58,6.03,5.84l.28-1.89,2.01-1.22c2.97-1.8,6.5-3.22,10.51-4.23,3.92-.99,8-1.49,12.15-1.49,3.16,0,6.37.26,9.54.78,3.35.55,6.45,1.48,9.23,2.76,2.8,1.3,5.19,3.01,7.12,5.1.02-.34.17-3.52.17-3.52l2.08-1.4c2.63-1.78,5.88-3.25,9.92-4.51,4.06-1.26,9.14-1.88,15.53-1.88,4.39,0,8.47.63,12.13,1.87,3.77,1.28,7.07,3.16,9.79,5.6,2.77,2.47,4.93,5.49,6.43,8.97,1.48,3.44,2.24,7.28,2.24,11.39,0,1.39-.19,3.39-.59,6.11-.36,2.48-.85,5.47-1.45,8.89-.6,3.37-1.33,7.13-2.17,11.16-.84,4.02-1.75,8.18-2.69,12.38-.95,4.19-1.94,8.45-2.96,12.65-1.02,4.2-2.06,8.18-3.08,11.84-1.01,3.64-2,6.99-2.95,9.97-.99,3.13-1.89,5.58-2.75,7.49-1.67,3.68-3.76,6.83-6.24,9.38-2.48,2.55-5.4,4.65-8.67,6.23-3.17,1.53-6.73,2.65-10.6,3.32-3.69.64-7.77.97-12.14.97Z"/>
      <path class="cls-4" d="m168.83,221.76c2.68-3.86,6.33-6.9,10.97-9.1,4.64-2.2,9.81-3.3,15.52-3.3,4.16,0,7.94.4,11.33,1.2s6.29,2.01,8.69,3.61,4.26,3.58,5.57,5.93c1.31,2.35,1.96,5.07,1.96,8.16-.3,3.51-.54,7.27-.71,11.28s-.34,7.98-.49,11.9c-.15,3.92-.25,7.67-.31,11.24-.06,3.57-.09,6.63-.09,9.18,0,1.61.16,3.05.49,4.32.33,1.28,1.17,1.92,2.54,1.92.47,0,1.07-.09,1.78-.27-.06-.83-.09-1.72-.09-2.68v-3.12c0-3.8.06-8.2.18-13.2.12-4.99.31-10.05.58-15.16.27-5.11.59-10.03.98-14.76.39-4.73.82-8.69,1.29-11.9,2.56-1.54,5.6-2.76,9.14-3.66,3.54-.89,7.18-1.34,10.92-1.34,2.91,0,5.83.24,8.74.71,2.91.48,5.56,1.26,7.94,2.36,2.38,1.1,4.34,2.54,5.89,4.32,1.54,1.78,2.41,3.98,2.59,6.6-.18,3.21-.51,6.85-.98,10.92-.48,4.07-1.03,8.34-1.65,12.8-.62,4.46-1.29,9.05-2.01,13.78s-1.4,9.35-2.05,13.87c.54.24,1.1.36,1.69.36.83,0,1.57-.28,2.23-.85.65-.56,1.22-2.01,1.69-4.32,1.01-5.35,1.9-10.67,2.68-15.96.77-5.29,1.44-10.4,2.01-15.34.56-4.93,1.03-9.63,1.38-14.09s.62-8.56.8-12.31c2.2-1.49,5.07-2.78,8.61-3.88,3.54-1.1,8.22-1.65,14.04-1.65,3.86,0,7.37.54,10.52,1.61,3.15,1.07,5.84,2.6,8.07,4.59,2.23,1.99,3.95,4.4,5.17,7.22,1.22,2.82,1.83,5.96,1.83,9.41,0,1.13-.18,2.93-.54,5.39-.36,2.47-.83,5.38-1.43,8.74-.6,3.36-1.31,7.03-2.14,11.01-.83,3.98-1.72,8.09-2.68,12.31-.95,4.22-1.93,8.41-2.94,12.57-1.01,4.16-2.02,8.06-3.03,11.68-1.01,3.63-1.98,6.9-2.9,9.81-.92,2.91-1.77,5.23-2.54,6.96-1.43,3.15-3.18,5.8-5.26,7.94-2.08,2.14-4.5,3.88-7.27,5.22s-5.86,2.3-9.27,2.9c-3.42.59-7.18.89-11.28.89-1.78,0-3.7-.13-5.75-.4s-4.07-.62-6.06-1.07c-1.99-.45-3.86-.97-5.62-1.56-1.75-.59-3.23-1.22-4.41-1.87-.65-1.01-1.32-2.23-2.01-3.66-.68-1.43-1.34-2.93-1.96-4.5-.62-1.57-1.19-3.12-1.69-4.64-.51-1.52-.88-2.87-1.11-4.06-1.37.06-2.29.42-2.76,1.07-.48.65-.71,1.55-.71,2.68,0,1.25.27,2.79.8,4.64.54,1.84,1.19,3.81,1.96,5.89-3.39,2.74-7.27,4.67-11.64,5.8-4.37,1.13-9.38,1.69-15.03,1.69-2.32,0-4.73-.09-7.22-.27s-4.92-.52-7.27-1.03c-2.35-.5-4.53-1.17-6.55-2.01-2.02-.83-3.75-1.93-5.17-3.3-2.2-4.64-4.55-10.19-7.04-16.68-2.5-6.48-4.94-13.88-7.31-22.2-2.38-8.32-4.59-17.52-6.64-27.6-2.05-10.08-3.7-21-4.95-32.77Z"/>
    </g>
  </g>
</svg>