<?xml version="1.0" encoding="UTF-8"?>
<svg id="Layer_2" data-name="Layer 2" xmlns="http://www.w3.org/2000/svg" viewBox="0 0 940.83 437.82">
  <defs>
    <style>
      .cls-1 {
        fill: #f8d7aa;
      }

      .cls-2 {
        fill: #fac047;
      }

      .cls-3 {
        fill: #f59f20;
      }

      .cls-4 {
        fill: #fff;
      }

      .cls-5 {
        fill: #faf6eb;
      }

      .cls-6 {
        fill: #83ccbd;
      }

      .cls-7 {
        fill: #348d80;
      }

      .cls-8 {
        fill: #3f2834;
      }

      .cls-9 {
        fill: #284a50;
      }
    </style>
  </defs>
  <g id="Layer_1-2" data-name="Layer 1">
    <g>
      <g>
        <path class="cls-9" d="m206.5,356.1c-.32.63-.67,1.32-1.04,2.04s-.81,1.47-1.33,2.2c-.86.35-1.96.62-3.32.8-1.34.18-2.86.19-4.54.03s-3.19-.5-4.62-1c-1.42-.5-2.65-1.22-3.69-2.14-.36-1.87-.65-3.91-.87-6.11-.22-2.18-.33-4.66-.32-7.43s.15-5.81.41-9.2c.26-3.35.68-7.15,1.27-11.39-.28-1.12-.41-2.5-.4-4.14.01-1.63.26-3.43.76-5.41.42-1.69.98-3.38,1.68-5.07.7-1.68,1.54-3.26,2.53-4.72l7.4-.34c1.63-.07,2.88.14,3.75.65.88.51,1.49,1.25,1.83,2.21.34.97.46,2.12.35,3.48-.11,1.36-.34,2.85-.69,4.46-.25,1.13-.49,2.21-.74,3.24-.25,1.03-.51,2.12-.8,3.28-.29,1.16-.59,2.42-.91,3.79-.32,1.38-.68,2.96-1.07,4.76-.17.78-.33,1.52-.46,2.21-.14.69-.23,1.29-.26,1.81-.03.52,0,.93.12,1.23.12.3.33.46.65.47h.29c.1.01.22-.02.35-.08.1-.7.25-1.51.44-2.43.18-.92.39-1.89.61-2.92.29-1.37.61-2.76.95-4.18s.72-3.04,1.15-4.87c.42-1.82.91-3.91,1.46-6.27.55-2.34,1.16-5.11,1.85-8.31,1.41-1.21,2.79-2.08,4.16-2.62,1.37-.54,2.73-.85,4.08-.91,2.29-.11,4.08.44,5.34,1.64,1.28,1.22,2,2.99,2.17,5.31-.13.7-.33,1.66-.6,2.88-.27,1.23-.59,2.6-.96,4.13-.37,1.54-.78,3.18-1.25,4.94s-.97,3.55-1.48,5.34-1.05,3.54-1.59,5.21c-.55,1.68-1.08,3.19-1.6,4.53.14.15.3.25.46.29.16.04.31.07.43.07.37.01.7-.26.99-.82.29-.56.62-1.31.99-2.24.48-1.26.98-2.77,1.52-4.54.53-1.76,1.05-3.6,1.56-5.54.51-1.92,1-3.86,1.48-5.83.47-1.95.91-3.77,1.31-5.46.4-1.68.74-3.16,1.01-4.44.28-1.27.48-2.22.62-2.85,1.08-.99,2.43-1.8,4.05-2.44,1.63-.64,3.3-1,5.03-1.08,1.49-.07,2.8.15,3.93.66,1.14.52,2.08,1.28,2.82,2.29.74,1.02,1.26,2.28,1.53,3.76.28,1.5.28,3.2,0,5.1-.22,1.52-.63,3.41-1.22,5.66-.6,2.26-1.29,4.64-2.09,7.14-.8,2.52-1.66,5.04-2.58,7.57-.92,2.55-1.8,4.85-2.63,6.91-1.22,2.99-2.32,5.64-3.31,7.95-.99,2.32-1.94,4.32-2.85,6-.91,1.68-1.83,3.07-2.74,4.17-.91,1.09-1.93,1.94-3.03,2.54-1.1.6-2.34.98-3.7,1.13-1.36.15-2.92.15-4.67-.03-.59-.06-1.25-.18-1.99-.35-.73-.17-1.44-.37-2.13-.6-.69-.23-1.32-.47-1.89-.72s-1-.49-1.28-.72c-.13-.73-.26-1.62-.38-2.68-.12-1.05-.22-2.13-.31-3.25-.09-1.11-.16-2.19-.22-3.25-.06-1.05-.09-1.94-.09-2.66-.48.08-.86.25-1.14.49-.28.25-.48.67-.6,1.27-.04.19-.06.48-.07.88s0,.85,0,1.35c0,.5.02,1.03.04,1.59.02.56.05,1.1.1,1.6Z"/>
        <path class="cls-9" d="m272.44,405.3c-.33.75-.68,1.56-1.05,2.42s-.85,1.74-1.42,2.61c-1.11.41-2.57.7-4.39.9-1.8.19-3.87.17-6.19-.05s-4.42-.65-6.45-1.28c-2.02-.62-3.8-1.49-5.36-2.61-.8-2.22-1.55-4.63-2.23-7.24-.68-2.57-1.24-5.49-1.7-8.74s-.79-6.79-1.02-10.75c-.22-3.89-.3-8.3-.24-13.21-.56-1.29-.97-2.89-1.23-4.78-.26-1.87-.23-3.94.1-6.22.27-1.94.73-3.88,1.38-5.82.64-1.93,1.49-3.73,2.56-5.41l9.78-.45c2.16-.1,3.87.14,5.12.71,1.26.58,2.21,1.42,2.84,2.52.63,1.11.99,2.44,1.08,4,.09,1.57.04,3.28-.14,5.14-.13,1.31-.27,2.56-.42,3.75-.15,1.19-.31,2.46-.49,3.8-.18,1.35-.36,2.81-.55,4.4-.19,1.6-.39,3.45-.6,5.54-.09.92-.17,1.77-.24,2.57-.07.8-.08,1.51-.03,2.12.05.61.17,1.09.38,1.44.21.35.53.54.96.55h.39c.14.02.29-.02.45-.09.02-.82.07-1.76.16-2.84.09-1.07.19-2.21.3-3.41.15-1.59.33-3.22.54-4.87s.43-3.53.68-5.66c.25-2.11.53-4.53.85-7.27.32-2.71.65-5.91,1-9.59,1.68-1.4,3.38-2.41,5.12-3.05,1.75-.64,3.52-1,5.33-1.08,3.08-.14,5.59.47,7.53,1.85,1.96,1.4,3.28,3.44,3.94,6.13-.04.81-.14,1.92-.28,3.34-.14,1.43-.32,3.03-.53,4.81-.21,1.79-.47,3.71-.78,5.77s-.65,4.15-1.02,6.25c-.37,2.11-.77,4.15-1.2,6.12-.43,1.98-.88,3.76-1.35,5.33.23.18.45.3.69.35.23.05.43.08.6.09.51.02.91-.3,1.2-.96.29-.66.6-1.54.94-2.64.42-1.48.83-3.26,1.22-5.34.39-2.06.76-4.23,1.09-6.49.33-2.25.64-4.52.92-6.81.28-2.28.53-4.4.76-6.37.23-1.95.41-3.67.55-5.16.14-1.48.24-2.58.31-3.3,1.29-1.15,2.97-2.1,5.06-2.85,2.1-.76,4.33-1.19,6.68-1.3,2.03-.09,3.87.15,5.53.73,1.67.59,3.12,1.47,4.34,2.64,1.23,1.19,2.19,2.64,2.87,4.37.68,1.75,1.03,3.74,1.03,5.97,0,1.79-.18,4-.55,6.65-.37,2.67-.86,5.47-1.47,8.42-.61,2.98-1.3,5.96-2.07,8.96-.78,3.02-1.54,5.76-2.28,8.21-1.1,3.56-2.11,6.72-3.03,9.47-.92,2.77-1.85,5.16-2.79,7.16-.94,2.01-1.94,3.67-3,4.97-1.06,1.3-2.3,2.31-3.73,3.01-1.42.7-3.06,1.13-4.93,1.3-1.86.16-4.03.12-6.49-.12-.83-.08-1.77-.24-2.82-.46-1.04-.22-2.06-.48-3.05-.76-.99-.29-1.9-.59-2.74-.91s-1.47-.61-1.9-.89c-.32-.88-.66-1.95-1.02-3.21-.36-1.26-.7-2.55-1.03-3.88-.33-1.32-.63-2.61-.9-3.87-.27-1.25-.48-2.3-.61-3.16-.64.09-1.13.28-1.46.57-.34.29-.53.79-.59,1.49-.02.22,0,.57.07,1.04s.14,1.01.25,1.6c.1.59.22,1.22.35,1.89.13.67.28,1.31.43,1.91Z"/>
      </g>
      <g>
        <g>
          <path class="cls-4" d="m155.2,189.6c-.65-1.41-1.28-2.91-1.87-4.47-.61-1.59-1.17-3.15-1.68-4.62-.47-1.35-.87-2.6-1.19-3.7.28.73.58,1.49.89,2.27,1.27,3.19,2.65,6.48,4.11,9.79,1.46,3.34,2.97,6.58,4.47,9.65,1.54,3.15,3,5.85,4.33,8.02l.75,1.23,1.34.52c1.73.67,4.07,1.3,7.15,1.92,2.89.59,6.05,1.13,9.4,1.6,3.34.47,6.78.85,10.24,1.15,3.51.3,6.68.45,9.41.45,7.97,0,15.01-.42,20.94-1.25,6.14-.86,11.59-2.37,16.19-4.49,4.73-2.17,8.88-5.13,12.35-8.79,3.34-3.53,6.49-7.97,9.35-13.22,2.78-5.08,5.55-11.2,8.26-18.19,2.64-6.83,5.61-14.84,8.84-23.84,2.2-6.26,4.49-13.37,6.79-21.16,2.31-7.82,4.42-15.76,6.27-23.6.22-.91.41-1.82.62-2.72.79,2.36,1.8,4.52,3.02,6.4.92,1.43,1.94,2.73,3.02,3.87-.84.44-1.68.92-2.51,1.46l-1.94,1.26v67.11c0,6.89,1.08,12.79,3.21,17.54,2.14,4.77,4.92,8.66,8.26,11.58,3.33,2.91,7.08,5.02,11.13,6.25,3.88,1.18,7.67,1.78,11.26,1.78,4.54,0,8.82-.64,12.72-1.9,4.07-1.32,7.64-3.39,10.62-6.17,2.99-2.79,5.33-6.37,6.95-10.61.04-.1.07-.21.11-.31.22.4.44.81.69,1.2,2.75,4.39,6.63,8.07,11.53,10.93,4.7,2.75,10.38,4.83,16.88,6.18,6.34,1.32,13.39,1.98,20.95,1.98,8.24,0,15.84-.9,22.61-2.68,6.94-1.83,13-4.62,17.99-8.32,5.12-3.79,9.13-8.62,11.92-14.38,1.54-3.19,2.65-6.71,3.33-10.49,1.13,3.24,2.45,6.26,3.97,9,2.5,4.52,5.5,8.46,8.92,11.7,3.39,3.21,7.09,5.88,11.01,7.95,3.91,2.07,8.06,3.59,12.34,4.53,4.21.93,8.47,1.4,12.68,1.4,2.94,0,5.99-.33,9.07-.99,3.22-.69,6.03-1.73,8.34-3.08l1.96-1.15c.72.5,1.47.97,2.24,1.4,2.36,1.32,4.91,2.3,7.59,2.92,2.6.6,5.29.91,7.99.91,3.85,0,7.67-.65,11.36-1.93,3.8-1.32,7.23-3.38,10.21-6.13,2.98-2.75,5.42-6.27,7.24-10.45,1.32-3.01,2.16-6.45,2.53-10.23,2.83,5.53,6.35,10.36,10.51,14.38,5.44,5.26,11.93,9.24,19.29,11.82,7.23,2.54,15.07,3.83,23.29,3.83,9.19,0,17.58-1.44,24.95-4.27,7.46-2.87,13.88-7.05,19.08-12.43,5.18-5.36,9.19-11.93,11.91-19.51,1.63-4.54,2.76-9.46,3.41-14.68v23.62c0,4.45.96,8.4,2.85,11.72,1.82,3.21,4.23,5.92,7.17,8.06,2.86,2.09,6.12,3.65,9.69,4.65,3.45.96,6.97,1.45,10.46,1.45,6.48,0,12.38-1.02,17.55-3.03,5.24-2.04,9.6-4.85,12.94-8.35l.18-.19c1.23,1.86,2.64,3.48,4.23,4.85,2.93,2.54,6.35,4.35,10.15,5.38,3.54.96,7.3,1.44,11.18,1.44,5.36,0,10.73-1.04,15.96-3.08,5.32-2.08,9.88-5.12,13.56-9.02l.07-.08c1.15,1.57,2.42,2.98,3.82,4.22,3.22,2.87,6.99,4.95,11.2,6.19,4,1.17,8.24,1.77,12.61,1.77s8.37-.71,12.22-2.1c3.94-1.43,7.44-3.61,10.39-6.48,2.93-2.85,5.29-6.4,6.99-10.55,1.7-4.12,2.57-8.88,2.57-14.13v-1.5c0-.76-.04-1.51-.13-2.21l-.25-2.02-1.73-1.07c-1.91-1.18-3.18-2.82-3.86-4.99-.86-2.73-1.3-6.2-1.3-10.33,0-3.14.07-6.48.2-9.91.13-3.58.2-6.92.2-9.93,0-6.86-.91-13.15-2.7-18.7-1.84-5.68-4.57-10.62-8.13-14.66-3.61-4.1-8.11-7.28-13.39-9.45-5.18-2.13-11.18-3.21-17.82-3.21-2.86,0-5.79.3-8.71.88-2.95.59-5.81,1.49-8.5,2.67-2.73,1.2-5.32,2.73-7.71,4.56-1,.77-1.96,1.59-2.86,2.46-.33-.33-.66-.66-1.01-.99-1.84-1.72-4.06-3.32-6.62-4.75-2.54-1.42-5.42-2.59-8.54-3.47-3.19-.9-6.68-1.36-10.38-1.36-4.67,0-8.98.52-12.81,1.54-3.83,1.02-7.31,2.42-10.34,4.16-1.9,1.09-3.66,2.31-5.27,3.63l-.71-.74c-1.78-1.86-3.84-3.41-6.13-4.61-2.5-1.32-5.53-1.98-9.01-1.98h-26.3l-1.26,1.89c-2.26,3.39-3.95,7.29-5.02,11.6-1.04,4.18-1.57,8.08-1.57,11.6,0,1.49.07,2.97.2,4.42-2.68-5.71-6.11-10.8-10.26-15.18-5.27-5.56-11.68-9.93-19.04-13.01-7.34-3.06-15.54-4.61-24.37-4.61s-16.96,1.44-24.27,4.28c-7.38,2.87-13.82,7.05-19.13,12.44-5.31,5.38-9.48,11.96-12.41,19.55-2.73,7.08-4.17,15.03-4.34,23.65v-59.45c0-4.74-.8-9.03-2.38-12.77-1.6-3.77-3.86-7.02-6.72-9.65-2.85-2.62-6.26-4.61-10.13-5.93-3.75-1.27-7.83-1.92-12.13-1.92-3.82,0-7.31.35-10.37,1.05-3.07.7-5.9,1.69-8.41,2.92-2.53,1.24-4.85,2.76-6.91,4.52-1.96,1.67-3.8,3.51-5.46,5.46l-1.77,2.08,1.15,2.47c.34.74.65,1.67.92,2.75.3,1.25.57,2.55.78,3.86.21,1.3.36,2.64.45,3.99.09,1.39.14,2.69.14,3.85v.25c-7.1.17-13.85,1.48-20.07,3.91-6.75,2.64-12.69,6.54-17.64,11.6-4.94,5.05-8.86,11.31-11.65,18.6-2.43,6.36-3.81,13.58-4.11,21.47-.96-1.72-2.03-3.32-3.23-4.79-2.13-2.62-4.62-4.93-7.42-6.87,2.12-2.09,3.97-4.91,5.48-8.39,1.56-3.58,2.35-8.01,2.35-13.16,0-2.16-.16-4.53-.48-7.02-.36-2.8-.96-5.04-1.82-6.87l-.57-1.2-1.15-.66c-2.36-1.36-5.15-2.67-8.29-3.91-3.12-1.23-6.55-2.31-10.2-3.21-3.64-.9-7.58-1.62-11.71-2.13-4.14-.52-8.51-.78-12.99-.78-9.18,0-17.34,1.14-24.25,3.4-7,2.29-12.93,5.43-17.65,9.34-4.8,3.99-8.45,8.72-10.83,14.05-2.36,5.28-3.56,10.91-3.56,16.74,0,7.05,1.5,13.2,4.47,18.29,1.54,2.65,3.38,5.06,5.49,7.23-1.08.78-2.15,1.78-3.16,2.98-1.15,1.35-2.17,2.93-3.05,4.69-.53,1.06-.99,2.19-1.4,3.37-.74-.91-1.31-1.99-1.69-3.25-.87-2.87-1.31-6.43-1.31-10.58v-40.77l-.72-1.07c-.33-.5-.78-.99-1.54-1.7-.49-.46-1.02-.93-1.59-1.43-.63-.55-1.24-1.04-1.83-1.46-.49-.35-.84-.59-1.06-.74.87-.83,1.7-1.71,2.47-2.65,2.2-2.66,3.99-5.72,5.32-9.08,1.35-3.44,2.04-7.2,2.04-11.18,0-4.59-.83-8.94-2.46-12.93-1.64-4-3.95-7.5-6.86-10.42-2.9-2.9-6.35-5.21-10.26-6.88-3.94-1.68-8.27-2.53-12.88-2.53s-8.81.81-12.76,2.4c-3.95,1.59-7.45,3.85-10.43,6.71-1.13,1.09-2.18,2.26-3.13,3.52.37-3.59.56-6.84.56-9.71,0-6.77-1.22-13-3.63-18.52-2.42-5.55-5.92-10.37-10.39-14.33-4.42-3.91-9.74-6.98-15.82-9.11-6.01-2.11-12.78-3.17-20.12-3.17-8.39,0-16.49,1.07-24.08,3.17-7.74,2.15-14.08,5.09-18.86,8.74l-1.56,1.19s-.39,7.46-.62,11.88c-.23,4.38-.57,9.48-1.03,15.15-.46,5.7-.98,11.9-1.55,18.42-.57,6.49-1.23,12.95-1.97,19.19-.74,6.22-1.6,12.21-2.55,17.8-.94,5.49-1.98,10.23-3.08,14.09-.03.09-.06.18-.08.27.28-1.27.56-2.58.83-3.92,1.11-5.48,2.11-11.25,2.97-17.13.86-5.87,1.65-11.83,2.34-17.72.69-5.86,1.25-11.49,1.65-16.73.4-5.2.72-9.96.95-14.16.24-4.34.35-7.66.35-10.15v-.73l-.24-.69c-3.2-9.08-9.03-16.24-17.33-21.28-8.12-4.93-18.5-7.43-30.84-7.43-7.24,0-14.4.95-21.3,2.82-7,1.9-13.83,5.16-20.29,9.67l-1.82,1.27v2.22c0,11.47-.12,21.5-.34,29.81-.19,6.98-.6,21.99-.6,21.99-.17,6.35-.35,11.96-.52,16.7-.17,4.84-.26,9.65-.26,14.3,0,3.61.03,6.83.09,9.82.01.77.03,1.52.06,2.25-.04-.14-.08-.29-.12-.45-.34-1.43-.53-3.17-.58-5.17-.06-2.2-.08-4.66-.08-7.31,0-6.07.06-11.49.17-16.11.11-4.62.26-9.01.43-13.03.17-3.86.31-7.74.43-11.52.12-3.69.18-7.6.18-11.6,0-5.99-.52-11.66-1.55-16.87-1.11-5.62-3.42-10.58-6.84-14.73-3.45-4.18-8.28-7.48-14.35-9.8-5.95-2.28-13.5-3.39-23.08-3.39H18.84l-1.26,1.89c-3.93,5.89-6.79,12.34-8.52,19.17-1.69,6.7-2.54,13.46-2.54,20.1,0,7.84,1.22,15.07,3.63,21.5,2.22,5.93,4.91,11.05,7.98,15.24,2.49,14.71,5.28,27.89,8.28,39.2,3.07,11.58,6.39,22.06,9.89,31.14,3.51,9.13,7.28,17.29,11.22,24.28,3.91,6.95,7.97,13.38,12.06,19.1l.72,1.01,1.16.46c6.6,2.64,13.98,4.56,21.94,5.7,7.82,1.11,16,1.68,24.32,1.68s15.96-.48,22.36-1.43c6.54-.97,11.64-2.1,15.59-3.46l1.24-.43.78-1.04c1.89-2.53,3.44-5.08,4.6-7.58,1.03-2.23,2-4.32,2.92-6.27l.85-1.8-.83-1.8Zm538.62-46.27c-.13-1.01-.28-2.02-.45-3.02.15.25.29.51.45.76v2.26Zm-118.19,24.32c-.86-2.87-1.3-6.42-1.3-10.55v-2.99c.08,4.77.52,9.3,1.3,13.54Z"/>
          <path class="cls-4" d="m940.32,336.42c-.32-1.83-.76-3.71-1.3-5.57-.54-1.86-1.19-3.74-1.94-5.6-.77-1.91-1.65-3.71-2.62-5.35l-1.23-2.09h-16.92c2.83-2.18,5.54-4.52,8.09-7,3.87-3.77,7.45-7.89,10.64-12.25l.39-.54.21-.63c.37-1.1.74-2.41,1.09-3.87.36-1.46.66-2.98.91-4.51.24-1.49.45-3.01.63-4.54.18-1.62.28-3.12.28-4.47,0-3.65-.24-7.01-.7-9.98-.46-2.94-1.04-5.58-1.73-7.85-.71-2.34-1.51-4.38-2.4-6.08-.86-1.65-1.66-2.98-2.45-4.08l-1.27-1.78h-86.1l-1.22,1.14c-2.3,2.14-4.32,5.16-6.16,9.24-1.84,4.06-2.77,8.98-2.77,14.61,0,3.73.5,7.55,1.48,11.34,1,3.84,2.68,7.74,5.01,11.6l1.24,2.05h9.89c-2.22,1.89-4.45,3.85-6.66,5.85-2.94,2.67-5.82,5.55-8.56,8.56l-.69.76-.27.99c-.21.77-.47,1.81-.78,3.13-.32,1.36-.62,2.87-.9,4.51-.13.79-.26,1.59-.38,2.41-.52-.77-.93-1.64-1.23-2.63-.87-2.87-1.31-6.43-1.31-10.58v-70.08c0-3.77-.62-7.27-1.83-10.41-1.28-3.3-3.31-6.17-6.02-8.51-2.63-2.27-5.97-4.04-9.94-5.28-3.82-1.19-8.39-1.79-13.57-1.79-3.18,0-6.23.28-9.08.82-2.78.53-5.31,1.19-7.51,1.95-2.19.75-4.12,1.55-5.75,2.36-1.58.79-2.72,1.4-3.48,1.85l-2.06,1.24v55.31c-.38-1.04-.78-2.08-1.23-3.1-2.69-6.03-6.58-11.37-11.55-15.88-4.94-4.47-10.96-8.02-17.89-10.56-6.89-2.52-14.69-3.8-23.19-3.8-8.03,0-15.79,1.33-23.07,3.94-7.37,2.65-13.92,6.64-19.47,11.87-5.56,5.24-10.02,11.8-13.26,19.49-.54,1.27-1.01,2.6-1.46,3.94-.68-3.1-1.65-6.11-2.94-9-2.69-6.03-6.58-11.37-11.55-15.88-4.94-4.47-10.96-8.02-17.89-10.56-6.89-2.52-14.69-3.8-23.19-3.8-8.03,0-15.79,1.33-23.07,3.94-7.37,2.65-13.92,6.64-19.47,11.87-5.56,5.24-10.02,11.8-13.26,19.49-2.6,6.18-4.15,13.17-4.67,20.83.08-3.09.13-6.05.13-8.81,0-5.86-.74-11.13-2.2-15.66-1.47-4.55-3.48-8.55-5.97-11.9-2.49-3.35-5.4-6.17-8.63-8.39-3.12-2.14-6.44-3.89-9.86-5.2-3.39-1.3-6.83-2.22-10.21-2.73-3.29-.49-6.4-.75-9.26-.75-1.98,0-3.89.08-5.72.23v-9.23c0-4.32-1.01-8.11-2.99-11.28-1.91-3.04-4.45-5.55-7.57-7.45-2.95-1.8-6.33-3.13-10.07-3.96-3.58-.8-7.29-1.2-11.04-1.2-5.07,0-10.1.67-14.93,2-4.83,1.33-8.98,3-12.34,4.97l-2.1,1.23v29.52c-.11-.27-.21-.55-.33-.82-2.31-5.34-5.62-9.96-9.85-13.74-4.2-3.75-9.3-6.66-15.16-8.65-5.76-1.96-12.23-2.95-19.22-2.95-10.26,0-18.71,1.01-25.09,2.99-6.37,1.98-11.66,4.38-15.72,7.12l-1.77,1.19-.1,2.13c-.3,6.26-.75,13.24-1.35,20.74-.17,2.14-.36,4.32-.56,6.54.24-2.8.43-5.45.57-7.94v-.26s0-.26,0-.26c-.36-5.36-2.19-9.97-5.42-13.69-3.01-3.47-6.85-6.3-11.42-8.41-4.37-2.02-9.27-3.48-14.57-4.35-5.15-.84-10.37-1.27-15.51-1.27-6.68,0-13.26.81-19.57,2.4-6.38,1.61-11.99,3.86-16.67,6.69l-1.71,1.04-.29,1.98c-.73,4.94-1.41,10.98-2.02,17.98-.23-5.27-1.51-10.04-3.83-14.21-2.54-4.56-6.18-8.44-10.81-11.53-4.49-2.99-9.91-5.26-16.13-6.73-6.04-1.43-12.84-2.16-20.2-2.16-10.27,0-19.74,2.02-28.15,6.01-8.51,4.04-15.34,9.71-20.28,16.85l-.9,1.3.17,1.57c2.12,20.01,4.97,38.85,8.46,56,3.49,17.14,7.31,33,11.35,47.15,4.05,14.17,8.26,26.96,12.53,38.04,4.26,11.05,8.32,20.67,12.08,28.59l.34.71.56.54c2.8,2.68,6.2,4.86,10.1,6.46,3.65,1.5,7.63,2.72,11.85,3.63,4.17.9,8.52,1.51,12.92,1.82,4.31.31,8.54.47,12.56.47,9.89,0,18.83-1.01,26.56-3.01,7.97-2.06,15.16-5.64,21.35-10.64l2.38-1.92-1.07-2.87c-1.27-3.4-2.35-6.66-3.23-9.69l-.02-.07c.41,1.11.84,2.23,1.29,3.35,1.09,2.76,2.25,5.42,3.45,7.91,1.23,2.58,2.47,4.83,3.67,6.68l.58.9.94.52c2.23,1.23,4.98,2.4,8.17,3.48,3.09,1.05,6.45,1.98,9.97,2.77,3.49.78,7.08,1.41,10.67,1.88,3.64.48,7.11.72,10.31.72,7.16,0,13.84-.53,19.87-1.58,6.17-1.07,11.84-2.85,16.86-5.28,5.12-2.48,9.67-5.74,13.53-9.72,3.86-3.97,7.14-8.91,9.76-14.69,1.37-3.06,2.88-7.18,4.49-12.26,1.57-4.97,3.24-10.61,4.96-16.78,1.72-6.17,3.46-12.88,5.18-19.96,1.72-7.07,3.4-14.27,5.01-21.4,1.61-7.13,3.14-14.18,4.55-20.95,1.41-6.77,2.64-13.1,3.66-18.81.09-.52.18-1.03.27-1.54v49.24c0,4.36,1.01,8.24,3.01,11.53,1.89,3.12,4.35,5.75,7.31,7.84,2.88,2.04,6.14,3.57,9.69,4.56,3.45.96,6.91,1.45,10.27,1.45,6.48,0,12.38-1.02,17.55-3.03,5.24-2.04,9.6-4.85,12.94-8.35l.14-.14c.97,1.24,2.02,2.38,3.16,3.4,3.21,2.91,6.98,5.02,11.19,6.3,4,1.21,8.26,1.83,12.65,1.83s8.36-.71,12.18-2.1c3.91-1.43,7.38-3.61,10.33-6.48,2.94-2.86,5.28-6.42,6.96-10.58,1.21-3.01,1.99-6.36,2.32-9.99,2.78,5.3,6.29,9.98,10.5,13.97,5.62,5.34,12.49,9.47,20.39,12.29,7.8,2.78,16.6,4.18,26.15,4.18,6.38,0,12.03-.41,16.8-1.21,4.77-.8,9.06-1.87,12.73-3.18,3.75-1.33,7.06-2.92,9.85-4.72,2.66-1.71,5.16-3.55,7.42-5.46l1.02-.86.34-1.3c.32-1.2.57-2.54.76-4.12.19-1.53.28-3.16.28-4.85s-.13-3.57-.38-5.57c-.26-2.01-.65-3.99-1.16-5.9-.52-1.93-1.15-3.72-1.86-5.35-.86-1.93-1.94-3.49-3.22-4.62,2.52-2.37,4.64-5.13,6.34-8.24.54,6.97,1.97,13.44,4.29,19.29,3.04,7.66,7.44,14.25,13.09,19.61,5.62,5.34,12.49,9.47,20.39,12.29,7.8,2.78,16.6,4.18,26.15,4.18,6.38,0,12.03-.41,16.8-1.21,4.77-.8,9.06-1.87,12.73-3.18,3.75-1.33,7.06-2.92,9.85-4.72,2.66-1.71,5.16-3.55,7.42-5.46l1.02-.86.34-1.3c.32-1.2.57-2.54.76-4.12.19-1.53.28-3.16.28-4.85s-.13-3.57-.38-5.57c-.26-2.01-.65-3.99-1.16-5.9-.52-1.93-1.15-3.72-1.86-5.35-.86-1.93-1.94-3.49-3.22-4.62,2.88-2.71,5.23-5.92,7.03-9.57.27-.54.52-1.1.75-1.67v18.93c0,6.89.95,12.81,2.84,17.6,1.91,4.88,4.52,8.92,7.75,11.99,3.26,3.1,7.08,5.35,11.35,6.67,4.05,1.25,8.29,1.88,12.62,1.88,9.83,0,17.7-2.86,23.38-8.51,2.31-2.29,4.15-5.04,5.53-8.2,1.62,5.39,4.2,9.97,7.69,13.6l1.26,1.31h72.89c2.84,0,5.67-.39,8.41-1.15,3.01-.84,5.73-2.32,8.08-4.42,2.33-2.08,4.22-4.84,5.63-8.22,1.37-3.3,2.07-7.37,2.07-12.1,0-1.64-.17-3.44-.51-5.37Zm-599.84-49.8c-.95,8.29-2.09,17.01-3.39,25.89-.95,6.47-2.01,13.05-3.17,19.6.33-2.18.66-4.39.99-6.62,1.21-7.99,2.35-15.87,3.41-23.42,1.05-7.52,2-14.86,2.81-21.81.24-2.06.46-4.07.66-6.01-.39,4.03-.83,8.16-1.32,12.38Zm203.5,27.46c0-.89,0-1.8.01-2.72.13,4.72.64,9.23,1.55,13.49-.11-.24-.2-.5-.29-.76-.85-2.54-1.28-5.91-1.28-10.02Z"/>
        </g>
        <g>
          <path class="cls-3" d="m151.34,191.38c-.92,1.96-1.9,4.05-2.93,6.3-1.03,2.24-2.41,4.51-4.14,6.81-3.68,1.27-8.62,2.36-14.83,3.28-6.21.92-13.45,1.38-21.73,1.38s-16.07-.55-23.72-1.64c-7.65-1.09-14.63-2.9-20.96-5.43-4.03-5.63-7.96-11.87-11.82-18.71-3.85-6.84-7.5-14.75-10.95-23.72-3.45-8.97-6.7-19.2-9.75-30.7-3.05-11.5-5.84-24.78-8.37-39.84-3.1-4.02-5.78-9.03-8.02-15.01-2.24-5.98-3.36-12.65-3.36-20.01,0-6.32.81-12.68,2.41-19.06,1.61-6.38,4.25-12.33,7.93-17.85h41.74c8.97,0,16.15,1.03,21.56,3.1,5.4,2.07,9.6,4.92,12.59,8.54,2.99,3.62,4.97,7.91,5.95,12.85.98,4.95,1.47,10.29,1.47,16.04,0,4.03-.06,7.85-.17,11.47-.12,3.62-.26,7.45-.43,11.47-.17,4.03-.32,8.4-.43,13.11-.12,4.72-.17,10.12-.17,16.21,0,2.65.03,5.12.09,7.42.06,2.3.29,4.31.69,6.04.4,1.72,1.06,3.08,1.98,4.05.92.98,2.18,1.47,3.79,1.47h1.47c.52,0,1.06-.11,1.64-.34-.23-2.3-.38-4.97-.43-8.02-.06-3.05-.09-6.3-.09-9.75,0-4.6.09-9.31.26-14.14.17-4.83.34-10.41.52-16.73.17-6.32.37-13.65.6-21.99.23-8.34.34-18.31.34-29.93,6.09-4.25,12.42-7.27,18.97-9.06,6.55-1.78,13.28-2.67,20.18-2.67,11.61,0,21.16,2.27,28.63,6.81,7.47,4.54,12.65,10.9,15.52,19.06,0,2.41-.12,5.72-.34,9.92-.23,4.2-.55,8.88-.95,14.06-.4,5.17-.95,10.69-1.64,16.56-.69,5.86-1.47,11.73-2.33,17.59s-1.84,11.5-2.93,16.9c-1.09,5.41-2.27,10.24-3.54,14.49.8.46,1.61.75,2.41.86.8.12,1.49.17,2.07.17,1.72,0,3.02-.89,3.88-2.67.86-1.78,1.75-4.17,2.67-7.16,1.15-4.02,2.21-8.88,3.19-14.57.98-5.69,1.84-11.7,2.59-18.02.75-6.32,1.41-12.76,1.98-19.32.57-6.55,1.09-12.7,1.55-18.46.46-5.75.8-10.84,1.03-15.26.23-4.43.4-7.73.52-9.92,4.37-3.33,10.18-6.01,17.42-8.02,7.24-2.01,14.89-3.02,22.94-3.02,6.9,0,13.14.98,18.71,2.93,5.58,1.96,10.38,4.72,14.4,8.28,4.02,3.57,7.13,7.85,9.31,12.85,2.18,5,3.28,10.61,3.28,16.82,0,4.95-.58,11.01-1.72,18.2-1.15,7.19-2.65,14.69-4.48,22.51-1.84,7.82-3.91,15.61-6.21,23.37-2.3,7.76-4.54,14.75-6.73,20.96-3.22,8.97-6.15,16.88-8.8,23.72-2.65,6.84-5.32,12.74-8.02,17.68-2.7,4.95-5.61,9.06-8.71,12.33-3.1,3.28-6.79,5.89-11.04,7.85-4.26,1.96-9.26,3.33-15.01,4.14-5.75.8-12.54,1.21-20.35,1.21-2.65,0-5.66-.15-9.06-.43-3.39-.29-6.73-.66-10-1.12-3.28-.46-6.33-.98-9.14-1.55-2.82-.57-4.97-1.15-6.47-1.72-1.27-2.07-2.65-4.63-4.14-7.68-1.5-3.05-2.96-6.21-4.4-9.49-1.44-3.28-2.79-6.5-4.05-9.66-1.27-3.16-2.24-5.83-2.93-8.02-2.19.34-3.82.92-4.92,1.72-1.09.81-1.64,2.13-1.64,3.97,0,.58.17,1.47.52,2.67s.78,2.56,1.29,4.05c.52,1.5,1.09,3.08,1.72,4.74.63,1.67,1.29,3.25,1.98,4.74Z"/>
          <path class="cls-2" d="m298.03,111.45c1.33-.86,2.66-1.56,3.99-2.09,1.33-.53,2.76-1.2,4.29-1.99-1.26-.66-2.56-1.6-3.89-2.79-1.33-1.2-2.54-2.64-3.64-4.34s-1.99-3.64-2.69-5.83-1.05-4.65-1.05-7.38c0-4.25.75-8.12,2.24-11.61s3.54-6.48,6.13-8.97c2.59-2.49,5.61-4.44,9.07-5.83,3.46-1.4,7.18-2.09,11.17-2.09s7.79.73,11.21,2.19c3.42,1.46,6.4,3.46,8.92,5.98,2.52,2.53,4.5,5.53,5.93,9.02,1.43,3.49,2.14,7.26,2.14,11.31,0,3.46-.58,6.66-1.74,9.62-1.16,2.96-2.71,5.6-4.64,7.93-1.93,2.33-4.19,4.27-6.78,5.83-2.59,1.56-5.28,2.64-8.07,3.24,0,1,.22,1.88.65,2.64.43.77,1.18,1.15,2.24,1.15,3.32,0,6.78-1.33,10.37-3.99.2.13.53.37,1,.7.46.33.96.73,1.5,1.2.53.47,1.03.91,1.5,1.35.46.43.76.75.9.95v39.48c0,4.59.5,8.52,1.5,11.81,1,3.29,2.89,5.8,5.68,7.53.07.53.1,1.18.1,1.94v1.74c0,5.05-.7,9.4-2.09,13.06-1.4,3.66-3.36,6.66-5.88,9.02-2.53,2.36-5.53,4.1-9.02,5.23s-7.29,1.69-11.41,1.69c-3.19,0-6.53-.53-10.02-1.6-3.49-1.06-6.68-2.86-9.57-5.38-2.89-2.52-5.28-5.9-7.18-10.12-1.89-4.22-2.84-9.49-2.84-15.8v-64.8Z"/>
          <path class="cls-7" d="m418.95,128.8c-1.06,0-2.09.02-3.09.05-1,.03-1.88.17-2.64.4-.77.23-1.38.58-1.84,1.05s-.7,1.13-.7,1.99v.55c0,.23.03.42.1.55,1.13-.07,2.09-.1,2.89-.1h2.39c3.32,0,6.74.25,10.27.75,3.52.5,6.93,1.31,10.22,2.44,3.29,1.13,6.4,2.63,9.32,4.49,2.92,1.86,5.47,4.12,7.63,6.78,2.16,2.66,3.87,5.78,5.13,9.37,1.26,3.59,1.89,7.68,1.89,12.26,0,6.91-1.25,12.94-3.74,18.09-2.49,5.15-6.03,9.42-10.62,12.81-4.59,3.39-10.1,5.93-16.55,7.63-6.45,1.69-13.62,2.54-21.53,2.54-7.31,0-14.01-.63-20.09-1.89s-11.28-3.16-15.6-5.68c-4.32-2.52-7.68-5.7-10.07-9.52-2.39-3.82-3.59-8.32-3.59-13.51,0-1.93.23-3.77.7-5.53.46-1.76,1.06-3.37,1.79-4.83.73-1.46,1.56-2.74,2.49-3.84.93-1.1,1.86-1.94,2.79-2.54,1.6,1.33,3.67,2.68,6.23,4.04,2.56,1.36,5.48,2.58,8.77,3.64,3.29,1.06,6.86,1.93,10.72,2.59,3.85.67,7.94,1,12.26,1,1.99,0,3.27-.27,3.84-.8.56-.53.85-1.26.85-2.19,0-.53-.1-1.06-.3-1.6-.73.07-1.3.1-1.69.1h-1.1c-6.51,0-12.68-.66-18.49-1.99-5.82-1.33-10.92-3.44-15.3-6.33s-7.88-6.56-10.47-11.02c-2.59-4.45-3.89-9.84-3.89-16.15,0-5.25,1.06-10.25,3.19-15,2.13-4.75,5.35-8.92,9.67-12.51,4.32-3.59,9.74-6.45,16.25-8.57,6.51-2.13,14.16-3.19,22.93-3.19,4.32,0,8.47.25,12.46.75s7.73,1.18,11.21,2.04c3.49.86,6.71,1.88,9.67,3.04,2.96,1.16,5.53,2.38,7.73,3.64.66,1.4,1.15,3.26,1.45,5.58.3,2.33.45,4.49.45,6.48,0,4.59-.67,8.41-1.99,11.46-1.33,3.06-2.89,5.45-4.69,7.18-1.53-.86-3.29-1.68-5.28-2.44-1.99-.76-4.17-1.45-6.53-2.04-2.36-.6-4.85-1.08-7.48-1.45-2.63-.36-5.3-.55-8.02-.55Z"/>
          <path class="cls-8" d="m570.08,157.11c0,4.59.5,8.52,1.5,11.81,1,3.29,2.89,5.8,5.68,7.53.07.53.1,1.18.1,1.94v1.74c0,5.05-.8,9.4-2.39,13.06-1.6,3.66-3.67,6.66-6.23,9.02-2.56,2.36-5.47,4.1-8.72,5.23-3.26,1.13-6.58,1.69-9.97,1.69-2.39,0-4.74-.27-7.03-.8-2.29-.53-4.45-1.36-6.48-2.49-2.03-1.13-3.86-2.56-5.48-4.29-1.63-1.73-2.91-3.75-3.84-6.08-2.26,0-3.39,1.1-3.39,3.29,0,.93.38,2.04,1.15,3.34.76,1.3,1.81,2.48,3.14,3.54-1.93,1.13-4.29,1.99-7.08,2.59s-5.52.9-8.17.9c-3.92,0-7.84-.43-11.76-1.3-3.92-.86-7.68-2.24-11.26-4.14s-6.95-4.32-10.07-7.28c-3.12-2.96-5.83-6.51-8.12-10.67-2.29-4.15-4.1-8.92-5.43-14.31-1.33-5.38-1.99-11.5-1.99-18.34,0-8.71,1.3-16.45,3.89-23.23s6.16-12.49,10.72-17.15c4.55-4.65,9.93-8.19,16.15-10.62,6.21-2.42,12.91-3.64,20.09-3.64,5.05,0,9.47.5,13.26,1.5,3.79,1,7.01,2.16,9.67,3.49.33-.33.6-.71.8-1.15.2-.43.3-.81.3-1.15,0-1.06-.68-2.03-2.04-2.89-1.36-.86-3.09-1.61-5.18-2.24-2.09-.63-4.4-1.13-6.93-1.5-2.53-.36-4.92-.55-7.18-.55,0-1.26-.05-2.64-.15-4.14s-.27-2.96-.5-4.39c-.23-1.43-.52-2.82-.85-4.19-.33-1.36-.73-2.54-1.2-3.54,1.53-1.79,3.19-3.46,4.98-4.98,1.79-1.53,3.8-2.84,6.03-3.94,2.23-1.1,4.72-1.96,7.48-2.59,2.76-.63,5.9-.95,9.42-.95,3.85,0,7.44.57,10.77,1.69,3.32,1.13,6.2,2.81,8.62,5.03,2.42,2.23,4.32,4.95,5.68,8.17,1.36,3.22,2.04,6.93,2.04,11.12v65.79Zm-48.75-4.59c0-2.19.03-4.07.1-5.63.07-1.56.13-2.92.2-4.09.07-1.16.15-2.21.25-3.14.1-.93.22-1.93.35-2.99-.27-.27-.58-.5-.95-.7-.37-.2-.85-.3-1.45-.3-.67,0-1.25.2-1.74.6s-.91,1.26-1.25,2.59c-.33,1.33-.55,3.02-.65,5.08-.1,2.06-.15,4.59-.15,7.58v10.17c0,1.73.22,2.97.65,3.74.43.77,1.28,1.15,2.54,1.15.93,0,1.63-.23,2.09-.7v-13.36Z"/>
          <path class="cls-3" d="m634.48,210.44c-7.78,0-15.07-1.2-21.88-3.59-6.81-2.39-12.73-6.01-17.74-10.87-5.02-4.85-8.99-10.9-11.91-18.14-2.93-7.24-4.39-15.72-4.39-25.42,0-8.77,1.36-16.7,4.09-23.78,2.72-7.08,6.55-13.11,11.46-18.09,4.92-4.98,10.8-8.8,17.64-11.46,6.84-2.66,14.42-3.99,22.73-3.99s15.88,1.43,22.73,4.29c6.84,2.86,12.71,6.86,17.59,12.01,4.88,5.15,8.67,11.3,11.36,18.44,2.69,7.15,4.04,14.97,4.04,23.48s-1.26,16.68-3.79,23.73c-2.53,7.05-6.18,13.04-10.97,17.99-4.79,4.95-10.63,8.76-17.55,11.41-6.91,2.66-14.72,3.99-23.43,3.99Zm-2.29-41.17c.46.47,1.16.7,2.09.7,1.26,0,2.11-.38,2.54-1.15.43-.76.65-2.01.65-3.74v-14.26c0-2.99-.05-5.52-.15-7.58-.1-2.06-.32-3.75-.65-5.08-.33-1.33-.75-2.19-1.25-2.59s-1.08-.6-1.74-.6c-.6,0-1.08.1-1.45.3-.37.2-.68.43-.95.7.07,1.06.17,2.06.3,2.99.13.93.23,1.98.3,3.14.07,1.16.13,2.53.2,4.09.07,1.56.1,3.44.1,5.63v17.45Z"/>
          <path class="cls-2" d="m722.1,98.39c2.79,0,5.13.5,7.03,1.5s3.57,2.26,5.03,3.79c-2.93,2.73-4.39,4.98-4.39,6.78,0,.8.27,1.51.8,2.14.53.63,1.43.95,2.69.95,1.33-2.33,2.99-4.52,4.98-6.58,1.99-2.06,4.35-3.87,7.08-5.43,2.72-1.56,5.83-2.81,9.32-3.74,3.49-.93,7.39-1.4,11.71-1.4,3.32,0,6.4.4,9.22,1.2,2.82.8,5.37,1.83,7.63,3.09,2.26,1.26,4.19,2.64,5.78,4.14s2.86,2.97,3.79,4.44c1.6-2.13,3.46-4,5.58-5.63,2.13-1.63,4.4-2.97,6.83-4.04,2.42-1.06,4.97-1.86,7.63-2.39,2.66-.53,5.28-.8,7.88-.8,6.11,0,11.51.96,16.2,2.89,4.69,1.93,8.62,4.7,11.81,8.32,3.19,3.62,5.61,8.01,7.28,13.16,1.66,5.15,2.49,10.95,2.49,17.4,0,2.99-.07,6.25-.2,9.77-.13,3.52-.2,6.88-.2,10.07,0,4.59.5,8.46,1.5,11.61,1,3.16,2.89,5.6,5.68,7.33.07.53.1,1.1.1,1.69v1.5c0,4.72-.75,8.89-2.24,12.51-1.5,3.62-3.51,6.66-6.03,9.12-2.53,2.46-5.48,4.3-8.87,5.53s-6.98,1.84-10.77,1.84c-3.99,0-7.79-.53-11.41-1.6-3.62-1.06-6.81-2.82-9.57-5.28-2.76-2.46-4.95-5.68-6.58-9.67-1.63-3.99-2.44-8.9-2.44-14.75v-31.5c0-4.45-1.46-6.68-4.39-6.68-.47,0-.96.08-1.5.25-.53.17-.93.35-1.2.55l1.79,14.85v22.53c0,4.32.33,8.19,1,11.61.66,3.42,1.83,6.4,3.49,8.92-3.26,3.46-7.26,6.12-12.01,7.98-4.75,1.86-9.55,2.79-14.4,2.79-3.52,0-6.88-.43-10.07-1.3s-6.02-2.36-8.47-4.49c-2.46-2.13-4.4-4.98-5.83-8.57-1.43-3.59-2.14-8.07-2.14-13.46v-34.99c0-4.45-1.46-6.68-4.39-6.68-.47,0-.96.08-1.5.25-.53.17-.93.35-1.2.55l1.79,14.85v26.42c0,3.59.18,6.73.55,9.42.36,2.69,1.18,5.3,2.44,7.83-2.93,3.06-6.73,5.5-11.41,7.33s-10.02,2.74-16,2.74c-3.12,0-6.23-.43-9.32-1.3-3.09-.86-5.87-2.19-8.32-3.99-2.46-1.79-4.45-4.04-5.98-6.73-1.53-2.69-2.29-5.9-2.29-9.62v-47.65c-1.99-2.79-3.47-5.95-4.44-9.47-.96-3.52-1.45-7.21-1.45-11.07,0-3.19.48-6.71,1.45-10.57.96-3.85,2.44-7.28,4.44-10.27h24.02Z"/>
          <path class="cls-8" d="m159.73,253.97c4.54-6.56,10.74-11.7,18.61-15.43,7.87-3.73,16.64-5.6,26.33-5.6,7.06,0,13.47.68,19.22,2.04s10.67,3.4,14.75,6.13c4.09,2.72,7.24,6.08,9.46,10.06,2.22,3.99,3.33,8.6,3.33,13.84-.51,5.95-.91,12.33-1.21,19.14-.3,6.81-.58,13.54-.83,20.2-.25,6.66-.43,13.01-.53,19.06-.1,6.05-.15,11.25-.15,15.58,0,2.72.28,5.17.83,7.34.55,2.17,1.99,3.25,4.31,3.25.81,0,1.82-.15,3.03-.45-.1-1.41-.15-2.92-.15-4.54v-5.3c0-6.45.1-13.92.3-22.39.2-8.47.53-17.05.98-25.72.45-8.67,1.01-17.02,1.66-25.04.65-8.02,1.39-14.75,2.19-20.2,4.34-2.62,9.51-4.69,15.51-6.2,6-1.51,12.18-2.27,18.53-2.27,4.94,0,9.88.4,14.83,1.21,4.94.81,9.43,2.14,13.47,4.01,4.03,1.87,7.36,4.31,9.99,7.34,2.62,3.03,4.09,6.76,4.39,11.2-.3,5.45-.86,11.63-1.66,18.53-.81,6.91-1.74,14.15-2.8,21.71-1.06,7.57-2.19,15.36-3.4,23.38-1.21,8.02-2.37,15.86-3.48,23.53.91.4,1.86.61,2.87.61,1.41,0,2.67-.48,3.78-1.44,1.11-.96,2.07-3.4,2.87-7.34,1.71-9.08,3.23-18.1,4.54-27.08,1.31-8.98,2.44-17.65,3.4-26.02.96-8.37,1.74-16.34,2.35-23.91s1.06-14.53,1.36-20.88c3.73-2.52,8.6-4.71,14.6-6.58,6-1.86,13.94-2.8,23.83-2.8,6.56,0,12.51.91,17.85,2.72,5.34,1.82,9.91,4.41,13.69,7.79,3.78,3.38,6.71,7.47,8.78,12.26,2.07,4.79,3.1,10.11,3.1,15.96,0,1.92-.3,4.97-.91,9.15-.61,4.19-1.41,9.13-2.42,14.83-1.01,5.7-2.22,11.93-3.63,18.69-1.41,6.76-2.93,13.72-4.54,20.88-1.62,7.16-3.28,14.27-4.99,21.33-1.72,7.06-3.43,13.67-5.14,19.82-1.72,6.15-3.36,11.7-4.92,16.64-1.56,4.94-3,8.88-4.31,11.8-2.42,5.35-5.4,9.83-8.93,13.47-3.53,3.63-7.64,6.58-12.33,8.85-4.69,2.27-9.94,3.91-15.74,4.92-5.8,1.01-12.18,1.51-19.14,1.51-3.03,0-6.28-.23-9.76-.68s-6.91-1.06-10.29-1.82c-3.38-.76-6.56-1.64-9.53-2.65-2.98-1.01-5.47-2.07-7.49-3.18-1.11-1.71-2.25-3.78-3.4-6.2-1.16-2.42-2.27-4.97-3.33-7.64-1.06-2.67-2.02-5.3-2.87-7.87-.86-2.57-1.49-4.87-1.89-6.88-2.32.1-3.88.71-4.69,1.82-.81,1.11-1.21,2.62-1.21,4.54,0,2.12.45,4.74,1.36,7.87.91,3.13,2.02,6.46,3.33,9.99-5.75,4.64-12.33,7.92-19.75,9.83-7.41,1.92-15.91,2.87-25.49,2.87-3.93,0-8.02-.15-12.26-.45s-8.35-.88-12.33-1.74c-3.99-.86-7.69-1.99-11.12-3.4-3.43-1.41-6.35-3.28-8.78-5.6-3.73-7.87-7.72-17.3-11.95-28.29-4.24-10.99-8.37-23.55-12.41-37.67-4.04-14.12-7.79-29.73-11.27-46.83-3.48-17.1-6.28-35.63-8.4-55.6Z"/>
          <path class="cls-3" d="m488.18,250.48c-3.26.2-6.31.78-9.17,1.74-2.86.96-5.35,2.06-7.48,3.29-2.13,1.23-3.81,2.49-5.03,3.79-1.23,1.3-1.84,2.44-1.84,3.44,0,.8.28,1.46.85,1.99.56.53,1.18.86,1.84,1,1.2-1.4,2.72-2.77,4.59-4.14,1.86-1.36,4.05-2.59,6.58-3.69,2.52-1.1,5.42-1.98,8.67-2.64,3.26-.66,6.91-1,10.97-1,2.66,0,5.53.23,8.62.7,3.09.47,6.2,1.3,9.32,2.49,3.12,1.2,6.11,2.78,8.97,4.74,2.86,1.96,5.4,4.44,7.63,7.43,2.23,2.99,4,6.55,5.33,10.67,1.33,4.12,1.99,8.91,1.99,14.36,0,2.99-.05,6.18-.15,9.57s-.15,6.68-.15,9.87c0,4.59.5,8.37,1.5,11.36s2.89,5.35,5.68,7.08c.07.53.1,1.18.1,1.94v1.74c0,4.72-.73,8.89-2.19,12.51-1.46,3.62-3.46,6.66-5.98,9.12-2.53,2.46-5.47,4.3-8.82,5.53-3.36,1.23-6.93,1.84-10.72,1.84-3.99,0-7.79-.55-11.41-1.64-3.62-1.1-6.81-2.89-9.57-5.38-2.76-2.49-4.95-5.75-6.58-9.77-1.63-4.02-2.44-8.95-2.44-14.8,0-3.12.12-6.08.35-8.87.23-2.79.5-5.4.8-7.83.3-2.42.58-4.67.85-6.73.27-2.06.4-3.95.4-5.68,0-3.19-.35-5.37-1.05-6.53-.7-1.16-1.81-1.74-3.34-1.74-1,0-1.93.27-2.79.8l1.3,16.25c-.33,1.99-.62,4-.85,6.03-.23,2.03-.42,3.94-.55,5.73-.13,1.79-.23,3.42-.3,4.88-.07,1.46-.1,2.66-.1,3.59,0,5.18.51,9.47,1.55,12.86,1.03,3.39,2.21,6.31,3.54,8.77-2.93,3.06-6.73,5.5-11.41,7.33s-10.02,2.74-16,2.74c-2.99,0-6.03-.43-9.12-1.3s-5.88-2.18-8.37-3.94c-2.49-1.76-4.54-3.95-6.13-6.58-1.6-2.62-2.39-5.73-2.39-9.32v-116.34c3.06-1.79,6.83-3.31,11.31-4.54,4.49-1.23,9.09-1.84,13.81-1.84,3.46,0,6.83.37,10.12,1.1,3.29.73,6.21,1.88,8.77,3.44,2.56,1.56,4.62,3.59,6.18,6.08,1.56,2.49,2.34,5.5,2.34,9.02v9.47Z"/>
          <path class="cls-2" d="m608.11,366.52c-9.11,0-17.35-1.31-24.72-3.94-7.38-2.62-13.67-6.41-18.89-11.36-5.22-4.95-9.24-10.98-12.06-18.09-2.83-7.11-4.24-15.12-4.24-24.02,0-9.37,1.51-17.64,4.54-24.82,3.02-7.18,7.11-13.19,12.26-18.04,5.15-4.85,11.15-8.51,17.99-10.97,6.84-2.46,14.06-3.69,21.63-3.69,8.04,0,15.28,1.18,21.73,3.54,6.45,2.36,11.95,5.6,16.5,9.72,4.55,4.12,8.06,8.94,10.52,14.45,2.46,5.52,3.69,11.4,3.69,17.64,0,5.92-1.05,11-3.14,15.25-2.09,4.25-5,7.76-8.72,10.52-3.72,2.76-8.14,4.8-13.26,6.13-5.12,1.33-10.67,1.99-16.65,1.99-4.52,0-8.89-.53-13.11-1.6-4.22-1.06-7.83-2.49-10.82-4.29-.33.27-.55.62-.65,1.05-.1.43-.15.81-.15,1.15,0,1,.73,1.98,2.19,2.94,1.46.96,3.36,1.83,5.68,2.59,2.33.77,4.98,1.4,7.98,1.89s5.98.75,8.97.75c4.12,0,7.88-.28,11.26-.85,3.39-.56,6.43-1.26,9.12-2.09,2.69-.83,5.03-1.74,7.03-2.74s3.65-1.96,4.98-2.89c.86.73,1.61,1.81,2.24,3.24.63,1.43,1.18,3.01,1.64,4.74.46,1.73.81,3.51,1.05,5.33.23,1.83.35,3.51.35,5.03s-.08,2.97-.25,4.34c-.17,1.36-.38,2.54-.65,3.54-2.13,1.79-4.45,3.51-6.98,5.13-2.53,1.63-5.52,3.06-8.97,4.29-3.46,1.23-7.46,2.23-12.01,2.99-4.55.76-9.92,1.15-16.1,1.15Zm-1.3-67.49c1.66,0,2.91-.35,3.74-1.05.83-.7,1.25-1.61,1.25-2.74,0-1.33-.48-2.26-1.45-2.79-.96-.53-2.11-.8-3.44-.8-1.86,0-3.34.52-4.44,1.55-1.1,1.03-1.78,2.41-2.04,4.14.66.4,1.53.78,2.59,1.15,1.06.37,2.33.55,3.79.55Z"/>
          <path class="cls-7" d="m720.96,366.52c-9.11,0-17.35-1.31-24.72-3.94-7.38-2.62-13.67-6.41-18.89-11.36-5.22-4.95-9.24-10.98-12.06-18.09-2.83-7.11-4.24-15.12-4.24-24.02,0-9.37,1.51-17.64,4.54-24.82,3.02-7.18,7.11-13.19,12.26-18.04,5.15-4.85,11.15-8.51,17.99-10.97,6.84-2.46,14.06-3.69,21.63-3.69,8.04,0,15.28,1.18,21.73,3.54,6.45,2.36,11.95,5.6,16.5,9.72,4.55,4.12,8.06,8.94,10.52,14.45,2.46,5.52,3.69,11.4,3.69,17.64,0,5.92-1.05,11-3.14,15.25-2.09,4.25-5,7.76-8.72,10.52-3.72,2.76-8.14,4.8-13.26,6.13-5.12,1.33-10.67,1.99-16.65,1.99-4.52,0-8.89-.53-13.11-1.6-4.22-1.06-7.83-2.49-10.82-4.29-.33.27-.55.62-.65,1.05-.1.43-.15.81-.15,1.15,0,1,.73,1.98,2.19,2.94,1.46.96,3.36,1.83,5.68,2.59,2.33.77,4.98,1.4,7.98,1.89s5.98.75,8.97.75c4.12,0,7.88-.28,11.26-.85,3.39-.56,6.43-1.26,9.12-2.09,2.69-.83,5.03-1.74,7.03-2.74s3.65-1.96,4.98-2.89c.86.73,1.61,1.81,2.24,3.24.63,1.43,1.18,3.01,1.64,4.74.46,1.73.81,3.51,1.05,5.33.23,1.83.35,3.51.35,5.03s-.08,2.97-.25,4.34c-.17,1.36-.38,2.54-.65,3.54-2.13,1.79-4.45,3.51-6.98,5.13-2.53,1.63-5.52,3.06-8.97,4.29-3.46,1.23-7.46,2.23-12.01,2.99-4.55.76-9.92,1.15-16.1,1.15Zm-1.3-67.49c1.66,0,2.91-.35,3.74-1.05.83-.7,1.25-1.61,1.25-2.74,0-1.33-.48-2.26-1.45-2.79-.96-.53-2.11-.8-3.44-.8-1.86,0-3.34.52-4.44,1.55-1.1,1.03-1.78,2.41-2.04,4.14.66.4,1.53.78,2.59,1.15,1.06.37,2.33.55,3.79.55Z"/>
          <path class="cls-8" d="m778.77,226.06c1.46-.73,3.21-1.45,5.23-2.14,2.03-.7,4.34-1.3,6.93-1.79s5.35-.75,8.27-.75c4.79,0,8.89.53,12.31,1.6,3.42,1.06,6.23,2.54,8.42,4.44s3.8,4.17,4.83,6.83c1.03,2.66,1.55,5.62,1.55,8.87v70.08c0,4.59.5,8.52,1.5,11.81,1,3.29,2.89,5.8,5.68,7.53.07.53.1,1.18.1,1.94v1.74c0,9.64-2.44,16.88-7.33,21.73-4.88,4.85-11.68,7.28-20.39,7.28-3.92,0-7.71-.57-11.36-1.69-3.66-1.13-6.88-3.02-9.67-5.68-2.79-2.66-5.03-6.15-6.73-10.47-1.69-4.32-2.54-9.67-2.54-16.05v-103.58c.66-.4,1.73-.96,3.19-1.69Z"/>
          <path class="cls-3" d="m927.81,254.47c.66.93,1.38,2.13,2.14,3.59.76,1.46,1.46,3.24,2.09,5.33.63,2.09,1.16,4.52,1.6,7.28.43,2.76.65,5.87.65,9.32,0,1.2-.08,2.53-.25,3.99-.17,1.46-.37,2.91-.6,4.34-.23,1.43-.52,2.83-.85,4.19-.33,1.36-.67,2.54-1,3.54-3.06,4.19-6.45,8.09-10.17,11.71-3.72,3.62-7.74,6.9-12.06,9.82-8.57.4-14.82,1.26-18.74,2.59-3.92,1.33-5.88,2.83-5.88,4.49,0,.6.1,1.08.3,1.45.2.37.46.68.8.95,1.2-.66,2.72-1.31,4.59-1.94,1.86-.63,3.94-1.16,6.23-1.6,2.29-.43,4.7-.78,7.23-1.05,2.52-.27,5.08-.4,7.68-.4h19.24c.86,1.46,1.64,3.06,2.34,4.79.7,1.73,1.3,3.46,1.79,5.18.5,1.73.9,3.44,1.2,5.13s.45,3.24.45,4.64c0,4.19-.58,7.68-1.74,10.47-1.16,2.79-2.68,5.02-4.54,6.68-1.86,1.66-3.99,2.83-6.38,3.49-2.39.67-4.82,1-7.28,1h-71.08c-3.06-3.19-5.3-7.19-6.73-12.01-1.43-4.82-2.14-10.45-2.14-16.9,0-1.6.1-3.24.3-4.93s.43-3.32.7-4.88c.27-1.56.55-2.97.85-4.24.3-1.26.55-2.26.75-2.99,2.66-2.92,5.42-5.68,8.27-8.27,2.86-2.59,5.7-5.07,8.52-7.43,2.82-2.36,5.61-4.62,8.37-6.78,2.76-2.16,5.4-4.3,7.93-6.43-.13-.53-.43-1.05-.9-1.55-.47-.5-1.06-.75-1.79-.75-.4,0-.88.08-1.45.25-.57.17-1.35.58-2.34,1.25-1,.67-2.26,1.63-3.79,2.89-1.53,1.26-3.49,3.02-5.88,5.28h-12.36c-2.13-3.52-3.64-7.01-4.54-10.47-.9-3.46-1.35-6.88-1.35-10.27,0-5.05.8-9.34,2.39-12.86,1.6-3.52,3.32-6.15,5.18-7.88h82.24Z"/>
        </g>
      </g>
      <g>
        <path class="cls-2" d="m192.48,201.63c-2.74,0-5.9-.15-9.39-.44-3.39-.29-6.78-.67-10.06-1.13-3.31-.47-6.43-1-9.28-1.58-3.18-.65-5.64-1.31-7.52-2.04l-2.58-1-1.44-2.36c-1.29-2.12-2.69-4.7-4.16-7.67-.07.15-.14.3-.21.46-1.23,2.66-2.86,5.37-4.86,8.02l-1.5,2-2.37.81c-4.03,1.39-9.17,2.54-15.71,3.5-6.35.94-13.77,1.41-22.08,1.41s-16.24-.56-23.94-1.66c-7.97-1.14-15.38-3.06-22.02-5.72l-2.22-.89-1.39-1.94c-4.02-5.63-8-11.93-11.83-18.73-3.87-6.88-7.59-14.91-11.03-23.86-3.41-8.86-6.65-19.08-9.64-30.35-2.85-10.74-5.5-23.22-7.87-37.11-2.94-4.17-5.5-9.15-7.63-14.83-2.49-6.64-3.75-14.07-3.75-22.09,0-6.71.86-13.54,2.57-20.31,1.77-7.02,4.72-13.64,8.75-19.69l2.42-3.63h44.48c9.71,0,17.44,1.15,23.64,3.52,6.5,2.49,11.7,6.06,15.47,10.63.7.85,1.36,1.73,1.97,2.64v-2.44l3.49-2.43c6.6-4.61,13.58-7.93,20.76-9.88,6.98-1.89,14.22-2.86,21.53-2.86,12.62,0,23.3,2.6,31.75,7.73,4.93,3,9.04,6.7,12.3,11.07l.22-4.24,3-2.29c5.01-3.82,11.57-6.88,19.51-9.08,7.65-2.12,15.8-3.2,24.23-3.2,7.51,0,14.47,1.1,20.68,3.28,6.34,2.22,11.9,5.43,16.55,9.55,4.75,4.21,8.45,9.32,11.02,15.19,2.54,5.83,3.83,12.36,3.83,19.43,0,5.22-.57,11.36-1.76,18.77-1.13,7.07-2.62,14.55-4.42,22.21-1.8,7.63-3.85,15.34-6.09,22.91-2.24,7.55-4.46,14.46-6.59,20.53-3.12,8.69-5.99,16.42-8.54,23.03-2.66,6.88-5.4,12.92-8.16,17.96-2.93,5.35-6.16,9.91-9.61,13.55-3.69,3.89-8.1,7.04-13.12,9.34-4.78,2.2-10.4,3.76-16.69,4.64-5.89.82-12.85,1.24-20.69,1.24Z"/>
        <path class="cls-1" d="m143.25,176.4c-.89,1.88-1.82,3.9-2.82,6.05s-2.32,4.34-3.98,6.55c-3.54,1.22-8.29,2.26-14.26,3.15-5.97.88-12.93,1.33-20.89,1.33s-15.44-.53-22.79-1.57c-7.35-1.05-14.06-2.79-20.14-5.22-3.87-5.41-7.65-11.41-11.35-17.99-3.7-6.57-7.21-14.17-10.53-22.79-3.32-8.62-6.44-18.45-9.37-29.51-2.93-11.05-5.61-23.81-8.04-38.29-2.98-3.87-5.55-8.67-7.71-14.42-2.15-5.75-3.23-12.15-3.23-19.23,0-6.08.77-12.18,2.32-18.32,1.55-6.13,4.09-11.85,7.63-17.16h40.11c8.62,0,15.53.99,20.72,2.98,5.19,1.99,9.23,4.72,12.1,8.21,2.87,3.48,4.78,7.6,5.72,12.35.94,4.75,1.41,9.89,1.41,15.42,0,3.87-.06,7.54-.17,11.02-.11,3.48-.25,7.16-.41,11.02-.17,3.87-.31,8.07-.41,12.6-.11,4.53-.17,9.73-.17,15.58,0,2.54.03,4.92.08,7.13.05,2.21.27,4.14.66,5.8.39,1.66,1.02,2.96,1.91,3.9.88.94,2.1,1.41,3.65,1.41h1.41c.5,0,1.02-.11,1.57-.33-.22-2.21-.36-4.78-.41-7.71-.06-2.93-.08-6.05-.08-9.37,0-4.42.08-8.95.25-13.59.17-4.64.33-10,.5-16.08.17-6.08.36-13.12.58-21.13.22-8.01.33-17.6.33-28.76,5.86-4.09,11.93-6.99,18.23-8.7,6.3-1.71,12.76-2.57,19.39-2.57,11.16,0,20.33,2.18,27.52,6.55,7.18,4.37,12.15,10.47,14.92,18.32,0,2.32-.11,5.5-.33,9.53-.22,4.03-.53,8.54-.91,13.51-.39,4.97-.91,10.28-1.57,15.91-.66,5.64-1.41,11.27-2.24,16.91-.83,5.64-1.77,11.05-2.82,16.24-1.05,5.2-2.18,9.84-3.4,13.92.77.44,1.55.72,2.32.83.77.11,1.44.17,1.99.17,1.66,0,2.9-.86,3.73-2.57.83-1.71,1.68-4,2.57-6.88,1.1-3.87,2.13-8.54,3.07-14.01.94-5.47,1.77-11.24,2.49-17.32.72-6.08,1.35-12.27,1.91-18.57.55-6.3,1.05-12.21,1.49-17.74.44-5.52.77-10.41.99-14.67.22-4.25.39-7.43.5-9.53,4.2-3.2,9.78-5.77,16.74-7.71,6.96-1.93,14.31-2.9,22.05-2.9,6.63,0,12.62.94,17.99,2.82,5.36,1.88,9.97,4.53,13.84,7.96,3.87,3.43,6.85,7.54,8.95,12.35,2.1,4.81,3.15,10.19,3.15,16.16,0,4.75-.55,10.58-1.66,17.49-1.11,6.91-2.54,14.12-4.31,21.63-1.77,7.52-3.76,15-5.97,22.46-2.21,7.46-4.37,14.17-6.46,20.14-3.1,8.62-5.91,16.22-8.45,22.79-2.54,6.58-5.11,12.24-7.71,16.99-2.6,4.75-5.39,8.7-8.37,11.85-2.98,3.15-6.52,5.66-10.61,7.54-4.09,1.88-8.9,3.2-14.42,3.98-5.53.77-12.05,1.16-19.56,1.16-2.54,0-5.44-.14-8.7-.41-3.26-.28-6.46-.64-9.61-1.08-3.15-.44-6.08-.94-8.79-1.49-2.71-.55-4.78-1.1-6.22-1.66-1.22-1.99-2.54-4.45-3.98-7.38-1.44-2.93-2.85-5.97-4.23-9.12-1.38-3.15-2.68-6.24-3.9-9.28-1.22-3.04-2.15-5.61-2.82-7.71-2.1.33-3.68.89-4.72,1.66-1.05.77-1.57,2.05-1.57,3.81,0,.55.17,1.41.5,2.57s.75,2.46,1.24,3.9c.5,1.44,1.05,2.96,1.66,4.56.61,1.6,1.24,3.12,1.91,4.56Z"/>
      </g>
      <g>
        <path class="cls-5" d="m329.51,425.18c-3.12,0-6.48-.23-10.01-.69-3.43-.45-6.85-1.05-10.18-1.8-3.38-.76-6.61-1.65-9.59-2.67-3.21-1.08-5.88-2.23-8.17-3.48l-1.72-.95-1.07-1.65c-.33-.51-.66-1.05-1-1.61-5.98,4.65-12.84,8-20.41,9.96-7.44,1.92-16.01,2.9-25.46,2.9-3.8,0-7.79-.15-11.86-.44-4.25-.3-8.44-.9-12.46-1.76-4.11-.88-8.01-2.08-11.59-3.55-4.05-1.66-7.59-3.94-10.52-6.75l-1.04-.99-.62-1.3c-3.5-7.37-7.29-16.33-11.26-26.63-3.98-10.32-7.9-22.23-11.66-35.4-3.76-13.13-7.3-27.86-10.54-43.77-3.24-15.93-5.88-33.42-7.86-52l-.31-2.89,1.65-2.39c4.95-7.16,11.76-12.82,20.24-16.84,8.28-3.93,17.57-5.92,27.63-5.92,7.09,0,13.65.7,19.52,2.09,6.18,1.46,11.61,3.74,16.14,6.75,3.81,2.54,6.97,5.6,9.44,9.14l.44-2.96,3.15-1.9c4.65-2.81,10.18-5.03,16.44-6.61,6.13-1.55,12.52-2.33,19-2.33,4.95,0,9.97.41,14.93,1.22,5.24.86,10.1,2.31,14.44,4.32,4.38,2.03,8.12,4.71,11.15,7.97.03-.54.26-5.51.26-5.51l3.25-2.19c4.12-2.78,9.19-5.09,15.52-7.06,6.36-1.97,14.3-2.93,24.3-2.93,6.87,0,13.26.98,18.98,2.93,5.9,2,11.06,4.95,15.32,8.76,4.33,3.87,7.71,8.59,10.06,14.03,2.32,5.39,3.5,11.38,3.5,17.82,0,2.17-.3,5.3-.92,9.56-.56,3.88-1.32,8.56-2.27,13.91-.93,5.28-2.08,11.15-3.39,17.47-1.31,6.28-2.73,12.8-4.21,19.37-1.48,6.56-3.04,13.22-4.63,19.8-1.6,6.57-3.22,12.8-4.81,18.53-1.59,5.69-3.14,10.94-4.61,15.6-1.55,4.9-2.96,8.74-4.3,11.72-2.61,5.76-5.88,10.68-9.76,14.67-3.88,3.99-8.45,7.27-13.57,9.75-4.96,2.4-10.53,4.15-16.58,5.2-5.77,1-12.16,1.51-18.99,1.51Z"/>
        <path class="cls-6" d="m160.29,251.76c4.19-6.04,9.9-10.79,17.16-14.23,7.25-3.44,15.35-5.16,24.27-5.16,6.51,0,12.42.63,17.72,1.88,5.3,1.26,9.84,3.14,13.6,5.65,3.77,2.51,6.67,5.6,8.72,9.28,2.04,3.67,3.07,7.93,3.07,12.76-.47,5.49-.84,11.37-1.12,17.65s-.54,12.49-.77,18.62c-.23,6.14-.4,12-.49,17.58-.09,5.58-.14,10.37-.14,14.37,0,2.51.25,4.77.77,6.77.51,2,1.84,3,3.98,3,.74,0,1.67-.14,2.79-.42-.09-1.3-.14-2.7-.14-4.19v-4.88c0-5.95.09-12.83.28-20.65.18-7.81.49-15.72.91-23.72.42-8,.93-15.69,1.53-23.09.6-7.39,1.28-13.6,2.02-18.62,4-2.42,8.76-4.32,14.3-5.72,5.53-1.4,11.23-2.09,17.09-2.09,4.56,0,9.11.37,13.67,1.12,4.56.75,8.69,1.98,12.42,3.7,3.72,1.72,6.79,3.98,9.21,6.77,2.42,2.79,3.77,6.23,4.05,10.32-.28,5.02-.79,10.72-1.53,17.09-.75,6.37-1.6,13.04-2.58,20.02-.98,6.98-2.02,14.16-3.14,21.55s-2.19,14.63-3.21,21.69c.84.37,1.72.56,2.65.56,1.3,0,2.46-.44,3.49-1.33,1.02-.88,1.91-3.14,2.65-6.77,1.58-8.37,2.97-16.69,4.19-24.97,1.21-8.28,2.25-16.27,3.14-24,.88-7.72,1.6-15.07,2.16-22.04.56-6.98.98-13.39,1.26-19.25,3.44-2.32,7.93-4.35,13.46-6.07,5.53-1.72,12.86-2.58,21.97-2.58,6.04,0,11.53.84,16.46,2.51,4.93,1.67,9.14,4.07,12.63,7.18,3.49,3.12,6.18,6.88,8.09,11.3,1.91,4.42,2.86,9.32,2.86,14.72,0,1.77-.28,4.58-.84,8.44-.56,3.86-1.3,8.42-2.23,13.67-.93,5.26-2.05,11-3.35,17.23-1.3,6.23-2.7,12.65-4.19,19.25-1.49,6.6-3.02,13.16-4.6,19.67-1.58,6.51-3.16,12.6-4.74,18.28-1.58,5.67-3.09,10.79-4.53,15.35-1.44,4.56-2.77,8.19-3.98,10.88-2.23,4.93-4.98,9.07-8.23,12.42-3.26,3.35-7.05,6.07-11.37,8.16s-9.16,3.6-14.51,4.53c-5.35.93-11.23,1.4-17.65,1.4-2.79,0-5.79-.21-9-.63s-6.37-.98-9.49-1.67c-3.12-.7-6.05-1.51-8.79-2.44-2.74-.93-5.05-1.91-6.91-2.93-1.02-1.58-2.07-3.49-3.14-5.72-1.07-2.23-2.09-4.58-3.07-7.05-.98-2.46-1.86-4.88-2.65-7.25-.79-2.37-1.37-4.49-1.74-6.35-2.14.09-3.58.65-4.32,1.67-.75,1.02-1.12,2.42-1.12,4.19,0,1.95.42,4.37,1.26,7.25.84,2.88,1.86,5.95,3.07,9.21-5.3,4.28-11.37,7.3-18.21,9.07-6.84,1.77-14.67,2.65-23.51,2.65-3.63,0-7.39-.14-11.3-.42s-7.7-.81-11.37-1.6c-3.67-.79-7.09-1.84-10.25-3.14-3.16-1.3-5.86-3.02-8.09-5.16-3.44-7.25-7.11-15.95-11.02-26.09-3.91-10.14-7.72-21.72-11.44-34.74-3.72-13.02-7.18-27.41-10.39-43.18-3.21-15.76-5.79-32.85-7.74-51.27Z"/>
      </g>
    </g>
  </g>
</svg>